<svg width="673" height="762" viewBox="0 0 673 762" fill="none" xmlns="http://www.w3.org/2000/svg">
<path d="M132.611 574.569C129.139 564.844 125.771 554.93 120.001 546.411C114.23 537.894 105.62 530.757 95.2288 529.06C85.0186 527.304 72.1865 529.53 72.569 530.193C90.4701 556.027 109.706 573.424 133.758 576.557L132.611 574.569Z" fill="#54C0C0"/>
<path d="M122.406 692.375C132.884 669.008 137.848 655.478 142.811 643.179C146.671 633.339 147.774 625.549 148.877 618.581C149.98 607.102 145.569 576.353 117.443 564.874" stroke="#242424" stroke-miterlimit="1.8889" stroke-linecap="round" stroke-linejoin="round"/>
<path d="M134.031 636.402C104.565 644.39 92.2972 617.58 92.2972 617.58C92.2972 617.58 115.966 612.337 129.773 622.658C135.572 626.757 134.031 636.402 134.031 636.402Z" fill="#54C2C2"/>
<path d="M158.864 614.493C162.65 581.162 210.026 598.737 210.026 598.737C210.026 598.737 190.513 618.897 170.279 617.696C161.388 617.099 158.323 615.929 158.323 615.929L158.864 614.493Z" fill="#54C2C2"/>
<path d="M124.704 628.9C124.704 628.9 138.777 634.973 137.562 655.571" stroke="#242424" stroke-miterlimit="8.8379" stroke-linecap="round" stroke-linejoin="round"/>
<path d="M167.276 606.84C167.276 606.84 147.459 624.068 144.772 636.303" stroke="#242424" stroke-miterlimit="7.6695" stroke-linecap="round" stroke-linejoin="round"/>
<path d="M141.985 580.153C138.883 568.089 135.424 555.955 134.382 543.448C133.339 530.94 134.452 515.49 139.67 504.743C142.88 509.835 148.675 518.5 149.912 524.892C152.468 540.766 150.993 557.267 144.691 572.28C142.98 576.147 141.091 580.54 142.781 584.5L141.985 580.153Z" fill="#54C0C0"/>
<path d="M141.915 546.474C140.74 551.004 140.639 555.739 140.895 560.544C140.96 570.348 141.475 579.956 142.704 589.704" stroke="#232323" stroke-miterlimit="8.3324" stroke-linecap="round" stroke-linejoin="round"/>
<path d="M183.934 682.99H60.2407L69.8478 708.214H77.0531L87.8612 763.467H156.312L167.121 708.214H174.326L183.934 682.99Z" fill="#2B47C2"/>
<path d="M77.0527 708.214H167.12L163.361 727.433L77.0527 708.214Z" fill="#232323"/>
<path fill-rule="evenodd" clip-rule="evenodd" d="M139.867 407.691C138.591 440.862 123.931 490.145 123.931 490.145C123.931 490.145 111.183 457.922 115.007 430.438C119.469 402.479 141.141 374.52 139.867 407.691Z" fill="#242424"/>
<path d="M51.6327 212.275C45.2584 220.331 38.2457 224.122 36.3333 225.544C36.3333 225.544 55.457 262.98 65.6559 281.462C75.8548 299.469 103.264 331.693 121.112 353.964C130.674 365.811 136.41 376.711 136.41 377.185C132.585 383.345 139.597 475.752 125.574 473.856C110.913 471.96 91.1526 442.107 80.9536 426.469C66.2927 404.196 5.73627 257.768 2.54911 246.395C0.636811 241.183 0 235.496 0 229.81C0.637433 223.175 3.18654 216.539 5.73627 209.906C16.5726 183.842 26.7715 158.254 37.6079 132.19C40.7951 124.608 35.0582 116.553 40.7951 111.34C42.0699 110.392 43.3448 109.917 43.9823 110.391C44.6196 110.865 44.6203 111.339 44.6203 111.813C45.8952 114.656 46.5329 118.448 46.5329 121.765C47.1703 131.243 47.8081 135.981 45.2584 143.563C46.5332 142.615 47.1707 141.194 48.4455 139.773C49.7204 138.351 51.6323 137.876 52.9072 138.351C54.8195 139.298 54.8192 141.667 54.1817 144.037C52.9069 150.198 50.3572 156.358 47.8075 162.045C49.0823 160.149 50.3577 159.201 51.6327 158.254C52.9076 157.305 54.8195 157.779 56.0943 158.254C58.0067 159.201 57.3684 162.044 56.7309 163.939C55.456 167.257 53.5449 170.101 51.6327 173.892C50.3577 177.683 49.7204 181.947 48.4455 185.739" fill="#F2BAC7"/>
<path d="M48.7287 187.364C48.7287 186.891 48.7293 186.416 49.3668 185.942C53.8289 180.729 66.5775 165.566 71.6768 164.618C72.3143 164.618 72.9521 164.144 73.5895 164.618C75.5018 165.091 76.7766 167.462 76.7766 169.831C77.4141 177.887 71.0398 181.204 64.028 184.522C64.028 177.888 58.9285 184.995 57.6537 178.361C57.6537 178.835 60.8409 171.726 60.8409 172.2L64.028 183.1C62.7532 188.313 61.4779 196.842 58.9282 201.58C57.0159 205.371 51.2797 213.428 46.8177 216.271" fill="#F2BAC7"/>
<path d="M72.6228 216.031C75.1726 215.557 77.0838 212.239 76.4465 209.397L47.762 95.6657C47.1246 92.8224 43.9374 90.9267 41.3877 91.8745C38.8379 92.8222 36.9265 95.6661 37.564 98.5094L66.2485 212.239C66.8859 214.61 69.4356 216.505 72.6228 216.031Z" fill="#242424"/>
<path d="M232.815 270.743C228.353 274.534 214.966 301.545 216.242 327.608C216.242 337.085 225.166 341.35 226.44 354.145C230.265 394.425 233.453 412.906 238.552 471.193C302.933 482.566 293.372 491.569 357.752 501.52C369.864 468.822 367.313 388.737 381.338 346.563C389.624 321.921 461.653 348.459 466.752 326.66C468.028 320.499 471.216 270.743 464.203 253.209C457.83 238.045 452.729 226.198 441.255 214.351C431.057 203.926 418.307 196.816 404.284 192.078C384.524 184.496 307.394 184.022 307.394 184.022C250.663 183.549 202.218 193.027 173.534 242.784C155.686 273.112 135.289 322.394 121.903 355.566C121.903 355.566 136.564 411.484 125.09 490.147C164.611 490.622 209.23 369.308 232.177 314.339" fill="#54C1C1"/>
<path d="M407.916 445.53L388.633 472.954C388.633 472.954 354.26 515.337 346.713 502.872C319.046 451.762 278.804 273.505 282.996 273.505C361.806 267.272 347.553 206.814 375.22 187.492C375.22 187.492 429.715 186.247 458.221 242.964C458.221 242.964 486.728 352.661 496.788 372.606C521.94 421.845 508.527 471.084 478.343 478.564C418.818 492.898 407.916 445.53 407.916 445.53Z" fill="#54C1C1"/>
<path d="M315.862 285.453L315.823 283.814L319.602 283.724C320.122 283.712 320.579 283.594 320.974 283.371C321.382 283.148 321.695 282.841 321.912 282.449C322.143 282.056 322.252 281.594 322.239 281.061C322.227 280.527 322.096 280.07 321.847 279.689C321.611 279.308 321.284 279.016 320.865 278.813C320.46 278.609 319.998 278.513 319.478 278.525L315.699 278.615L315.66 276.976L319.559 276.883C320.412 276.863 321.176 277.018 321.851 277.349C322.539 277.679 323.084 278.16 323.486 278.79C323.9 279.407 324.118 280.149 324.139 281.015C324.159 281.869 323.977 282.62 323.592 283.269C323.22 283.905 322.699 284.411 322.028 284.787C321.369 285.149 320.614 285.34 319.761 285.361L315.862 285.453ZM314.73 290.882L314.401 277.006L316.28 276.961L316.61 290.837L314.73 290.882ZM326.536 290.601L326.31 281.104L328.11 281.061L328.335 290.558L326.536 290.601ZM328.207 285.14L327.52 284.856C327.491 283.643 327.748 282.67 328.291 281.937C328.833 281.204 329.631 280.825 330.684 280.8C331.164 280.789 331.599 280.865 331.99 281.029C332.38 281.18 332.747 281.445 333.089 281.823L331.939 283.071C331.734 282.862 331.51 282.714 331.268 282.627C331.026 282.539 330.745 282.499 330.425 282.507C329.758 282.522 329.217 282.749 328.8 283.185C328.384 283.622 328.186 284.274 328.207 285.14ZM338.592 290.515C337.659 290.537 336.814 290.337 336.057 289.915C335.3 289.493 334.693 288.914 334.235 288.178C333.777 287.428 333.537 286.587 333.515 285.654C333.493 284.734 333.694 283.903 334.116 283.159C334.538 282.402 335.117 281.795 335.853 281.337C336.589 280.88 337.424 280.64 338.357 280.618C339.277 280.596 340.115 280.796 340.872 281.218C341.642 281.627 342.256 282.199 342.713 282.935C343.171 283.671 343.411 284.499 343.432 285.419C343.455 286.352 343.255 287.203 342.833 287.974C342.411 288.73 341.825 289.338 341.076 289.796C340.34 290.253 339.512 290.493 338.592 290.515ZM338.551 288.775C339.151 288.761 339.68 288.609 340.14 288.318C340.6 288.027 340.958 287.638 341.213 287.152C341.468 286.652 341.588 286.089 341.573 285.463C341.558 284.85 341.405 284.306 341.114 283.833C340.836 283.36 340.461 282.995 339.988 282.74C339.528 282.47 338.998 282.343 338.398 282.357C337.798 282.372 337.269 282.524 336.809 282.815C336.348 283.093 335.991 283.475 335.736 283.961C335.48 284.447 335.36 284.997 335.375 285.61C335.39 286.236 335.536 286.793 335.814 287.28C336.092 287.754 336.468 288.125 336.941 288.394C337.414 288.662 337.951 288.79 338.551 288.775ZM346.64 290.124L346.374 278.907C346.359 278.28 346.479 277.724 346.734 277.238C347.002 276.738 347.38 276.342 347.866 276.051C348.353 275.746 348.916 275.586 349.555 275.57C350.049 275.559 350.484 275.635 350.861 275.799C351.238 275.951 351.59 276.169 351.917 276.455L350.765 277.662C350.589 277.52 350.406 277.417 350.218 277.355C350.029 277.28 349.822 277.245 349.595 277.25C349.129 277.261 348.772 277.416 348.526 277.715C348.279 278.001 348.162 278.384 348.173 278.864L348.44 290.081L346.64 290.124ZM344.114 282.322L344.075 280.682L353.093 280.468L353.132 282.107L344.114 282.322ZM352.279 289.99L352.053 280.493L353.872 280.449L354.098 289.947L352.279 289.99ZM352.929 279.471C352.609 279.479 352.34 279.379 352.122 279.171C351.903 278.949 351.79 278.672 351.782 278.338C351.774 278.018 351.874 277.749 352.083 277.531C352.291 277.299 352.554 277.18 352.874 277.172C353.221 277.164 353.497 277.271 353.702 277.493C353.921 277.701 354.034 277.965 354.041 278.285C354.049 278.618 353.949 278.9 353.741 279.132C353.546 279.35 353.276 279.463 352.929 279.471ZM356.055 288.76L361.046 283.24C361.553 282.694 361.948 282.225 362.233 281.831C362.516 281.424 362.714 281.053 362.826 280.717C362.952 280.38 363.01 280.032 363.001 279.672C362.985 278.966 362.745 278.418 362.282 278.029C361.82 277.64 361.228 277.454 360.508 277.471C359.802 277.488 359.186 277.676 358.661 278.035C358.136 278.381 357.675 278.912 357.279 279.628L355.933 278.56C356.458 277.64 357.102 276.945 357.864 276.473C358.626 275.989 359.514 275.734 360.527 275.71C361.38 275.69 362.124 275.839 362.758 276.157C363.406 276.475 363.91 276.93 364.271 277.522C364.632 278.113 364.821 278.809 364.84 279.609C364.854 280.182 364.793 280.697 364.657 281.153C364.535 281.61 364.299 282.082 363.951 282.571C363.615 283.045 363.142 283.617 362.531 284.285L358.493 288.642L356.055 288.76ZM356.082 289.9L356.055 288.76L357.642 288.182L365.36 287.999L365.4 289.678L356.082 289.9ZM366.786 284.864L371.629 275.646L373.748 275.596L368.806 284.816L366.786 284.864ZM366.814 286.024L366.786 284.864L367.574 284.325L377.411 284.091L377.451 285.771L366.814 286.024ZM373.678 289.482L373.46 280.304L375.319 280.26L375.537 289.437L373.678 289.482Z" fill="#232323"/>
<path d="M401.133 417.718C401.133 417.718 400.486 490.485 472.449 476.32C492.062 472.402 514.428 444.094 503.782 399.401C492.701 352.869 424.737 365.859 428.137 383.726C431.244 400.37 401.133 417.718 401.133 417.718Z" fill="#242424"/>
<path d="M487.992 389.361C507.765 419.998 501.228 446.557 486.045 457.442C453.729 480.403 422.147 466.647 390.142 442.674C366.36 424.155 281.574 348.6 281.574 348.6C269.028 335.307 241.878 319.651 242.802 294.908C242.91 285.17 238.047 267.992 235.737 262.957C231.414 255.118 233.239 245.946 237.083 248.432C241.461 251.402 257.57 282.666 257.57 282.666C260.576 273.575 258.321 263.67 253.465 255.352C248.61 247.034 241.037 241.182 233.582 234.452C233.051 233.971 231.453 232.53 232.219 231.255C232.87 230.858 232.87 230.858 233.52 230.461C236.652 229.354 240.912 233.2 243.692 234.726C247.537 237.213 256.589 245.385 260.199 249.627C258.476 240.202 241.381 229.689 235.876 221.768C234.811 220.806 235.813 217.776 237.113 216.982C237.763 216.585 237.763 216.585 238.945 216.669C241.31 216.837 242.909 218.28 245.156 219.325C249.533 222.292 264.327 236.631 268.703 239.599C267.693 233.768 248.406 217.34 246.33 210.547C246.557 199.933 272.595 228.356 279.815 236.841C279.219 232.37 271.467 223.403 268.389 219.643C264.364 214.041 268.977 215.254 270.041 216.215C284.771 226.561 293.003 240.878 297.865 258.056C303.911 275.317 308.557 311.971 308.557 311.971C311.399 317.488 315.009 321.731 320.451 325.66C363.585 364.597 374.869 356.094 427.86 379.341C425.91 380.531 464.075 353.999 487.992 389.361Z" fill="#F2BAC7"/>
<path d="M308.285 311.794C311.128 317.312 313.852 321.63 319.295 325.56C362.435 364.499 395.68 363.416 449.355 388.194" stroke="#242424" stroke-miterlimit="3.829" stroke-linecap="round" stroke-linejoin="round"/>
<path d="M287.145 202.75C309.284 204.122 338.063 192.875 359.833 196.44C381.603 200.007 399.316 205.768 425.514 193.149C424.037 188.486 413.336 171.753 411.861 167.09C414.074 170.931 424.406 187.663 428.833 186.566C433.262 185.469 451.341 173.947 454.293 164.621C415.551 167.09 390.46 107.291 388.616 98.2386C387.139 91.6552 387.506 84.7978 387.137 77.9401C386.769 64.2247 385.662 43.3772 377.914 32.4049C370.164 21.1583 356.512 13.4775 342.86 15.1233C342.86 15.1233 341.753 11.5573 339.909 8.26564C335.48 1.40795 309.283 -4.90112 286.036 5.52256C276.812 9.63718 252.829 20.0608 246.556 52.1548C245.081 60.1097 248.031 67.5164 250.984 75.197C251.352 74.6484 248.402 125.121 226.263 141.304C218.883 146.516 202.646 152.552 202.646 152.552C224.416 216.739 258.363 199.733 273.861 201.927" fill="#232323"/>
<path d="M262.193 68.0103C258.872 57.3123 262.932 45.7911 268.835 36.1904C274.371 27.1382 282.118 18.6345 292.081 14.7943C299.091 12.0512 307.21 11.7768 314.59 13.9712L265.146 78.4334L262.193 68.0103Z" fill="#232323"/>
<path d="M302.604 153.155C302.235 152.881 312.935 151.51 316.625 149.864C316.625 150.411 316.256 150.687 315.519 150.961C304.08 155.075 288.582 155.075 277.511 150.412C266.442 145.749 257.218 139.165 252.422 127.919C248.363 118.592 248.732 109.266 250.946 99.3912C253.53 89.5162 258.326 80.1894 263.491 71.6859C264.229 70.3143 265.337 68.9432 265.706 67.2974C266.443 65.9259 266.443 64.2795 266.812 62.6336C269.025 51.1127 274.192 42.6095 284.892 34.1059C284.892 34.1059 300.02 22.5848 314.411 31.9114C323.635 37.946 325.849 49.4672 329.17 60.1651C331.752 68.943 328.432 68.3945 329.17 77.4466C329.539 80.7383 336.181 89.7901 336.918 91.4359C336.918 91.4359 340.977 80.4638 351.309 80.7381C355.736 81.0125 360.534 87.8705 359.796 93.3565C359.427 95.8253 359.059 98.2938 357.582 100.488C353.892 105.974 347.989 109.541 341.347 110.363C343.931 140.537 347.62 170.437 352.417 200.336L352.784 199.514C349.094 206.097 343.19 211.035 336.179 214.052C331.752 215.972 327.326 216.794 322.528 217.343C308.138 218.714 288.581 215.697 282.678 204.45C282.309 203.629 281.94 202.256 281.94 201.433C281.94 200.611 282.309 199.513 282.678 198.691C286.368 183.604 290.426 167.968 294.116 152.881L302.604 153.155Z" fill="#F2BBC8"/>
<path d="M312.791 83.9541L326.43 76.5796" stroke="#232323" stroke-width="1.17136" stroke-miterlimit="1.0617" stroke-linecap="round" stroke-linejoin="round"/>
<path d="M284.85 76.7056C282.268 84.112 276.364 93.4378 270.461 98.101C275.995 101.118 281.529 102.49 283.005 102.765" stroke="#232323" stroke-width="1.3" stroke-miterlimit="8.4257" stroke-linecap="round" stroke-linejoin="round"/>
<path d="M310.715 24.1481C301.49 42.801 316.987 88.336 337.651 91.9019C341.34 81.4783 356.837 68.5857 360.527 58.162C362.004 53.4988 363.849 48.8353 363.112 44.1721C362.373 40.6061 360.527 37.3144 358.314 34.5713C355.731 31.2796 352.41 28.2623 348.72 25.7936C343.922 22.5019 338.758 20.3074 333.592 18.1128C328.427 15.9184 323.26 13.9984 318.095 12.0782C314.405 10.7067 310.714 9.60932 306.655 9.88362C302.597 10.4322 298.908 12.901 298.169 16.7413C298.169 16.467 298.171 15.9187 298.54 15.6443" fill="#232323"/>
<path d="M272.083 59.2596C273.929 57.0651 277.25 56.517 280.202 57.0656C283.154 57.6142 285.737 59.2601 287.95 61.1802" stroke="#232323" stroke-width="1.3" stroke-miterlimit="8.4257" stroke-linecap="round" stroke-linejoin="round"/>
<path d="M301.713 62.8273C304.664 62.0044 307.985 62.2782 310.937 63.6497C313.889 65.0213 316.104 67.4905 317.21 70.2334" stroke="#232323" stroke-width="1.3" stroke-miterlimit="8.4257" stroke-linecap="round" stroke-linejoin="round"/>
<path d="M283.647 119.895C289.173 120.63 297.598 117.011 299.171 113.92" stroke="#232323" stroke-width="1.3" stroke-miterlimit="8.4257" stroke-linecap="round" stroke-linejoin="round"/>
<path d="M236.63 468.664C236.63 468.664 228.512 476.345 217.811 490.335C199.362 513.376 181.283 546.018 171.32 611.852C169.107 626.116 168 642.573 167.262 659.307L163.516 763.467C204.346 763.467 246.376 763.467 276.399 763.467C286.303 709.511 298.904 648.714 306.368 650.255C311.965 651.488 313.179 711.349 313.626 763.467C337.044 763.467 406.696 763.467 427.711 763.467C434.282 695.229 440.112 599.995 428.131 563.025C408.576 502.679 389.02 473.601 389.02 473.601L236.63 468.664Z" fill="white"/>
<path d="M275.382 73.7726C275.437 71.6069 274.361 69.8552 272.871 69.685C271.38 69.5149 270.223 71.0114 270.168 73.177C270.112 75.3428 271.187 77.0949 272.678 77.2652C274.175 77.1645 275.334 75.6676 275.382 73.7726Z" fill="#232323"/>
<path d="M299.579 78.403C299.635 76.2374 298.559 74.4849 297.068 74.3145C295.578 74.1441 294.418 75.6407 294.361 77.8063C294.306 79.9719 295.382 81.7238 296.873 81.8942C298.363 82.0647 299.524 80.5687 299.579 78.403Z" fill="#232323"/>
<path d="M341.606 94.8376C341.975 91.8203 344.558 89.6253 347.14 88.2538C348.986 87.4309 350.831 86.8826 352.675 86.6084" stroke="#232323" stroke-width="1.3" stroke-miterlimit="8.4257" stroke-linecap="round" stroke-linejoin="round"/>
<path d="M343.547 92.1821C345.731 93.5012 347.099 96.0593 346.799 98.641" stroke="#232323" stroke-width="1.3" stroke-miterlimit="8.4257" stroke-linecap="round" stroke-linejoin="round"/>
<path d="M265.15 66.4702C257.588 79.5844 250.909 93.6654 249.625 108.819C248.974 115.697 250.075 123.112 252.983 129.398C256.998 137.242 264.053 143.58 272.027 147.821C287.024 155.607 301.771 154.151 311.419 151.943" stroke="#232323" stroke-width="1.39886" stroke-miterlimit="8.4257" stroke-linecap="round" stroke-linejoin="round"/>
<path d="M291.2 158.916C288.985 171.808 286.033 185.522 283.081 197.866C282.343 200.61 281.975 202.256 283.081 204.724C284.189 206.645 286.033 209.388 287.877 210.485C295.626 215.148 304.482 218.714 313.706 218.714C316.289 218.714 318.505 218.441 320.718 218.167C327.36 217.343 334.001 215.971 340.274 212.954C346.178 209.936 351.343 206.371 353.189 199.787" stroke="#232323" stroke-miterlimit="8.4257" stroke-linecap="round" stroke-linejoin="round"/>
<path d="M344.381 113.881C343.479 142.629 347.168 171.572 353.412 199.769" stroke="#232323" stroke-width="1.39573" stroke-miterlimit="8.4257" stroke-linecap="round" stroke-linejoin="round"/>
<path d="M218.169 283.316C211.775 299.813 211.786 318.565 218.671 334.848C220.876 339.64 223.418 344.13 224.91 349.254C226.323 353.831 226.855 362.89 227.555 367.799C231.782 402.77 233.428 432.977 237.654 467.948" stroke="#232323" stroke-miterlimit="8.4257" stroke-linecap="round" stroke-linejoin="round"/>
<path d="M236.31 468.623C283.45 471.366 329.573 471.906 376.78 473.017" stroke="#232323" stroke-miterlimit="8.4257" stroke-linecap="round" stroke-linejoin="round"/>
<path d="M225.445 480.649C273.782 482.844 328.76 486.684 378.942 485.861" stroke="#232323" stroke-miterlimit="8.4257" stroke-linecap="round" stroke-linejoin="round"/>
<path d="M293.444 484.354C290.492 498.893 288.648 566.921 294.184 580.362C295.29 582.832 296.395 585.3 298.61 586.671C301.931 588.865 305.252 588.59 308.204 586.122" stroke="#232323" stroke-miterlimit="8.4257" stroke-linecap="round" stroke-linejoin="round"/>
<path d="M310.656 484.731C309.859 517.92 309.376 552.492 308.189 585.945C307.553 607.612 306.576 628.447 305.574 649.829" stroke="#232323" stroke-miterlimit="8.4257" stroke-linecap="round" stroke-linejoin="round"/>
<path d="M254.368 487.87C249.022 518.002 224.262 543.702 194.117 549.872" stroke="#232323" stroke-miterlimit="8.4257" stroke-linecap="round" stroke-linejoin="round"/>
<path d="M337.474 495.634C341.34 527.391 365.476 556.041 396.265 564.639" stroke="#232323" stroke-miterlimit="8.4257" stroke-linecap="round" stroke-linejoin="round"/>
<path d="M236.622 468.526C197.51 509.124 179.061 545.332 168.73 629.544C167.991 634.208 167.254 654.507 166.146 680.841C165.35 700.958 164.484 724.671 163.602 747.853" stroke="#232323" stroke-miterlimit="8.4257" stroke-linecap="round" stroke-linejoin="round"/>
<path d="M55.6776 261.974C56.4156 261.698 57.5221 261.15 58.9982 260.876C58.9982 260.876 47.56 281.449 15.0895 289.403C15.0895 289.403 14.7198 288.855 18.0407 285.289" stroke="#232323" stroke-miterlimit="8.4257" stroke-linecap="round" stroke-linejoin="round"/>
<path d="M121.224 353.944C127.612 376.781 135.45 436.649 123.199 489.471" stroke="#232323" stroke-miterlimit="8.4257" stroke-linecap="round" stroke-linejoin="round"/>
<path d="M57.7445 162.976C54.0547 168.735 51.8411 175.044 50.7342 181.628C50.3652 184.37 38.1884 213.448 22.6911 218.386" stroke="#232323" stroke-miterlimit="8.4257" stroke-linecap="round" stroke-linejoin="round"/>
<path d="M292.671 683.693C292.671 683.693 303.372 635.414 308.537 654.342C311.208 663.988 312.795 712.072 313.703 756.26" stroke="#232323" stroke-miterlimit="8.4257" stroke-linecap="round" stroke-linejoin="round"/>
<path d="M323.928 146.655C323.928 146.655 301.786 191.641 287.396 184.234C273.005 176.828 289.241 152.69 289.241 152.69C298.096 153.787 315.809 150.769 323.928 146.655Z" fill="#232323"/>
<path d="M288.57 68.6797L312.188 73.8975V88.4667L288.57 83.249V68.6797Z" stroke="#232323" stroke-width="1.47745" stroke-miterlimit="1.5" stroke-linecap="round" stroke-linejoin="round"/>
<path d="M255.941 61.4053L279.558 66.623V81.1923L255.941 75.9745V61.4053Z" stroke="#232323" stroke-width="1.47745" stroke-miterlimit="1.5" stroke-linecap="round" stroke-linejoin="round"/>
<path d="M279.488 71.9346L288.478 73.5481" stroke="#232323" stroke-width="1.17136" stroke-miterlimit="1.0617" stroke-linecap="round" stroke-linejoin="round"/>
<path d="M529.021 570.848C530.774 547.714 532.088 523.926 527.705 501.116C523.322 478.308 511.925 455.823 492.201 443.116C472.915 430.407 444.425 423.564 444.863 425.194C458.89 494.926 483.434 548.366 529.896 576.389L529.021 570.848Z" fill="#54C0C0"/>
<path d="M560.186 464.718C555.804 440.931 566.322 416.493 579.033 395.965C612.346 341.548 669.328 319.389 669.328 319.389C677.656 351.649 664.945 386.84 643.905 412.583C629.003 430.83 611.032 450.708 590.869 458.854L560.186 464.718Z" fill="#54C0C0"/>
<path d="M534.939 404.503C534.939 404.503 510.485 387.571 504.051 362.385C502.116 354.788 499.033 344.241 501.374 338.321C505.424 340.935 508.426 347.046 509.516 348.575C522.141 368.792 523.747 387.722 534.939 404.503Z" fill="#54C0C0"/>
<path d="M578.318 317.166C594.102 305.783 624.325 307.092 637.558 316.826C612.924 318.57 612.376 321.49 585.4 338.818C574.61 345.749 553.785 351.159 549.582 357.909C549.145 357.899 557.565 332.35 578.318 317.166Z" fill="#54C0C0"/>
<path d="M538.184 368.823C533.696 351.368 528.692 333.814 527.183 315.718C525.675 297.621 527.285 275.266 534.834 259.719C539.478 267.085 547.863 279.623 549.652 288.869C553.35 311.839 551.217 335.711 542.098 357.434C539.623 363.029 536.889 369.385 539.334 375.116L538.184 368.823Z" fill="#54C0C0"/>
<path d="M516.97 619.955C510.835 596.82 494.177 576.618 472.701 566.516C451.222 556.415 424.925 556.089 403.009 566.19C416.158 583.135 437.198 592.258 456.923 600.731L496.371 617.348C500.316 618.978 504.26 620.606 508.644 621.259C513.026 621.91 519.162 622.236 520.039 626.798L516.97 619.955Z" fill="#54C0C0"/>
<path d="M572.328 445.657C555.671 467.163 553.041 496.164 552.164 523.209C550.85 562.639 552.166 602.067 556.111 641.494" stroke="#232323" stroke-miterlimit="10.009" stroke-linecap="round" stroke-linejoin="round"/>
<path d="M569.525 340.693C557.033 346.36 547.112 356.554 542.238 369.394C538.233 379.715 537.453 391.326 537.318 402.388C536.601 431.148 535.251 455.081 556.362 487.022" stroke="#232323" stroke-miterlimit="10.009" stroke-linecap="round" stroke-linejoin="round"/>
<path d="M538.063 320.101C536.363 326.655 536.216 333.508 536.587 340.459C536.682 354.644 537.423 368.546 539.201 382.649" stroke="#232323" stroke-miterlimit="12.0558" stroke-linecap="round" stroke-linejoin="round"/>
<path d="M516.276 376.295C519.318 383.425 522.666 390.423 527.426 396.345C530.903 400.675 535.546 404.65 537.366 410.005" stroke="#232323" stroke-miterlimit="5.7392" stroke-linecap="round" stroke-linejoin="round"/>
<path d="M513.459 539.568C520.91 555.209 528.363 570.85 535.375 586.817C543.265 604.738 550.277 622.986 556.852 641.559" stroke="#232323" stroke-miterlimit="10.009" stroke-linecap="round" stroke-linejoin="round"/>
<path d="M529.501 647.034C526.433 637.584 522.925 628.135 517.227 620.314C514.597 616.73 511.53 613.471 508.9 610.213C506.269 606.953 504.077 603.37 501.447 600.112C498.379 596.201 494.874 592.616 491.367 589.358C485.23 583.819 478.656 578.606 472.081 573.717" stroke="#232323" stroke-miterlimit="10.009" stroke-linecap="round" stroke-linejoin="round"/>
<path d="M627.063 640.949H458.939L473.349 680.588H484.157L499.768 763.467H586.233L603.045 680.588H612.652L627.063 640.949Z" fill="#F9B42B"/>
<path d="M484.999 680.793H603.887L597.459 708.21L484.999 680.793Z" fill="#232323"/>
</svg>
