<svg width="15" height="16" viewBox="0 0 15 16" fill="none" xmlns="http://www.w3.org/2000/svg">
<path fill-rule="evenodd" clip-rule="evenodd" d="M2 5.05556C2 3.36802 3.36802 2 5.05556 2H9.94444C11.632 2 13 3.36802 13 5.05556V9.94444C13 11.632 11.632 13 9.94444 13H5.05556C3.36802 13 2 11.632 2 9.94444V5.05556ZM11.7778 3.83333C11.7778 3.49722 11.5028 3.22222 11.1667 3.22222C10.8306 3.22222 10.5556 3.49722 10.5556 3.83333C10.5556 4.16944 10.8306 4.44444 11.1667 4.44444C11.5028 4.44444 11.7778 4.16944 11.7778 3.83333ZM7.5 4.44444C9.18754 4.44444 10.5556 5.81246 10.5556 7.5C10.5556 9.18754 9.18754 10.5556 7.5 10.5556C5.81246 10.5556 4.44444 9.18754 4.44444 7.5C4.44444 5.81246 5.81246 4.44444 7.5 4.44444ZM5.91239 6.58401C6.2398 6.01647 6.84512 5.66672 7.50033 5.6665C8.51319 5.66617 9.33454 6.48698 9.33488 7.49984C9.33522 8.5127 8.51441 9.33406 7.50155 9.33439C6.84634 9.33461 6.24079 8.98527 5.913 8.41795C5.58521 7.85063 5.58498 7.15154 5.91239 6.58401Z" fill="#018780"/>
</svg>
