<svg width="16" height="16" viewBox="0 0 16 16" fill="none" xmlns="http://www.w3.org/2000/svg">
<path fill-rule="evenodd" clip-rule="evenodd" d="M10.3671 11.9117C10.4961 12.0029 10.6624 12.0257 10.8107 11.9697C10.959 11.9133 11.068 11.7869 11.1008 11.6337C11.4491 10.0001 12.2938 5.86526 12.6108 4.37926C12.6348 4.26726 12.5948 4.15086 12.5066 4.07606C12.4184 4.00126 12.2962 3.97966 12.1872 4.02006C10.507 4.64086 5.33239 6.57886 3.21735 7.36006C3.08311 7.40966 2.99575 7.53846 3.00016 7.67966C3.00497 7.82126 3.10034 7.94406 3.23779 7.98526C4.18631 8.26846 5.43137 8.66246 5.43137 8.66246C5.43137 8.66246 6.01322 10.4165 6.31657 11.3085C6.35464 11.4205 6.4424 11.5085 6.55821 11.5389C6.67362 11.5689 6.79704 11.5373 6.8832 11.4561C7.37048 10.9969 8.12385 10.2869 8.12385 10.2869C8.12385 10.2869 9.55524 11.3345 10.3671 11.9117ZM5.9549 8.44046L6.62772 10.6557L6.77719 9.25286C6.77719 9.25286 9.37671 6.91246 10.8586 5.57846C10.9019 5.53926 10.9079 5.47366 10.8718 5.42766C10.8362 5.38166 10.7704 5.37086 10.7211 5.40206C9.00363 6.49686 5.9549 8.44046 5.9549 8.44046Z" fill="#018780"/>
</svg>
