<svg width="16" height="16" viewBox="0 0 16 16" fill="none" xmlns="http://www.w3.org/2000/svg">
<path fill-rule="evenodd" clip-rule="evenodd" d="M12.6952 4.257C13.2092 4.39539 13.6144 4.80066 13.7528 5.31466C14.0098 6.2537 13.9999 8.21086 13.9999 8.21086C13.9999 8.21086 13.9999 10.1581 13.7528 11.0972C13.6144 11.6112 13.2092 12.0164 12.6952 12.1548C11.7561 12.4019 7.99997 12.4019 7.99997 12.4019C7.99997 12.4019 4.2537 12.4019 3.30477 12.1449C2.79077 12.0066 2.3855 11.6013 2.24712 11.0873C2 10.1581 2 8.20097 2 8.20097C2 8.20097 2 6.2537 2.24712 5.31466C2.3855 4.80066 2.80066 4.3855 3.30477 4.24712C4.24381 4 7.99997 4 7.99997 4C7.99997 4 11.7561 4 12.6952 4.257ZM9.92726 8.20086L6.80371 9.99986V6.40186L9.92726 8.20086Z" fill="#018780"/>
</svg>
