<svg width="42" height="26" viewBox="0 0 42 26" fill="none" xmlns="http://www.w3.org/2000/svg">
<path d="M26.5525 22.9821H15.446V3.02197H26.5525V22.9821Z" fill="#FF5F00"/>
<path d="M16.1577 12.9996C16.1577 8.95061 18.0535 5.34387 21.0057 3.01954C18.8468 1.31987 16.1222 0.3054 13.1611 0.3054C6.15101 0.3054 0.468506 5.98871 0.468506 12.9996C0.468506 20.0105 6.15101 25.6938 13.1611 25.6938C16.1222 25.6938 18.8468 24.6794 21.0057 22.9797C18.0535 20.6554 16.1577 17.0486 16.1577 12.9996Z" fill="#EB001B"/>
<path d="M41.5314 12.9996C41.5314 20.0105 35.8489 25.6938 28.8388 25.6938C25.8777 25.6938 23.1531 24.6794 20.9934 22.9797C23.9464 20.6554 25.8422 17.0486 25.8422 12.9996C25.8422 8.95061 23.9464 5.34387 20.9934 3.01954C23.1531 1.31987 25.8777 0.3054 28.8388 0.3054C35.8489 0.3054 41.5314 5.98871 41.5314 12.9996Z" fill="#F79E1B"/>
<path d="M10.0195 13.0797C10.0195 12.5252 10.3828 12.0697 10.9766 12.0697C11.5439 12.0697 11.9269 12.5056 11.9269 13.0797C11.9269 13.6538 11.5439 14.0897 10.9766 14.0897C10.3828 14.0897 10.0195 13.6342 10.0195 13.0797ZM12.5735 13.0797V11.5024H11.8876V11.8854C11.6701 11.6013 11.3399 11.423 10.8912 11.423C10.0066 11.423 9.31314 12.1165 9.31314 13.0797C9.31314 14.0436 10.0066 14.7363 10.8912 14.7363C11.3399 14.7363 11.6701 14.558 11.8876 14.274V14.657H12.5735V13.0797ZM35.7529 13.0797C35.7529 12.5252 36.1163 12.0697 36.7101 12.0697C37.2781 12.0697 37.6604 12.5056 37.6604 13.0797C37.6604 13.6538 37.2781 14.0897 36.7101 14.0897C36.1163 14.0897 35.7529 13.6342 35.7529 13.0797ZM38.3078 13.0797V10.2355H37.6211V11.8854C37.4035 11.6013 37.0734 11.423 36.6247 11.423C35.7401 11.423 35.0466 12.1165 35.0466 13.0797C35.0466 14.0436 35.7401 14.7363 36.6247 14.7363C37.0734 14.7363 37.4035 14.558 37.6211 14.274V14.657H38.3078V13.0797ZM21.0879 12.0372C21.5298 12.0372 21.8139 12.3144 21.8864 12.8024H20.2494C20.3227 12.3469 20.5992 12.0372 21.0879 12.0372ZM21.1015 11.423C20.1769 11.423 19.5302 12.0961 19.5302 13.0797C19.5302 14.0829 20.2033 14.7363 21.1476 14.7363C21.6227 14.7363 22.0579 14.6177 22.4409 14.2944L22.1047 13.786C21.8403 13.9968 21.5034 14.1161 21.1869 14.1161C20.7449 14.1161 20.3423 13.9114 20.2433 13.3433H22.5859C22.5927 13.258 22.5995 13.1718 22.5995 13.0797C22.5927 12.0961 21.9854 11.423 21.1015 11.423ZM29.384 13.0797C29.384 12.5252 29.7473 12.0697 30.3411 12.0697C30.9084 12.0697 31.2914 12.5056 31.2914 13.0797C31.2914 13.6538 30.9084 14.0897 30.3411 14.0897C29.7473 14.0897 29.384 13.6342 29.384 13.0797ZM31.938 13.0797V11.5024H31.2521V11.8854C31.0338 11.6013 30.7044 11.423 30.2557 11.423C29.3711 11.423 28.6776 12.1165 28.6776 13.0797C28.6776 14.0436 29.3711 14.7363 30.2557 14.7363C30.7044 14.7363 31.0338 14.558 31.2521 14.274V14.657H31.938V13.0797ZM25.5102 13.0797C25.5102 14.0368 26.1764 14.7363 27.1932 14.7363C27.6684 14.7363 27.9849 14.6306 28.3279 14.3601L27.9985 13.8056C27.7409 13.9907 27.4705 14.0897 27.1728 14.0897C26.6252 14.0829 26.2225 13.687 26.2225 13.0797C26.2225 12.4723 26.6252 12.0765 27.1728 12.0697C27.4705 12.0697 27.7409 12.1686 27.9985 12.3537L28.3279 11.7992C27.9849 11.5288 27.6684 11.423 27.1932 11.423C26.1764 11.423 25.5102 12.1226 25.5102 13.0797ZM34.3539 11.423C33.958 11.423 33.7004 11.6081 33.5222 11.8854V11.5024H32.8423V14.657H33.529V12.8886C33.529 12.3666 33.7533 12.0765 34.202 12.0765C34.341 12.0765 34.4861 12.0961 34.6311 12.1558L34.8426 11.5092C34.6908 11.4495 34.4929 11.423 34.3539 11.423ZM15.9661 11.7532C15.636 11.5356 15.1813 11.423 14.6797 11.423C13.8804 11.423 13.366 11.806 13.366 12.433C13.366 12.9475 13.749 13.2648 14.4545 13.3637L14.7786 13.4098C15.1548 13.4627 15.3323 13.5616 15.3323 13.7399C15.3323 13.9839 15.0815 14.1229 14.6132 14.1229C14.138 14.1229 13.7951 13.9711 13.5639 13.7928L13.2406 14.3269C13.6168 14.6041 14.0919 14.7363 14.6064 14.7363C15.5174 14.7363 16.0455 14.3072 16.0455 13.7067C16.0455 13.1522 15.63 12.8621 14.9433 12.7632L14.62 12.7163C14.3231 12.677 14.0851 12.6181 14.0851 12.4066C14.0851 12.1754 14.3095 12.0372 14.6857 12.0372C15.0883 12.0372 15.4781 12.189 15.6693 12.3076L15.9661 11.7532ZM24.8167 11.423C24.4208 11.423 24.1632 11.6081 23.9857 11.8854V11.5024H23.3058V14.657H23.9918V12.8886C23.9918 12.3666 24.2161 12.0765 24.6648 12.0765C24.8038 12.0765 24.9489 12.0961 25.0939 12.1558L25.3054 11.5092C25.1536 11.4495 24.9557 11.423 24.8167 11.423ZM18.9629 11.5024H17.8411V10.5452H17.1476V11.5024H16.5078V12.1294H17.1476V13.5684C17.1476 14.3004 17.4317 14.7363 18.243 14.7363C18.5406 14.7363 18.8836 14.6442 19.1011 14.4923L18.9032 13.9046C18.6985 14.0232 18.4741 14.0829 18.2959 14.0829C17.9529 14.0829 17.8411 13.8714 17.8411 13.5548V12.1294H18.9629V11.5024ZM8.70653 14.657V12.677C8.70653 11.9314 8.23137 11.4298 7.46537 11.423C7.06273 11.4162 6.64725 11.5416 6.35641 11.9843C6.13885 11.6346 5.79589 11.423 5.31393 11.423C4.97701 11.423 4.64765 11.522 4.39005 11.8914V11.5024H3.70337V14.657H4.39609V12.9082C4.39609 12.3605 4.69977 12.0697 5.16889 12.0697C5.62441 12.0697 5.85481 12.3666 5.85481 12.9014V14.657H6.54829V12.9082C6.54829 12.3605 6.86481 12.0697 7.32033 12.0697C7.78869 12.0697 8.01305 12.3666 8.01305 12.9014V14.657H8.70653Z" fill="white"/>
</svg>
