<svg width="24" height="34" viewBox="0 0 24 34" fill="none" xmlns="http://www.w3.org/2000/svg">
<g clip-path="url(#clip0_6_825)">
<path fill-rule="evenodd" clip-rule="evenodd" d="M22.2704 10.9026H15.2011V1.2316C15.2011 0.908626 15.4678 0.643066 15.7921 0.643066H16.8508C16.8532 2.22767 17.4857 3.74751 18.6121 4.86963C19.7414 5.99103 21.2676 6.62106 22.8614 6.62106V10.9026H22.2704ZM22.8614 14.3164C22.8614 18.3497 21.9362 21.3554 20.0849 23.3142C18.2343 25.2731 15.376 26.2501 11.5217 26.2501C7.91917 26.2501 5.18679 25.2731 3.32372 23.3142C1.46082 21.3554 0.530518 18.4027 0.530518 14.4534V1.20501C0.530518 0.896206 0.782254 0.643066 1.09481 0.643066H7.62577C7.93587 0.645524 8.19077 0.896206 8.19077 1.20501V14.7431C8.19077 16.3544 8.49103 17.5969 9.09875 18.4701C10.0414 19.7126 11.7276 20.1277 13.1397 19.4662C13.5949 19.2519 13.995 18.9382 14.31 18.5497C14.906 17.7271 15.2011 16.5186 15.2011 14.9166V12.3841H22.8614V14.3164Z" fill="#1F3E79"/>
<path fill-rule="evenodd" clip-rule="evenodd" d="M18.3579 0.643066H22.2704C22.5972 0.643066 22.8614 0.908626 22.8614 1.2316V5.13273C20.3759 5.13273 18.3579 3.12553 18.3579 0.647969V0.643066Z" fill="#F4821F"/>
<path fill-rule="evenodd" clip-rule="evenodd" d="M1.8117 32.6865C2.67696 32.6865 3.0936 32.2061 3.0936 31.5021V29.8063H2.47603V31.4847C2.47603 32.3703 1.14316 32.3703 1.14316 31.4847V29.8063H0.530518V31.507C0.530518 32.2018 0.947326 32.6865 1.8117 32.6865V32.6865ZM6.82889 32.6334V32.1048H5.45769L6.7997 30.2886V29.8063H4.66573V30.3367H6.00775L4.66573 32.1463V32.6334H6.82889ZM9.71896 32.6865C10.2156 32.6958 10.6758 32.4285 10.9084 31.9894L10.3856 31.7405C10.2572 31.9894 10.0004 32.1487 9.71631 32.1512C8.91944 32.1123 8.53691 31.1593 9.08696 30.5825C9.25135 30.409 9.47952 30.3052 9.71631 30.2935C10.0004 30.2985 10.2572 30.4571 10.3856 30.7061L10.9084 30.4503C10.6758 30.0137 10.2156 29.7457 9.71896 29.7599C8.651 29.7291 7.90738 30.8099 8.32103 31.7918C8.55853 32.3488 9.11351 32.7033 9.71896 32.6865V32.6865ZM15.0026 32.6334L13.9074 29.8063H13.1521L12.0519 32.6334H12.7421L12.9195 32.1555H14.14L14.3149 32.6334H15.0026ZM13.9732 31.6249H13.0863L13.5298 30.409L13.9732 31.6249ZM19.0871 33.3449L18.0453 31.5577C18.4278 31.4656 18.6896 31.1112 18.6653 30.7202C18.6847 30.1923 18.2394 29.765 17.7109 29.8087H16.3812V32.6359H16.9867V31.6298H17.43L18.392 33.3424L19.0846 33.3449H19.0871ZM17.6216 31.1013H16.9891V30.3392H17.6216C17.8493 30.3127 18.0502 30.4887 18.0502 30.7202C18.0502 30.9494 17.8493 31.1278 17.6216 31.1013V31.1013ZM21.3569 32.6359C22.2463 32.6359 22.8638 32.0759 22.8638 31.2248C22.8638 30.3707 22.2463 29.8087 21.3569 29.8087H20.235V32.6359H21.3569ZM21.3569 32.1048H20.841V30.3392H21.3569C21.8611 30.3003 22.2821 30.7202 22.2463 31.2248C22.2679 31.7214 21.8537 32.1314 21.3545 32.1048H21.3569ZM23.5976 29.7532V29.7599C23.5976 30.2304 23.0282 30.4647 22.6965 30.1342C22.3646 29.8014 22.5998 29.2344 23.0699 29.2344H23.5976V29.7532Z" fill="#1F3E79"/>
</g>
<defs>
<clipPath id="clip0_6_825">
<rect width="23.2123" height="32.7703" fill="white" transform="translate(0.393799 0.614746)"/>
</clipPath>
</defs>
</svg>
