<svg width="44" height="14" viewBox="0 0 44 14" fill="none" xmlns="http://www.w3.org/2000/svg">
<path d="M19.0982 13.3406H15.5725L17.7777 0.701172H21.3032L19.0982 13.3406Z" fill="#00579F"/>
<path d="M31.879 1.00979C31.1836 0.75405 30.0806 0.47168 28.7168 0.47168C25.2351 0.47168 22.7833 2.1927 22.7682 4.65325C22.7393 6.46864 24.5236 7.47695 25.8582 8.08226C27.2222 8.70079 27.6859 9.1045 27.6859 9.65584C27.672 10.5026 26.5837 10.8929 25.5686 10.8929C24.161 10.8929 23.4068 10.6917 22.2606 10.2206L21.7963 10.0186L21.303 12.8559C22.1299 13.2051 23.6534 13.515 25.2351 13.5286C28.9344 13.5286 31.3429 11.8342 31.3714 9.21209C31.3855 7.77326 30.4433 6.67077 28.412 5.76986C27.1788 5.19154 26.4237 4.80159 26.4237 4.20986C26.4381 3.67193 27.0624 3.12095 28.4544 3.12095C29.6006 3.09396 30.4427 3.34935 31.0807 3.60491L31.3995 3.73912L31.879 1.00979V1.00979Z" fill="#00579F"/>
<path d="M36.5654 8.8629C36.8557 8.13679 37.973 5.32649 37.973 5.32649C37.9583 5.35348 38.2628 4.58697 38.4369 4.11641L38.6833 5.2055C38.6833 5.2055 39.3509 8.23097 39.4959 8.8629C38.9449 8.8629 37.2618 8.8629 36.5654 8.8629ZM40.9174 0.701172H38.1903C37.3493 0.701172 36.7104 0.92957 36.3475 1.74987L31.1106 13.3404H34.81C34.81 13.3404 35.419 11.7804 35.5499 11.4444C35.9558 11.4444 39.5545 11.4444 40.0766 11.4444C40.1778 11.8882 40.4973 13.3404 40.4973 13.3404H43.7617L40.9174 0.701172V0.701172Z" fill="#00579F"/>
<path d="M12.6277 0.701172L9.17487 9.32006L8.79757 7.57205C8.15922 5.55507 6.15722 3.36367 3.9231 2.27404L7.08573 13.3272H10.814L16.3558 0.701172H12.6277V0.701172Z" fill="#00579F"/>
<path d="M5.96902 0.701172H0.296557L0.238525 0.956555C4.6634 2.00543 7.59391 4.53371 8.79792 7.57258L7.5648 1.76363C7.36178 0.956377 6.73789 0.7278 5.96902 0.701172Z" fill="#FAA61A"/>
</svg>
