<svg width="30" height="30" viewBox="0 0 30 30" fill="none" xmlns="http://www.w3.org/2000/svg">
<path d="M26.2503 14.1138C26.2503 19.7875 21.1903 24.3413 15.0003 24.3413C14.1991 24.3413 13.4191 24.2625 12.6641 24.1175" stroke="white" stroke-width="1.5" stroke-linecap="round" stroke-linejoin="round"/>
<path d="M8.24875 22.2825C5.525 20.42 3.75 17.4675 3.75 14.1138" stroke="white" stroke-width="1.5" stroke-linecap="round" stroke-linejoin="round"/>
<path d="M8.24955 22.2827C8.2483 23.3502 8.2508 24.7902 8.2508 26.3015" stroke="white" stroke-width="1.5" stroke-linecap="round" stroke-linejoin="round"/>
<path d="M3.75 14.1139C3.75 8.44019 8.81 3.8877 15 3.8877C21.19 3.8877 26.25 8.44145 26.25 14.1152" stroke="white" stroke-width="1.5" stroke-linecap="round" stroke-linejoin="round"/>
<path d="M12.6625 24.1128L8.25 26.3003" stroke="white" stroke-width="1.5" stroke-linecap="round" stroke-linejoin="round"/>
<path d="M15.221 14.154C15.343 14.2761 15.343 14.4739 15.221 14.596C15.0989 14.718 14.9011 14.718 14.779 14.596C14.657 14.4739 14.657 14.2761 14.779 14.154C14.9011 14.032 15.0989 14.032 15.221 14.154" stroke="white" stroke-width="1.5" stroke-linecap="round" stroke-linejoin="round"/>
<path d="M20.221 14.154C20.343 14.2761 20.343 14.4739 20.221 14.596C20.0989 14.718 19.9011 14.718 19.779 14.596C19.657 14.4739 19.657 14.2761 19.779 14.154C19.9011 14.032 20.0989 14.032 20.221 14.154" stroke="white" stroke-width="1.5" stroke-linecap="round" stroke-linejoin="round"/>
<path d="M10.221 14.154C10.343 14.2761 10.343 14.4739 10.221 14.596C10.0989 14.718 9.90107 14.718 9.77903 14.596C9.65699 14.4739 9.65699 14.2761 9.77903 14.154C9.90107 14.032 10.0989 14.032 10.221 14.154" stroke="white" stroke-width="1.5" stroke-linecap="round" stroke-linejoin="round"/>
</svg>
