<svg width="33" height="33" viewBox="0 0 33 33" fill="none" xmlns="http://www.w3.org/2000/svg">
<circle cx="25.1667" cy="26.1405" r="4.66667" stroke="white" stroke-width="1.5" stroke-linecap="round" stroke-linejoin="round"/>
<path d="M26.7222 25.3628L24.7788 27.3072L23.6111 26.1405" stroke="white" stroke-width="1.5" stroke-linecap="round" stroke-linejoin="round"/>
<path fill-rule="evenodd" clip-rule="evenodd" d="M10.9464 11.4739H22.0535C22.7899 11.4739 23.3869 10.8769 23.3869 10.1405V9.0274C23.3869 7.20089 22.6613 5.44918 21.3697 4.15765C20.0782 2.86611 18.3265 2.14053 16.5 2.14053V2.14053C14.6735 2.14053 12.9218 2.86611 11.6302 4.15765C10.3387 5.44918 9.6131 7.20089 9.6131 9.0274V10.1405C9.6131 10.8769 10.2101 11.4739 10.9464 11.4739Z" stroke="white" stroke-width="1.5" stroke-linecap="round" stroke-linejoin="round"/>
<path d="M9.16669 11.4739H23.8334" stroke="white" stroke-width="1.5" stroke-linecap="round" stroke-linejoin="round"/>
<path d="M21.8334 11.4738V14.1399C21.8334 17.0854 19.4455 19.4732 16.5 19.4732V19.4732C13.5545 19.4732 11.1667 17.0854 11.1667 14.1399V11.4738" stroke="white" stroke-width="1.5" stroke-linecap="round" stroke-linejoin="round"/>
<path d="M13.7017 18.6804L12.7363 22.5422" stroke="white" stroke-width="1.5" stroke-linecap="round" stroke-linejoin="round"/>
<path d="M18.5 2.43567V4.27459C18.5 5.37916 17.6046 6.27459 16.5 6.27459V6.27459C15.3954 6.27459 14.5 5.37916 14.5 4.27459V2.43567" stroke="white" stroke-width="1.5" stroke-linecap="round" stroke-linejoin="round"/>
<path d="M19.3017 18.6804L19.8333 20.8072" stroke="white" stroke-width="1.5" stroke-linecap="round" stroke-linejoin="round"/>
<path d="M17.8333 23.443C15.9531 23.7956 14.0095 23.401 12.4157 22.343H12.4156C12.1495 22.1656 11.8238 22.1012 11.5102 22.1639L7.71551 22.9228C5.8458 23.2968 4.49997 24.9385 4.5 26.8452V27.4739" stroke="white" stroke-width="1.5" stroke-linecap="round" stroke-linejoin="round"/>
</svg>
