<svg width="137" height="180" viewBox="0 0 137 180" fill="none" xmlns="http://www.w3.org/2000/svg">
<g clip-path="url(#clip0_49_4888)">
<path opacity="0.18" d="M126.396 137.618C122.627 150.665 114.869 162.969 103.343 170.144C96.382 174.48 88.3485 176.818 80.2599 178.173C79.428 178.314 78.6011 178.429 77.7541 178.534C68.8244 179.748 59.7595 179.547 50.8924 177.937C37.8273 175.524 25.3837 169.863 16.1575 160.274C3.12755 146.68 1.8446 124.968 8.10399 107.214C10.6098 100.114 14.1178 93.3799 16.1224 86.139C20.7781 68.9676 16.2778 50.4062 20.2319 33.0542C21.2943 28.3423 23.0333 23.6807 25.9751 19.842C28.556 16.3896 32.019 13.7502 35.5972 11.3717C46.2918 4.34655 58.9258 -0.500779 71.7102 0.422523C84.4946 1.34582 97.2189 8.8627 101.99 20.7602C105.267 28.9345 104.631 38.2277 107.613 46.4973C111.076 56.1167 119.034 63.4127 123.544 72.5906C127.263 80.1727 128.496 88.7232 129.197 97.1785C130.325 110.727 130.18 124.561 126.396 137.618Z" fill="#018780"/>
<path d="M136.674 26.3502V104.369C136.674 106.817 135.703 109.164 133.974 110.894C132.246 112.625 129.902 113.597 127.458 113.597H9.54139C7.0971 113.597 4.75293 112.625 3.02456 110.894C1.29618 109.164 0.325195 106.817 0.325195 104.369V26.3502C0.326613 25.9946 0.348364 25.6395 0.390344 25.2864C0.648733 23.038 1.72417 20.9634 3.41174 19.4578C5.09932 17.9523 7.28109 17.1209 9.54139 17.1222H127.458C129.718 17.1209 131.9 17.9523 133.587 19.4578C135.275 20.9634 136.35 23.038 136.609 25.2864C136.651 25.6395 136.672 25.9946 136.674 26.3502Z" fill="white" stroke="#44B2AC" stroke-width="1.29" stroke-miterlimit="10"/>
<path opacity="0.18" d="M105.437 81.1863C113.312 81.1863 119.695 74.7947 119.695 66.9103C119.695 59.0258 113.312 52.6342 105.437 52.6342C97.5631 52.6342 91.1797 59.0258 91.1797 66.9103C91.1797 74.7947 97.5631 81.1863 105.437 81.1863Z" fill="#018780"/>
<path d="M102.275 71.2808L91.931 59.8148C91.5753 59.4381 91.3633 58.9481 91.3321 58.4307C91.301 57.9133 91.4526 57.4014 91.7606 56.9847C91.9527 56.7413 92.1956 56.5429 92.4723 56.4032C92.7489 56.2635 93.0527 56.1859 93.3624 56.1759C93.6721 56.1659 93.9802 56.2236 94.2653 56.3451C94.5504 56.4666 94.8056 56.6489 95.013 56.8793L103.322 66.0671C103.455 66.2134 103.616 66.3309 103.796 66.4124C103.975 66.4939 104.17 66.5377 104.367 66.541C104.564 66.5443 104.76 66.507 104.942 66.4316C105.125 66.3561 105.29 66.244 105.427 66.1023L125.358 45.4936C125.573 45.2708 125.834 45.0976 126.123 44.9859C126.412 44.8742 126.721 44.8267 127.03 44.8468C127.339 44.8668 127.64 44.9539 127.912 45.102C128.184 45.2501 128.421 45.4556 128.605 45.7043C128.901 46.1316 129.036 46.6493 128.989 47.1668C128.941 47.6843 128.713 48.1684 128.345 48.5344L106.294 71.341C106.032 71.6121 105.718 71.8266 105.37 71.9713C105.022 72.1159 104.648 72.1876 104.271 72.182C103.895 72.1763 103.523 72.0935 103.18 71.9385C102.836 71.7835 102.528 71.5596 102.275 71.2808Z" fill="#44B2AC"/>
<path opacity="0.18" d="M77.7588 43.1854H11.3361C9.42077 43.1854 7.8681 44.7401 7.8681 46.6578C7.8681 48.5756 9.42077 50.1303 11.3361 50.1303H77.7588C79.6741 50.1303 81.2268 48.5756 81.2268 46.6578C81.2268 44.7401 79.6741 43.1854 77.7588 43.1854Z" fill="#018780"/>
<path opacity="0.18" d="M77.7588 52.9303H11.3361C9.42077 52.9303 7.8681 54.485 7.8681 56.4027V97.0882C7.8681 99.0059 9.42077 100.561 11.3361 100.561H77.7588C79.6741 100.561 81.2268 99.0059 81.2268 97.0882V56.4027C81.2268 54.485 79.6741 52.9303 77.7588 52.9303Z" fill="#018780"/>
<path d="M72.5469 50.9181C74.1255 53.4973 72.1159 89.6215 73.439 91.4229C76.5411 95.648 83.1914 107.751 82.9308 113C77.9644 113.181 70.5623 113.11 65.6561 112.343C64.754 112.202 63.7968 112.017 63.1503 111.384C62.6005 110.756 62.224 109.995 62.0578 109.176L56.1492 88.8537C53.7637 80.6494 51.3832 71.8479 53.9592 63.6988C55.2571 59.5891 57.7379 55.9712 60.1835 52.4235C61.5516 50.4163 59.3365 46.7231 61.8824 46.2966C64.5485 45.845 71.2189 48.7554 72.5469 50.9181Z" fill="url(#paint0_linear_49_4888)"/>
<path d="M77.7636 154.609V178.529C68.8338 179.743 59.7689 179.542 50.9018 177.932C50.7114 174.154 50.2052 166.02 49.2831 162.166C48.0653 157.048 43.6952 155.828 39.7963 151.212C35.8973 146.595 34.444 129.027 33.4717 126.122C32.4995 123.217 26.6661 118.093 23.6191 114.676C22.7525 113.789 22.1909 112.649 22.0161 111.421C21.8412 110.193 22.0622 108.941 22.6468 107.847C22.6468 107.847 36.9948 114.676 36.9948 113.211C36.9948 111.746 33.7173 108.589 33.7173 108.589C33.7173 108.589 25.1977 104.575 22.1557 101.153C19.1137 97.7305 21.0632 93.6259 21.0632 93.6259L39.3102 100.28L41.0091 98.8244L33.9579 95.4122C33.9579 95.4122 26.8916 91.7542 22.7571 88.5878C18.6226 85.4215 20.3365 77.8795 20.3365 77.8795L46.8525 90.0531L43.6902 83.2387C43.6902 83.2387 27.8789 78.3613 23.4988 74.2064C19.1187 70.0516 20.3365 65.4351 20.3365 65.4351C20.3365 65.4351 52.2098 72.9871 56.3443 75.4308C60.4788 77.8745 74.1002 107.345 74.5813 108.795C75.0624 110.245 77.7636 154.609 77.7636 154.609Z" fill="#FCAB9A"/>
<path d="M53.2424 132.961L48.9876 147.704C48.9876 147.704 38.4032 148.798 34.8751 133.087C31.347 117.376 53.2424 132.961 53.2424 132.961Z" fill="#D17E6D"/>
<path d="M60.5194 45.9553H32.1793C27.9252 45.9553 24.4766 49.4084 24.4766 53.6679V125.46C24.4766 129.719 27.9252 133.172 32.1793 133.172H60.5194C64.7735 133.172 68.2221 129.719 68.2221 125.46V53.6679C68.2221 49.4084 64.7735 45.9553 60.5194 45.9553Z" fill="#AF89FF"/>
<path d="M60.5194 45.9553H32.1793C27.9252 45.9553 24.4766 49.4084 24.4766 53.6679V125.46C24.4766 129.719 27.9252 133.172 32.1793 133.172H60.5194C64.7735 133.172 68.2221 129.719 68.2221 125.46V53.6679C68.2221 49.4084 64.7735 45.9553 60.5194 45.9553Z" fill="#82E3DD"/>
<path d="M60.5996 45.865H32.0991C27.8893 45.865 24.4766 49.2821 24.4766 53.4973V123.593C24.4766 127.808 27.8893 131.225 32.0991 131.225H60.5996C64.8094 131.225 68.2221 127.808 68.2221 123.593V53.4973C68.2221 49.2821 64.8094 45.865 60.5996 45.865Z" fill="#44B2AC"/>
<path d="M59.2867 47.8372H33.6427C29.8592 47.8372 26.792 50.9083 26.792 54.6967V117.612C26.792 121.4 29.8592 124.471 33.6427 124.471H59.2867C63.0703 124.471 66.1375 121.4 66.1375 117.612V54.6967C66.1375 50.9083 63.0703 47.8372 59.2867 47.8372Z" fill="white"/>
<path d="M43.9401 104.911L39.2721 99.8788C39.1115 99.7135 39.0159 99.4984 39.0018 99.2713C38.9877 99.0442 39.0562 98.8195 39.1952 98.6366C39.2819 98.5298 39.3915 98.4427 39.5163 98.3814C39.6412 98.3201 39.7783 98.2861 39.918 98.2817C40.0578 98.2773 40.1968 98.3026 40.3255 98.3559C40.4542 98.4092 40.5693 98.4892 40.663 98.5904L44.4128 102.623C44.4726 102.687 44.5453 102.739 44.6264 102.775C44.7075 102.81 44.7953 102.83 44.8843 102.831C44.9733 102.832 45.0617 102.816 45.144 102.783C45.2262 102.75 45.3007 102.701 45.3627 102.638L54.3572 93.593C54.4544 93.4952 54.5722 93.4192 54.7025 93.3701C54.8328 93.3211 54.9725 93.3003 55.112 93.3091C55.2514 93.3179 55.3871 93.3561 55.5099 93.4211C55.6326 93.4861 55.7394 93.5763 55.8227 93.6855C55.956 93.873 56.0173 94.1003 55.9958 94.3274C55.9743 94.5545 55.8714 94.767 55.7051 94.9277L45.7539 104.938C45.6357 105.057 45.4938 105.151 45.3368 105.215C45.1798 105.278 45.0111 105.309 44.8411 105.307C44.6712 105.305 44.5035 105.268 44.3485 105.2C44.1936 105.132 44.0545 105.034 43.9401 104.911Z" fill="#F8C244"/>
<path d="M47.5589 82.0444C44.166 82.0434 40.8491 83.0499 38.0275 84.9364C35.2059 86.8229 33.0064 89.5049 31.7071 92.6431C30.4078 95.7813 30.0671 99.2348 30.7281 102.567C31.389 105.899 33.0219 108.96 35.4203 111.363C37.8187 113.766 40.8748 115.403 44.2023 116.066C47.5297 116.73 50.979 116.391 54.1139 115.092C57.2489 113.793 59.9287 111.592 61.8145 108.768C63.7003 105.944 64.7073 102.623 64.7083 99.2259C64.707 94.6712 62.9001 90.3033 59.6845 87.0818C56.4689 83.8602 52.1077 82.0484 47.5589 82.0444ZM47.5589 113.477C44.7972 113.478 42.0973 112.659 39.8006 111.123C37.5039 109.588 35.7135 107.405 34.656 104.85C33.5985 102.296 33.3213 99.4847 33.8594 96.7726C34.3976 94.0604 35.727 91.5689 37.6794 89.6133C39.6318 87.6576 42.1196 86.3257 44.8281 85.7858C47.5367 85.246 50.3442 85.5226 52.8958 86.5805C55.4473 87.6385 57.6282 89.4304 59.1626 91.7295C60.697 94.0286 61.516 96.7316 61.516 99.4968C61.512 103.202 60.0404 106.755 57.4239 109.376C54.8075 111.997 51.2598 113.472 47.5589 113.477Z" fill="#95DBD7" fill-opacity="0.19"/>
<path d="M71.0631 120.106C68.7628 115.825 66.4023 111.525 63.2601 107.817C60.1179 104.108 56.1037 100.982 51.4279 99.6876C50.3053 99.3714 48.9222 99.246 48.1604 100.149C47.6593 100.792 47.6593 101.715 47.7745 102.538C48.1559 105.294 49.196 107.917 50.8065 110.185C52.0343 111.911 53.5729 113.402 54.7405 115.168C55.9082 116.934 56.7101 119.112 56.1989 121.164C53.3022 132.756 50.2302 145.677 57.9078 154.825C58.6474 155.796 59.581 156.603 60.6491 157.193C61.6724 157.626 62.7625 157.879 63.8715 157.941C65.7726 158.135 67.6753 158.239 69.5797 158.252C70.8242 158.335 72.072 158.149 73.2381 157.705C76.4956 156.235 76.9516 151.874 76.9366 148.296C76.8965 138.446 75.7188 128.792 71.0631 120.106Z" fill="#FCAB9A"/>
<path d="M136.609 25.2864H0.390747C0.649136 23.0381 1.72457 20.9635 3.41215 19.4579C5.09973 17.9523 7.2815 17.121 9.54179 17.1223H127.458C129.718 17.121 131.9 17.9523 133.588 19.4579C135.275 20.9635 136.351 23.0381 136.609 25.2864Z" fill="#44B2AC"/>
<path d="M39.5558 67.698C40.8816 67.698 41.9563 66.6219 41.9563 65.2945C41.9563 63.967 40.8816 62.8909 39.5558 62.8909C38.23 62.8909 37.1553 63.967 37.1553 65.2945C37.1553 66.6219 38.23 67.698 39.5558 67.698Z" fill="#95DBD7"/>
<path d="M45.8857 67.698C47.2115 67.698 48.2862 66.6219 48.2862 65.2945C48.2862 63.967 47.2115 62.8909 45.8857 62.8909C44.5599 62.8909 43.4852 63.967 43.4852 65.2945C43.4852 66.6219 44.5599 67.698 45.8857 67.698Z" fill="#95DBD7"/>
<path d="M52.2101 67.698C53.5359 67.698 54.6106 66.6219 54.6106 65.2945C54.6106 63.967 53.5359 62.8909 52.2101 62.8909C50.8843 62.8909 49.8096 63.967 49.8096 65.2945C49.8096 66.6219 50.8843 67.698 52.2101 67.698Z" fill="#95DBD7"/>
<path opacity="0.18" d="M77.7588 31.4937H11.3361C9.42077 31.4937 7.8681 33.0483 7.8681 34.9661C7.8681 36.8838 9.42077 38.4385 11.3361 38.4385H77.7588C79.6741 38.4385 81.2268 36.8838 81.2268 34.9661C81.2268 33.0483 79.6741 31.4937 77.7588 31.4937Z" fill="#018780"/>
<path d="M68.0869 114.445C68.0869 114.445 69.0892 115.088 69.3649 113.989C69.6405 112.89 70.9134 101.108 70.9134 101.108L68.0869 95.3521V114.445Z" fill="url(#paint1_linear_49_4888)"/>
<path d="M51.7087 126.87H40.8538C40.2227 126.87 39.7112 127.381 39.7112 128.011C39.7112 128.642 40.2227 129.153 40.8538 129.153H51.7087C52.3398 129.153 52.8514 128.642 52.8514 128.011C52.8514 127.381 52.3398 126.87 51.7087 126.87Z" fill="url(#paint2_linear_49_4888)"/>
</g>
<defs>
<linearGradient id="paint0_linear_49_4888" x1="91.6107" y1="77.463" x2="11.3686" y2="86.5276" gradientUnits="userSpaceOnUse">
<stop stop-opacity="0"/>
<stop offset="0.99"/>
</linearGradient>
<linearGradient id="paint1_linear_49_4888" x1="663.178" y1="3233.53" x2="1590.04" y2="5914.57" gradientUnits="userSpaceOnUse">
<stop stop-opacity="0"/>
<stop offset="0.99"/>
</linearGradient>
<linearGradient id="paint2_linear_49_4888" x1="1253.08" y1="671.701" x2="1253.08" y2="782.549" gradientUnits="userSpaceOnUse">
<stop stop-opacity="0"/>
<stop offset="0.99"/>
</linearGradient>
<clipPath id="clip0_49_4888">
<rect width="137" height="179" fill="white" transform="translate(0 0.307129)"/>
</clipPath>
</defs>
</svg>
