<svg width="207" height="184" viewBox="0 0 207 184" fill="none" xmlns="http://www.w3.org/2000/svg">
<g clip-path="url(#clip0_49_4826)">
<path opacity="0.18" d="M114.538 0.354142C113.964 0.354142 113.332 0.411639 112.723 0.457636C100.588 1.30158 88.8527 5.15041 78.5731 11.658C76.5327 12.9605 74.5646 14.3732 72.6775 15.8897C67.1497 20.3284 62.1908 25.7504 59.5648 32.3337C58.1972 35.7835 57.4961 39.4116 56.6917 43.0108C54.4851 52.5438 50.9455 62.3872 43.2974 68.4818C33.7645 76.0829 22.1744 78.6932 13.8885 88.2434C5.69442 97.6901 -0.0172683 108.597 -2.97501e-05 121.361C-2.97501e-05 153.14 27.4264 164.179 53.1003 172.148C83.4631 181.612 115.762 185.947 147.429 181.641C160.847 179.812 174.436 176.288 185.354 168.325C201.742 156.411 209.62 134.551 206.219 114.778C204.495 104.745 201.461 95.6777 200.639 85.3685C199.57 71.9258 201.828 58.1439 197.892 45.0117C191.342 23.2263 168.587 8.98437 147.205 4.94237C136.288 2.88399 125.789 -0.082832 114.538 0.354142Z" fill="#018780"/>
<path d="M182.074 163.218C182.325 163.337 182.552 163.501 182.746 163.701C182.976 163.925 183.123 164.22 183.164 164.539C183.205 164.857 183.136 165.18 182.97 165.455C182.612 165.812 182.131 166.018 181.625 166.03L163.812 168.801C160.698 169.284 157.56 169.767 154.417 169.612C152.931 169.537 151.455 169.319 150.01 168.962C147.326 168.301 144.769 167.162 142.057 166.662C139.345 166.162 136.644 166.489 133.932 166.317C130.691 166.116 127.611 164.788 124.457 164.017C120.061 162.982 115.447 163.781 111.2 162.608C106.755 161.411 102.188 160.718 97.5877 160.544C92.9218 160.332 88.2501 160.47 83.5843 160.475C81.2456 160.475 78.9069 160.475 76.5682 160.343C74.8903 160.263 71.6495 159.262 70.1152 159.768C76.9187 157.514 84.1761 157.319 91.3128 157.175C97.5992 157.056 103.884 156.964 110.166 156.899C117.952 156.824 125.807 156.801 133.421 158.474L122.865 160.918C128.308 162.173 133.88 162.785 139.466 162.741L146.539 162.62C149.165 162.58 151.791 162.62 154.417 162.62C155.526 162.62 156.75 162.43 157.865 162.511C158.98 162.591 160.192 163.183 161.313 163.592C161.939 163.889 162.633 164.013 163.324 163.954C163.944 163.765 164.527 163.472 165.048 163.086C167.254 161.769 169.938 161.717 172.483 161.786C175.389 161.786 178.284 162.143 181.102 162.85C181.437 162.941 181.763 163.064 182.074 163.218Z" fill="url(#paint0_linear_49_4826)"/>
<path opacity="0.18" d="M120.79 35.8228H80.412C75.8104 35.8228 72.0801 39.5554 72.0801 44.1597V141.409C72.0801 146.014 75.8104 149.746 80.412 149.746H120.79C125.392 149.746 129.122 146.014 129.122 141.409V44.1597C129.122 39.5554 125.392 35.8228 120.79 35.8228Z" fill="#018780"/>
<path d="M119.94 37.2544H81.2622C76.8129 37.2544 73.2061 40.8634 73.2061 45.3154V140.058C73.2061 144.51 76.8129 148.119 81.2622 148.119H119.94C124.389 148.119 127.996 144.51 127.996 140.058V45.3154C127.996 40.8634 124.389 37.2544 119.94 37.2544Z" fill="#473F47"/>
<path d="M126.508 46.3734V137.868C126.514 138.879 126.321 139.881 125.94 140.817C125.559 141.754 124.997 142.606 124.287 143.325C123.576 144.044 122.732 144.616 121.8 145.009C120.869 145.401 119.87 145.606 118.86 145.612H82.4058C81.0697 145.614 79.757 145.261 78.6019 144.589C77.427 143.905 76.4524 142.924 75.7757 141.744C75.099 140.565 74.744 139.228 74.7462 137.868V46.3734C74.737 44.3305 75.5385 42.3674 76.9746 40.9153C78.4108 39.4632 80.3642 38.6408 82.4058 38.6286H88.5715V39.7785C88.5793 40.5095 88.8013 41.2221 89.2098 41.8281C89.6184 42.4341 90.1955 42.907 90.8699 43.1881C91.3179 43.3665 91.7956 43.4582 92.2777 43.4583H109.217C110.204 43.4522 111.147 43.0556 111.842 42.3552C112.536 41.6549 112.925 40.7077 112.924 39.721V38.6286H118.888C120.863 38.6301 122.759 39.4014 124.175 40.779C124.919 41.507 125.509 42.3775 125.91 43.3387C126.311 44.2998 126.514 45.3319 126.508 46.3734Z" fill="white"/>
<path d="M126.507 46.3734V73.5923H74.7227V46.3734C74.7182 45.36 74.9134 44.3555 75.2972 43.4176C75.681 42.4796 76.2458 41.6266 76.9593 40.9073C77.6729 40.1879 78.5211 39.6164 79.4556 39.2255C80.3901 38.8345 81.3925 38.6317 82.4054 38.6287H88.5825V39.7786C88.5904 40.5096 88.8123 41.2222 89.2209 41.8282C89.6294 42.4342 90.2066 42.907 90.881 43.1881C91.3289 43.3665 91.8066 43.4582 92.2888 43.4584H109.228C110.215 43.4523 111.158 43.0557 111.853 42.3553C112.547 41.6549 112.936 40.7078 112.935 39.7211V38.6287H118.899C120.874 38.6302 122.77 39.4015 124.186 40.779C124.928 41.508 125.516 42.379 125.915 43.3401C126.314 44.3012 126.515 45.3328 126.507 46.3734Z" fill="#44B2AC"/>
<path d="M72.0627 111.04H90.7722C92.0301 111.019 93.2281 110.499 94.103 109.594C94.9779 108.689 95.4581 107.474 95.4381 106.216V65.192C95.448 64.569 95.3352 63.9503 95.106 63.371C94.8769 62.7917 94.5359 62.2632 94.1026 61.8158C93.6693 61.3684 93.1522 61.0107 92.5808 60.7633C92.0093 60.5159 91.3948 60.3835 90.7722 60.3738H72.0627V111.04Z" fill="url(#paint1_linear_49_4826)"/>
<path d="M87.9448 60.3738H48.1986C45.8533 60.3738 43.9521 62.2761 43.9521 64.6228V103.628C43.9521 105.975 45.8533 107.877 48.1986 107.877H87.9448C90.2901 107.877 92.1912 105.975 92.1912 103.628V64.6228C92.1912 62.2761 90.2901 60.3738 87.9448 60.3738Z" fill="white"/>
<path d="M160.749 155.732C160.749 155.732 162.507 157.388 162.162 158.566C161.817 159.745 160.237 160.527 160.019 161.964C159.8 163.402 158.95 164.184 158.18 164.184H154.503C154.503 164.184 153.928 163.172 155.307 162.867C156.686 162.562 157.192 160.872 157.106 159.302C157.072 158.082 157.116 156.86 157.238 155.646L160.151 154.944L160.749 155.732Z" fill="#FCAB9A"/>
<path d="M145.878 156.433C145.878 156.433 146.51 163.448 145.74 163.844H135.845C135.845 163.844 135.845 162.666 137.431 162.407C139.017 162.148 141.804 161.188 142.275 159.049C142.746 156.91 145.878 156.433 145.878 156.433Z" fill="#FCAB9A"/>
<path d="M152.911 106.106C150.883 101.398 149.642 100.052 149.878 98.5859C150.056 97.4993 149.337 78.3241 149.337 78.3241C149.096 78.2437 148.613 78.1747 148.349 78.1172C147.935 78.0207 147.551 77.8209 147.235 77.5364C146.919 77.2519 146.679 76.892 146.539 76.49C146.1 75.0899 145.892 73.6275 145.924 72.1605L145.666 72.2123L141.293 73.1092C141.293 73.1092 141.39 74.5294 141.39 75.869V75.9035C141.401 76.4628 141.23 77.0105 140.903 77.4638C140.575 77.9172 140.109 78.2514 139.575 78.4161L138.54 78.7209C137.537 81.8395 136.894 85.0632 136.627 88.3286C136.322 93.1928 139.552 95.3086 136.627 105.037C133.599 114.961 154.038 108.7 152.911 106.106Z" fill="#FCBDBA"/>
<path d="M149.878 98.5803C149.878 98.5803 154.216 104.6 154.624 108.665C155.032 112.73 155.256 127.018 156.118 130.985C156.98 134.953 160.14 142.582 160.14 154.944C159.843 155.461 159.363 155.848 158.796 156.031C158.408 156.167 158.013 156.281 157.612 156.37C157.201 156.465 156.769 156.416 156.389 156.231C156.01 156.045 155.705 155.735 155.526 155.352C153.389 150.896 146.562 136.528 146.212 133.55C145.965 131.44 143.81 117.451 139.109 109.275C137.96 107.308 139.805 99.5003 139.805 99.5003L149.878 98.5803Z" fill="#AF89FF"/>
<path d="M160.145 154.978C159.854 155.483 159.388 155.864 158.835 156.048H158.83C158.44 156.184 158.043 156.297 157.64 156.387C157.229 156.482 156.799 156.432 156.42 156.247C156.041 156.062 155.738 155.752 155.56 155.369C153.417 150.913 146.596 136.545 146.245 133.561C145.616 129.145 144.695 124.775 143.487 120.481C142.396 116.577 140.959 112.512 139.12 109.32C137.971 107.348 139.815 99.546 139.815 99.546L149.877 98.6318C149.877 98.6318 154.215 104.646 154.623 108.717C155.031 112.787 155.255 127.075 156.117 131.037C156.979 134.998 160.145 142.576 160.145 154.978Z" fill="url(#paint2_linear_49_4826)"/>
<path d="M158.83 156.019C158.44 156.155 158.043 156.268 157.64 156.358C157.23 156.453 156.799 156.404 156.42 156.218C156.042 156.033 155.738 155.723 155.56 155.341C153.417 150.885 146.596 136.516 146.246 133.532C145.625 129.109 144.711 124.731 143.511 120.429C143.802 119.946 144.272 119.597 144.819 119.461C145.367 119.324 145.946 119.409 146.43 119.699H146.464C148.447 120.78 149.136 124.701 149.481 126.719C150.015 129.939 149.808 133.354 151.119 136.332C151.82 137.931 152.94 139.339 153.463 141.013C153.776 142.391 153.976 143.793 154.061 145.204C154.45 148.044 155.584 150.73 157.347 152.989C158.066 153.892 158.928 154.875 158.83 156.019Z" fill="url(#paint3_linear_49_4826)"/>
<path d="M141.293 73.1035C141.293 73.1035 141.391 74.5237 141.391 75.8633C143.844 75.7943 145.137 73.4887 145.666 72.2065L141.293 73.1035Z" fill="#FCBDBA"/>
<path d="M140.516 74.3225C140.551 74.3612 140.592 74.3942 140.637 74.4203C140.76 74.4878 140.899 74.5197 141.039 74.5123C141.594 74.5009 142.143 74.3919 142.66 74.1903C143.456 73.9658 144.211 73.6144 144.895 73.1496C145.585 72.6305 146.062 71.8787 146.24 71.0337C146.335 70.2711 146.362 69.5013 146.32 68.7339C146.32 67.6702 146.464 66.3478 145.849 65.4163C145.274 64.5711 144.246 64.3641 143.326 64.3124C142.039 64.2319 140.419 64.2491 139.407 65.2151C139.116 65.5036 138.896 65.8559 138.764 66.2443C138.579 66.9961 138.529 67.7747 138.614 68.5441C138.612 69.1703 138.577 69.7959 138.511 70.4185C138.494 70.5328 138.494 70.6491 138.511 70.7635C138.576 70.9343 138.685 71.0849 138.827 71.2005C139.586 72.0284 139.718 73.2876 140.39 74.1903C140.426 74.2398 140.469 74.2843 140.516 74.3225Z" fill="#FCAB9A"/>
<path d="M140.689 64.2087C140.689 64.2087 142.275 68.5785 144.712 69.2282C147.148 69.8779 148.205 69.1994 148.205 69.1994C146.993 68.0972 146.195 66.6112 145.947 64.9907C145.947 64.9907 141.885 62.1274 140.689 64.2087Z" fill="#473F47"/>
<path d="M141.735 72.0629C141.588 72.2342 141.402 72.3686 141.194 72.4555C140.985 72.5424 140.759 72.5792 140.534 72.5631C140.345 72.5497 140.163 72.4862 140.006 72.3791C139.85 72.272 139.725 72.1251 139.644 71.9536C140.337 71.791 141.062 71.8288 141.735 72.0629Z" fill="#F8756E"/>
<path d="M138.719 98.0916L137.472 97.7064C137.472 97.7064 137.437 97.6144 137.38 97.4419C137.787 97.731 138.24 97.9506 138.719 98.0916Z" fill="#FCBDBA"/>
<path d="M137.816 98.8562C137.816 98.8562 134.972 108.004 134.788 111.12C134.604 114.237 140.229 155.393 140.454 156.813C140.678 158.233 142.298 159.026 142.298 159.026C142.861 159.311 143.513 159.363 144.114 159.17C144.831 159.019 145.501 158.693 146.062 158.221C146.062 158.221 148.274 128.898 146.906 118.399C146.07 111.915 145.606 105.388 145.516 98.8505L137.816 98.8562Z" fill="#AF89FF"/>
<path d="M146.062 158.227C145.497 158.695 144.826 159.019 144.108 159.17C143.579 159.332 143.011 159.314 142.493 159.118C142.423 159.096 142.355 159.065 142.292 159.026C142.292 159.026 140.666 158.164 140.454 156.813C140.241 155.462 134.61 114.237 134.794 111.12C134.977 108.004 137.816 98.8562 137.816 98.8562H145.522C145.607 105.394 146.069 111.921 146.907 118.405C148.274 128.887 146.062 158.227 146.062 158.227Z" fill="url(#paint4_linear_49_4826)"/>
<path d="M153.469 91.5139C153.377 93.2388 151.705 95.4984 151.469 96.0677C150.895 97.4821 150.205 97.7063 150.205 97.7063C150.389 98.2788 150.486 98.8758 150.492 99.4772C150.492 99.4772 144.373 101.076 139.644 100.334C138.924 100.226 138.217 100.045 137.535 99.7934C137.178 99.0608 137.116 98.2188 137.362 97.4418C136.914 96.0677 134.955 89.6856 135.891 85.9138C136.115 84.9996 136.38 84.0969 136.679 83.1942C136.943 82.4065 137.075 81.6188 137.334 80.8311C137.507 80.4742 137.563 80.0718 137.494 79.6811C137.457 79.5658 137.388 79.4638 137.294 79.3872C137.2 79.3107 137.086 79.263 136.966 79.2499C136.903 79.2447 136.84 79.2556 136.783 79.2818C136.725 79.308 136.675 79.3485 136.638 79.3994C137.242 77.9103 138.862 77.2088 140.333 76.6396C140.598 76.5234 140.883 76.4571 141.172 76.4441C141.57 76.4961 141.949 76.6462 142.275 76.8811C142.603 77.0708 142.936 77.2433 143.281 77.41C144.234 77.8549 145.246 78.1609 146.286 78.3185C146.82 78.4027 147.361 78.4354 147.901 78.4162C148.24 78.4162 148.947 78.1747 149.245 78.3185C149.877 78.629 150.469 80.6183 150.774 81.245C151.678 83.0888 152.576 84.9325 153.469 86.7762C153.564 88.354 153.564 89.9361 153.469 91.5139Z" fill="white"/>
<path d="M141.063 82.6996C140.987 83.7315 140.718 84.74 140.27 85.6722C140.139 85.9066 139.989 86.1297 139.822 86.3392C139.46 86.8106 139.029 87.2361 138.701 87.7363C137.742 89.2082 137.851 91.1401 137.994 92.911C138.15 94.8774 138.333 96.884 139.098 98.6607C139.372 99.1756 139.557 99.7337 139.644 100.311C138.924 100.203 138.217 100.022 137.535 99.7704C137.178 99.0377 137.116 98.1957 137.362 97.4188C136.914 96.0446 134.955 89.6625 135.891 85.8907C136.115 84.9765 136.38 84.0738 136.679 83.1711C136.943 82.3834 137.075 81.5957 137.334 80.808C137.507 80.4512 137.563 80.0488 137.494 79.6581C137.457 79.5428 137.388 79.4407 137.294 79.3641C137.2 79.2876 137.086 79.2399 136.966 79.2268C137.125 78.9512 137.318 78.6963 137.54 78.4679C137.75 78.2213 138.017 78.0293 138.317 77.9081C138.617 77.787 138.942 77.7403 139.264 77.7722C139.677 77.8408 140.057 78.0427 140.345 78.3471C141.333 79.4971 141.258 81.2105 141.063 82.6996Z" fill="#E7E7E7"/>
<path d="M141.591 72.1835C141.591 72.1835 141.493 72.6205 140.442 72.5515C140.442 72.5515 139.551 72.4998 139.58 72.0168C140.247 71.8173 140.965 71.8768 141.591 72.1835Z" fill="#FA8870"/>
<path d="M127.801 81.1416C125.623 80.9697 123.471 80.5609 121.382 79.9226C120.4 79.6409 119.417 79.2729 118.429 79.0947C117.988 79.0378 117.565 78.8873 117.187 78.6532C116.81 78.4192 116.487 78.1071 116.239 77.7378C115.78 77.0363 115.521 76.0761 114.745 75.7944L114.809 76.8638C114.831 76.9864 114.809 77.113 114.745 77.2203C114.59 77.4215 114.28 77.3008 114.073 77.1628L111.355 75.3689C111.339 75.6092 111.383 75.8498 111.483 76.0687C111.584 76.2877 111.737 76.478 111.93 76.6223C112.327 76.8967 112.64 77.2772 112.832 77.7205C112.071 77.2662 111.267 76.8906 110.43 76.5993C110.418 76.8188 110.465 77.0375 110.566 77.2326C110.667 77.4278 110.819 77.5923 111.005 77.709C111.38 77.9271 111.715 78.2093 111.993 78.5427C111.295 78.3348 110.58 78.1924 109.855 78.1172C109.689 78.4852 110.149 78.8014 110.522 78.9279L112.119 79.4684C111.479 79.456 110.838 79.4809 110.2 79.5432C110.551 80.0146 111.258 79.8709 111.821 80.0031C112.394 80.2276 112.924 80.5485 113.389 80.9518C114.107 81.342 114.883 81.6138 115.688 81.7568C116.235 81.9911 116.743 82.3092 117.193 82.6997C118.723 83.5971 120.324 84.3664 121.98 84.9996C122.79 85.3388 123.606 85.678 124.445 85.9425C127.077 86.7705 129.881 86.8165 132.633 86.667C134.741 86.6187 136.805 86.0541 138.644 85.0226C140.258 84.1141 140.873 81.6418 140.603 79.8479C140.568 79.4473 140.42 79.0648 140.178 78.7439C139.93 78.4824 139.603 78.3088 139.247 78.2495C137.937 77.9792 136.673 78.7727 135.489 79.3994C133.144 80.6988 130.477 81.303 127.801 81.1416Z" fill="#FCAB9A"/>
<path d="M138.426 67.877L139.207 66.4223C139.202 66.8853 139.329 67.3401 139.575 67.7326C139.82 68.125 140.173 68.4386 140.592 68.6359C140.877 68.7254 141.148 68.8551 141.396 69.0211C141.597 69.2246 141.747 69.4729 141.833 69.7456C142.353 71.1168 142.578 72.5822 142.494 74.0463C142.35 76.5819 140.615 81.3427 143.115 83.217C144.035 83.8093 145.095 84.1484 146.189 84.2002C146.069 85.2287 146.021 86.2642 146.045 87.2993C145.997 88.3639 146.246 89.421 146.763 90.3524C147.757 91.8645 149.901 92.198 151.527 91.5023C151.978 91.2428 152.476 91.0765 152.992 91.0136C153.791 91.0136 154.423 91.6805 155.158 91.991C155.708 92.1837 156.298 92.232 156.871 92.1313C157.445 92.0306 157.983 91.7843 158.434 91.4161C159.441 90.5812 160.116 89.4128 160.336 88.1228C160.557 86.8328 160.308 85.5064 159.635 84.3842C159.06 83.5103 158.256 82.8261 157.716 81.9349C156.21 79.4453 157.848 76.3002 157.014 73.5864C156.647 72.3804 155.858 71.3475 154.791 70.6771C153.578 69.9238 151.998 69.6364 151.205 68.4289C150.148 66.8248 151.079 64.5594 150.418 62.7483C149.924 61.4028 148.631 60.5462 147.321 60.0632C145.838 59.5324 144.251 59.3599 142.689 59.5597C141.128 59.7596 139.635 60.3261 138.334 61.2131C136.202 62.6678 136.058 66.3648 138.426 67.877Z" fill="#FC682D"/>
<path d="M118.963 63.7488H104.213C103.47 63.7488 102.868 64.3511 102.868 65.0942V65.1344C102.868 65.8775 103.47 66.4799 104.213 66.4799H118.963C119.706 66.4799 120.308 65.8775 120.308 65.1344V65.0942C120.308 64.3511 119.706 63.7488 118.963 63.7488Z" fill="white"/>
<path d="M143.235 157.215C143.183 157.909 142.925 158.572 142.493 159.118C142.423 159.096 142.355 159.065 142.292 159.026C142.292 159.026 140.666 158.164 140.454 156.813C140.241 155.462 134.61 114.237 134.794 111.12C134.977 108.004 137.816 98.8562 137.816 98.8562L137.535 99.7934C137.764 99.8854 138.684 100.144 139.184 100.253C141.534 100.759 138.299 102.317 137.632 104.1C136.972 106.198 136.673 108.393 136.747 110.591C136.673 112.475 136.81 114.361 137.155 116.214C137.558 118.1 138.305 119.894 138.718 121.78C139.534 125.678 138.718 129.784 139.425 133.711C139.609 134.746 139.89 135.752 140.074 136.787C140.363 138.853 140.469 140.94 140.39 143.025C140.39 145.963 140.482 148.97 141.54 151.696C142.229 153.512 143.355 155.266 143.235 157.215Z" fill="url(#paint5_linear_49_4826)"/>
<path d="M143.384 162.827C142.843 162.808 142.306 162.731 141.781 162.597C141.569 162.553 141.363 162.486 141.166 162.396C140.701 162.148 140.356 161.631 139.833 161.562C139.609 161.544 139.384 161.574 139.172 161.648L138.081 161.936C137.556 162.056 137.047 162.235 136.564 162.47C136.06 162.71 135.654 163.116 135.414 163.62C135.328 163.816 135.19 164.736 135.334 164.885C135.445 164.981 135.589 165.03 135.736 165.023C138.962 165.194 142.195 165.134 145.413 164.845C145.591 164.847 145.767 164.803 145.924 164.718C146.171 164.563 146.349 163.569 146.395 163.298C146.516 162.557 146.355 161.803 145.533 162.258C144.879 162.631 144.138 162.827 143.384 162.827Z" fill="#473F47"/>
<path d="M160.554 158.532C160.262 159.526 159.634 160.388 158.778 160.97C158.589 161.128 158.363 161.238 158.122 161.289C157.881 161.34 157.63 161.331 157.393 161.263C157.261 161.19 157.125 161.124 156.985 161.067C156.82 161.042 156.65 161.059 156.493 161.117C156.336 161.175 156.197 161.273 156.089 161.401C155.853 161.642 155.675 161.936 155.422 162.154C154.949 162.466 154.435 162.71 153.894 162.879C153.382 163.12 152.882 163.62 152.98 164.19C153.101 164.925 154.026 165.121 154.75 165.121C156.291 165.115 157.829 164.978 159.347 164.713C159.589 164.69 159.819 164.596 160.008 164.443C160.18 164.207 160.284 163.929 160.307 163.638C160.432 162.876 160.744 162.157 161.214 161.545C161.961 160.602 163.191 159.866 163.22 158.67C163.22 157.894 162.467 156.617 161.703 156.37C160.939 156.123 160.726 157.853 160.554 158.532Z" fill="#473F47"/>
<path d="M122.744 87.7363H102.713C102.094 87.7363 101.593 88.2383 101.593 88.8575V88.8978C101.593 89.517 102.094 90.0189 102.713 90.0189H122.744C123.363 90.0189 123.865 89.517 123.865 88.8978V88.8575C123.865 88.2383 123.363 87.7363 122.744 87.7363Z" fill="url(#paint6_linear_49_4826)"/>
<path d="M122.744 93.946H102.713C102.094 93.946 101.593 94.448 101.593 95.0672V95.1075C101.593 95.7267 102.094 96.2286 102.713 96.2286H122.744C123.363 96.2286 123.865 95.7267 123.865 95.1075V95.0672C123.865 94.448 123.363 93.946 122.744 93.946Z" fill="url(#paint7_linear_49_4826)"/>
<path d="M122.744 100.15H102.713C102.094 100.15 101.593 100.652 101.593 101.271V101.311C101.593 101.931 102.094 102.433 102.713 102.433H122.744C123.363 102.433 123.865 101.931 123.865 101.311V101.271C123.865 100.652 123.363 100.15 122.744 100.15Z" fill="url(#paint8_linear_49_4826)"/>
<path d="M122.744 106.354H102.713C102.094 106.354 101.593 106.856 101.593 107.475V107.515C101.593 108.134 102.094 108.636 102.713 108.636H122.744C123.363 108.636 123.865 108.134 123.865 107.515V107.475C123.865 106.856 123.363 106.354 122.744 106.354Z" fill="url(#paint9_linear_49_4826)"/>
<path d="M122.744 112.558H102.713C102.094 112.558 101.593 113.06 101.593 113.679V113.719C101.593 114.338 102.094 114.84 102.713 114.84H122.744C123.363 114.84 123.865 114.338 123.865 113.719V113.679C123.865 113.06 123.363 112.558 122.744 112.558Z" fill="url(#paint10_linear_49_4826)"/>
<path d="M185.13 40.1751C183.956 51.2212 174.05 59.2241 163.004 58.05C151.958 56.8759 143.955 46.9695 145.129 35.9234C146.303 24.8774 156.21 16.8745 167.256 18.0486C178.302 19.2227 186.305 29.129 185.13 40.1751Z" fill="#E8A825"/>
<path d="M154.362 61.2806L157.472 56.4247L166.757 56.8931L154.362 61.2806Z" fill="#E8A825"/>
<path d="M182 37.8071C182 48.5767 173.27 57.3071 162.5 57.3071C151.73 57.3071 143 48.5767 143 37.8071C143 27.0376 151.73 18.3071 162.5 18.3071C173.27 18.3071 182 27.0376 182 37.8071Z" fill="#F8C244"/>
<path d="M154.5 61.3071L157 56.3071L166 55.8071L154.5 61.3071Z" fill="#F8C244"/>
<path d="M61.4588 92.8766C57.7036 93.2976 54.0025 94.0742 50.4116 95.1948C50.0037 95.3223 49.5452 95.5023 49.4171 95.8895C53.3098 96.3583 57.243 96.4501 61.1554 96.1635C63.7243 95.9755 66.2779 95.625 68.8467 95.4497C74.2591 95.0801 79.7153 95.4912 85.1109 94.9367C85.3789 94.9273 85.6412 94.8603 85.8778 94.7407C85.9934 94.6789 86.085 94.5836 86.139 94.4688C86.193 94.3541 86.2066 94.226 86.1778 94.1034C86.0895 93.9233 85.9305 93.7828 85.7345 93.7115C84.8277 93.2861 83.7725 93.2781 82.7595 93.2908C75.9261 93.3785 69.054 94.0588 62.2831 93.1825" fill="url(#paint11_linear_49_4826)"/>
<path d="M72.1592 74.9167C69.3208 73.6093 66.3472 72.3252 63.2233 72.4066C62.0746 72.4365 60.9343 72.6525 59.7839 72.6591C57.8654 72.6676 55.989 72.099 54.401 71.0278C53.5428 73.9715 52.6924 76.9173 51.8498 79.8654C51.6177 80.6777 51.3088 81.51 51.1552 82.3406C50.9014 83.7144 54.0253 84.4005 55.0305 84.5267C56.1892 84.6729 57.3679 84.56 58.5367 84.5982C59.531 84.6061 60.5111 84.833 61.4068 85.2627C62.2783 85.7045 63.2935 85.9487 64.2218 86.2959C66.5075 87.1481 68.9185 87.8807 71.3494 87.6631C73.7804 87.4455 76.2481 86.0766 77.1113 83.8058C77.3167 83.2659 77.4269 82.6944 77.6122 82.1446C78.0898 80.7575 79.6058 78.9484 78.0096 77.8039C76.3099 76.5729 74.0626 75.7905 72.1592 74.9167Z" fill="#46B8B2"/>
<path d="M70.1252 74.9426C68.9052 74.3714 67.6886 73.7657 66.3847 73.443C63.2617 72.675 59.9089 73.5965 56.8044 72.7527C56.6579 73.0922 56.3863 73.358 56.0493 73.4916C55.7123 73.6252 55.3374 73.6158 55.0072 73.4654H54.9988C54.8562 74.04 54.8595 74.7372 54.7488 75.3429C54.61 76.093 54.4461 76.838 54.2571 77.5777C53.8857 79.0334 53.4204 80.4619 52.8643 81.854C53.1428 81.8246 53.3778 82.1042 53.4147 82.3907C53.4284 82.6792 53.3707 82.9666 53.2469 83.2259C53.2284 83.2708 54.1446 83.5538 54.2319 83.571C54.5663 83.6124 54.9044 83.6124 55.2388 83.571C55.9671 83.5106 56.6752 83.2949 57.3985 83.1914C60.1287 82.8014 62.7969 84.0163 65.4634 84.7445C66.3586 84.9865 67.2669 85.1738 68.1836 85.3053C68.8414 85.4003 69.516 85.4641 70.1637 85.3053C70.8115 85.1466 71.4408 84.7687 72.0097 84.3597C73.0987 83.5728 74.1106 82.634 74.8205 81.4829C75.386 80.5614 76.4583 78.1144 75.4011 77.217C74.7701 76.6821 73.577 76.4577 72.8168 76.135C71.9095 75.7554 71.0123 75.3579 70.1252 74.9426Z" fill="#018780"/>
<path d="M69.185 75.1916C66.1511 74.3364 62.979 73.5212 59.8776 74.0942C58.7349 74.3046 57.6325 74.6972 56.4881 74.8842C54.5755 75.1921 52.6137 74.9196 50.8602 74.1025C50.4702 77.1615 50.0893 80.2204 49.7174 83.2794C49.6146 84.1229 49.4393 84.9965 49.4174 85.8467C49.382 87.2498 52.6047 87.4435 53.6311 87.4118C54.811 87.3751 55.9639 87.0777 57.1336 86.9358C58.1263 86.7821 59.141 86.8506 60.1035 87.1362C61.0423 87.4369 62.0941 87.5221 63.075 87.7208C65.4887 88.2102 68.0085 88.556 70.3986 87.9664C72.7886 87.3767 75.0304 85.6279 75.5326 83.2343C75.6506 82.6664 75.6708 82.0817 75.772 81.5105C76.0299 80.0573 77.2552 78.0245 75.4804 77.1375C73.5791 76.1938 71.2211 75.7695 69.185 75.1916Z" fill="#46B8B2"/>
<path d="M67.2934 75.9697C65.989 75.5979 64.6829 75.1931 63.3344 75.0837C60.1022 74.8248 56.897 76.2842 53.6783 75.9524C53.6316 76.1324 53.5506 76.3011 53.44 76.4489C53.3294 76.5966 53.1914 76.7205 53.034 76.8133C52.8765 76.9062 52.7027 76.9662 52.5226 76.9899C52.3424 77.0136 52.1595 77.0005 51.9843 76.9513C51.9301 77.5473 52.0402 78.2387 52.0215 78.8624C51.9978 79.6303 51.9487 80.4 51.8742 81.1644C51.7274 82.6719 51.4824 84.1677 51.1406 85.6416C51.4151 85.5669 51.6929 85.8153 51.7725 86.0863C51.8286 86.3718 51.8129 86.6671 51.7268 86.9446C51.7149 86.9932 52.672 87.127 52.7618 87.127C53.0993 87.1164 53.4342 87.0645 53.7596 86.9724C54.4779 86.7987 55.1505 86.4668 55.8552 86.2462C58.5182 85.4175 61.3642 86.1941 64.1323 86.479C65.0621 86.5748 65.9966 86.6142 66.9309 86.5971C67.6085 86.5832 68.2861 86.5398 68.9062 86.2844C69.555 86.0203 70.092 85.5443 70.6002 85.0457C71.5641 84.0866 72.4315 82.9973 72.9617 81.7308C73.3836 80.7249 74.0798 78.1171 72.8872 77.3874C72.1757 76.9566 70.9509 76.927 70.1445 76.729C69.1891 76.4927 68.2387 76.2396 67.2934 75.9697Z" fill="#018780"/>
<path d="M57.6115 85.6608C57.5463 85.3604 57.4982 85.0565 57.4673 84.7506C57.4722 84.4483 57.5035 84.1471 57.5607 83.8502C57.7115 82.7511 57.5607 81.6355 57.4952 80.5265C57.4296 79.4175 57.4231 78.2723 57.8393 77.2405C57.9937 76.8129 58.2631 76.4365 58.6177 76.1529C59.0404 75.844 59.5763 75.7438 60.0925 75.683C60.7479 75.6058 61.4362 75.5778 62.0589 75.8144C61.8991 75.8987 61.7584 76.0152 61.6456 76.1565C61.5328 76.2979 61.4503 76.4611 61.4034 76.6359C61.3143 76.9889 61.2811 77.3537 61.3051 77.717C61.3379 78.8815 61.4722 80.041 61.7065 81.182C61.9376 82.3173 62.2588 83.5167 61.8704 84.6077C61.6525 85.2156 61.2313 85.7232 60.9118 86.2851C60.7004 86.6581 60.4399 87.1181 60.0105 87.1066C59.8768 87.0918 59.7453 87.0609 59.6189 87.0146C59.2987 86.9505 58.969 86.9505 58.6488 87.0146C58.4358 87.0442 57.9753 87.2003 57.782 87.0853C57.4477 86.9013 57.6623 85.9911 57.6115 85.6608Z" fill="url(#paint12_linear_49_4826)"/>
<path d="M81.2331 75.6277H61.2727C59.8029 75.6277 58.6113 76.7886 58.6113 78.2206V92.0086C58.6113 93.4407 59.8029 94.6015 61.2727 94.6015H81.2331C82.7029 94.6015 83.8945 93.4407 83.8945 92.0086V78.2206C83.8945 76.7886 82.7029 75.6277 81.2331 75.6277Z" fill="#AF89FF"/>
<path d="M81.2331 75.6277H61.2727C59.8029 75.6277 58.6113 76.7886 58.6113 78.2206V92.0086C58.6113 93.4407 59.8029 94.6015 61.2727 94.6015H81.2331C82.7029 94.6015 83.8945 93.4407 83.8945 92.0086V78.2206C83.8945 76.7886 82.7029 75.6277 81.2331 75.6277Z" fill="#018780"/>
<path d="M83.8945 79.6523H58.6113V90.5767H83.8945V79.6523Z" fill="#52BEB8" fill-opacity="0.6"/>
<path d="M83.224 82.5272H73.6465C72.6417 82.5272 71.8271 83.3636 71.8271 84.3954V85.8337C71.8271 86.8655 72.6417 87.7019 73.6465 87.7019H83.224C84.2288 87.7019 85.0433 86.8655 85.0433 85.8337V84.3954C85.0433 83.3636 84.2288 82.5272 83.224 82.5272Z" fill="#018780"/>
<path d="M75 87.3071C76.1046 87.3071 77 86.4117 77 85.3071C77 84.2026 76.1046 83.3071 75 83.3071C73.8954 83.3071 73 84.2026 73 85.3071C73 86.4117 73.8954 87.3071 75 87.3071Z" fill="#31A8A1"/>
<path d="M165.144 47.261C164.049 47.2731 162.971 46.9898 162.024 46.441C159.194 44.801 158.024 41.081 157.334 38.441C157.038 37.5249 156.937 36.5572 157.037 35.5998C157.137 34.6425 157.436 33.7165 157.914 32.881C158.667 31.7171 159.849 30.8977 161.204 30.601C161.389 30.5634 161.58 30.5632 161.766 30.6004C161.951 30.6376 162.127 30.7114 162.284 30.8176C162.44 30.9238 162.574 31.0602 162.677 31.2187C162.78 31.3773 162.85 31.5549 162.884 31.741C162.92 31.9255 162.92 32.1154 162.883 32.2998C162.845 32.4841 162.772 32.6594 162.667 32.8154C162.562 32.9715 162.428 33.1053 162.271 33.2092C162.114 33.3131 161.938 33.3851 161.754 33.421C161.162 33.5839 160.65 33.9573 160.314 34.471C160.07 34.9791 159.928 35.5303 159.897 36.0931C159.867 36.6559 159.947 37.2193 160.134 37.751C160.964 41.111 162.054 43.141 163.464 43.961C163.953 44.2118 164.489 44.359 165.038 44.3935C165.587 44.4279 166.137 44.3488 166.654 44.161C166.836 44.1091 167.026 44.0936 167.214 44.1153C167.402 44.1369 167.584 44.1954 167.749 44.2873C167.914 44.3793 168.06 44.5029 168.177 44.6511C168.295 44.7992 168.382 44.9691 168.434 45.151C168.486 45.3329 168.501 45.5232 168.48 45.7111C168.458 45.899 168.399 46.0807 168.307 46.246C168.215 46.4113 168.092 46.5569 167.944 46.6744C167.796 46.7919 167.626 46.8791 167.444 46.931C166.696 47.148 165.922 47.2591 165.144 47.261Z" fill="#E8A825"/>
<path d="M164.144 47.261C163.049 47.2731 161.971 46.9898 161.024 46.441C158.194 44.801 157.024 41.081 156.334 38.441C156.038 37.5249 155.937 36.5572 156.037 35.5998C156.137 34.6425 156.436 33.7165 156.914 32.881C157.667 31.7171 158.849 30.8977 160.204 30.601C160.389 30.5634 160.58 30.5632 160.766 30.6004C160.951 30.6376 161.127 30.7114 161.284 30.8176C161.44 30.9238 161.574 31.0602 161.677 31.2187C161.78 31.3773 161.85 31.5549 161.884 31.741C161.92 31.9255 161.92 32.1154 161.883 32.2998C161.845 32.4841 161.772 32.6594 161.667 32.8154C161.562 32.9715 161.428 33.1053 161.271 33.2092C161.114 33.3131 160.938 33.3851 160.754 33.421C160.162 33.5839 159.65 33.9573 159.314 34.471C159.07 34.9791 158.928 35.5303 158.897 36.0931C158.867 36.6559 158.947 37.2193 159.134 37.751C159.964 41.111 161.054 43.141 162.464 43.961C162.953 44.2118 163.489 44.359 164.038 44.3935C164.587 44.4279 165.137 44.3488 165.654 44.161C165.836 44.1091 166.026 44.0936 166.214 44.1153C166.402 44.1369 166.584 44.1954 166.749 44.2873C166.914 44.3793 167.06 44.5029 167.177 44.6511C167.295 44.7992 167.382 44.9691 167.434 45.151C167.486 45.3329 167.501 45.5232 167.48 45.7111C167.458 45.899 167.399 46.0807 167.307 46.246C167.215 46.4113 167.092 46.5569 166.944 46.6744C166.796 46.7919 166.626 46.8791 166.444 46.931C165.696 47.148 164.922 47.2591 164.144 47.261Z" fill="white"/>
<path d="M162.604 35.961H162.484C162.103 35.9304 161.75 35.7499 161.503 35.4593C161.255 35.1686 161.133 34.7915 161.164 34.411L161.554 29.631C161.587 29.2515 161.768 28.9002 162.058 28.6532C162.348 28.4062 162.724 28.2833 163.104 28.311C163.293 28.3248 163.477 28.3761 163.646 28.4617C163.815 28.5474 163.965 28.6658 164.088 28.81C164.211 28.9542 164.304 29.1213 164.361 29.3018C164.419 29.4822 164.44 29.6723 164.424 29.861L164.074 34.651C164.039 35.0143 163.868 35.3509 163.595 35.5938C163.323 35.8366 162.969 35.9677 162.604 35.961Z" fill="#E8A825"/>
<path d="M161.604 35.961H161.484C161.103 35.9304 160.75 35.7499 160.503 35.4593C160.255 35.1686 160.133 34.7915 160.164 34.411L160.554 29.631C160.587 29.2515 160.768 28.9002 161.058 28.6532C161.348 28.4062 161.724 28.2833 162.104 28.311C162.293 28.3248 162.477 28.3761 162.646 28.4617C162.815 28.5474 162.965 28.6658 163.088 28.81C163.211 28.9542 163.304 29.1213 163.361 29.3018C163.419 29.4822 163.44 29.6723 163.424 29.861L163.074 34.651C163.039 35.0143 162.868 35.3509 162.595 35.5938C162.323 35.8366 161.969 35.9677 161.604 35.961Z" fill="white"/>
<path d="M167.983 47.3709C167.612 47.3768 167.253 47.2367 166.983 46.9809L163.463 43.7209C163.325 43.5896 163.214 43.4322 163.136 43.2579C163.058 43.0836 163.015 42.8956 163.01 42.7048C163.005 42.514 163.038 42.324 163.106 42.1458C163.174 41.9675 163.277 41.8045 163.408 41.6659C163.54 41.5274 163.697 41.416 163.871 41.3383C164.046 41.2605 164.234 41.2179 164.425 41.2128C164.615 41.2077 164.805 41.2402 164.984 41.3085C165.162 41.3768 165.325 41.4796 165.463 41.6109L168.983 44.8709C169.252 45.1302 169.41 45.4836 169.423 45.8568C169.436 46.2299 169.303 46.5935 169.053 46.8709C168.921 47.0262 168.757 47.1512 168.573 47.2374C168.388 47.3237 168.187 47.3692 167.983 47.3709Z" fill="#E8A825"/>
<path d="M168.983 47.3709C168.612 47.3768 168.253 47.2367 167.983 46.9809L164.463 43.7209C164.325 43.5896 164.214 43.4322 164.136 43.2579C164.058 43.0836 164.015 42.8956 164.01 42.7048C164.005 42.514 164.038 42.324 164.106 42.1458C164.174 41.9675 164.277 41.8045 164.408 41.6659C164.54 41.5274 164.697 41.416 164.871 41.3383C165.046 41.2605 165.234 41.2179 165.425 41.2128C165.615 41.2077 165.805 41.2402 165.984 41.3085C166.162 41.3768 166.325 41.4796 166.463 41.6109L169.983 44.8709C170.252 45.1302 170.41 45.4836 170.423 45.8568C170.436 46.2299 170.303 46.5935 170.053 46.8709C169.921 47.0262 169.757 47.1512 169.573 47.2374C169.388 47.3237 169.187 47.3692 168.983 47.3709Z" fill="white"/>
</g>
<defs>
<linearGradient id="paint0_linear_49_4826" x1="128.203" y1="111.028" x2="126.178" y2="177.534" gradientUnits="userSpaceOnUse">
<stop offset="0.01"/>
<stop offset="0.84" stop-opacity="0"/>
</linearGradient>
<linearGradient id="paint1_linear_49_4826" x1="1104.35" y1="14322.8" x2="12766.7" y2="10148.2" gradientUnits="userSpaceOnUse">
<stop offset="0.01"/>
<stop offset="0.08" stop-opacity="0.69"/>
<stop offset="0.21" stop-opacity="0.32"/>
<stop offset="1" stop-opacity="0"/>
</linearGradient>
<linearGradient id="paint2_linear_49_4826" x1="5153.73" y1="8068.4" x2="8101.99" y2="7599.22" gradientUnits="userSpaceOnUse">
<stop offset="0.01"/>
<stop offset="0.84" stop-opacity="0"/>
</linearGradient>
<linearGradient id="paint3_linear_49_4826" x1="4332.2" y1="3661.11" x2="4741.74" y2="3661.11" gradientUnits="userSpaceOnUse">
<stop offset="0.01"/>
<stop offset="0.13" stop-opacity="0.69"/>
<stop offset="0.25" stop-opacity="0.32"/>
<stop offset="1" stop-opacity="0"/>
</linearGradient>
<linearGradient id="paint4_linear_49_4826" x1="3098.28" y1="8328.48" x2="5836.02" y2="7956.66" gradientUnits="userSpaceOnUse">
<stop offset="0.01"/>
<stop offset="0.13" stop-opacity="0.69"/>
<stop offset="0.25" stop-opacity="0.32"/>
<stop offset="1" stop-opacity="0"/>
</linearGradient>
<linearGradient id="paint5_linear_49_4826" x1="2198.36" y1="6692.74" x2="2727.89" y2="6698.4" gradientUnits="userSpaceOnUse">
<stop offset="0.01"/>
<stop offset="0.13" stop-opacity="0.69"/>
<stop offset="0.25" stop-opacity="0.32"/>
<stop offset="1" stop-opacity="0"/>
</linearGradient>
<linearGradient id="paint6_linear_49_4826" x1="5048.49" y1="-619.211" x2="5047.61" y2="-219.568" gradientUnits="userSpaceOnUse">
<stop offset="0.01"/>
<stop offset="0.84" stop-opacity="0"/>
</linearGradient>
<linearGradient id="paint7_linear_49_4826" x1="5048.49" y1="-600.786" x2="5047.61" y2="-201.147" gradientUnits="userSpaceOnUse">
<stop offset="0.01"/>
<stop offset="0.84" stop-opacity="0"/>
</linearGradient>
<linearGradient id="paint8_linear_49_4826" x1="5048.49" y1="-582.363" x2="5047.61" y2="-182.699" gradientUnits="userSpaceOnUse">
<stop offset="0.01"/>
<stop offset="0.84" stop-opacity="0"/>
</linearGradient>
<linearGradient id="paint9_linear_49_4826" x1="5048.49" y1="-563.915" x2="5047.61" y2="-164.274" gradientUnits="userSpaceOnUse">
<stop offset="0.01"/>
<stop offset="0.84" stop-opacity="0"/>
</linearGradient>
<linearGradient id="paint10_linear_49_4826" x1="5048.49" y1="-545.491" x2="5047.61" y2="-145.849" gradientUnits="userSpaceOnUse">
<stop offset="0.01"/>
<stop offset="0.84" stop-opacity="0"/>
</linearGradient>
<linearGradient id="paint11_linear_49_4826" x1="68.0663" y1="82.0088" x2="67.5331" y2="111.749" gradientUnits="userSpaceOnUse">
<stop offset="0.01"/>
<stop offset="0.13" stop-opacity="0.69"/>
<stop offset="0.25" stop-opacity="0.32"/>
<stop offset="1" stop-opacity="0"/>
</linearGradient>
<linearGradient id="paint12_linear_49_4826" x1="1076.28" y1="1373.79" x2="61.4895" y2="1667.03" gradientUnits="userSpaceOnUse">
<stop offset="0.01"/>
<stop offset="0.13" stop-opacity="0.69"/>
<stop offset="0.25" stop-opacity="0.32"/>
<stop offset="1" stop-opacity="0"/>
</linearGradient>
<clipPath id="clip0_49_4826">
<rect width="207" height="183" fill="white" transform="translate(0 0.307129)"/>
</clipPath>
</defs>
</svg>
