<svg width="237" height="182" viewBox="0 0 237 182" fill="none" xmlns="http://www.w3.org/2000/svg">
<g clip-path="url(#clip0_49_4781)">
<path opacity="0.18" d="M41.0403 169.964C44.2201 170.816 47.4436 171.496 50.6968 172.001C68.9176 174.869 87.5839 173.205 105.891 175.414C125.276 177.737 144.1 184.405 163.643 179.601C179.306 175.743 193.23 165.892 203.418 153.574C217.702 136.366 225.505 114.655 231.454 93.0874C238.121 68.9531 241.728 39.9575 224.599 21.674C210.919 7.04712 188.675 4.73838 168.644 5.51274C158.053 5.9286 147.463 6.94674 136.872 6.60258C126.282 6.25842 118.091 2.78813 108.334 0.866566C92.7857 -2.21654 72.9268 8.16565 62.1495 18.4761C49.2167 30.7799 42.0318 47.9162 30.0618 61.1091C22.0148 69.9569 11.7548 77.1556 6.30868 87.7959C3.65099 93.4685 1.92378 99.5303 1.19305 105.75C-0.761234 118.756 -0.87619 132.666 5.18784 144.339C12.1715 157.79 26.1389 165.92 41.0403 169.964Z" fill="#018780"/>
<path d="M169.476 24.886C169.476 24.886 214.569 44.876 216.121 72.71C217.673 100.544 133.495 95.525 115.087 107.528C96.6794 119.53 16.8986 137.771 18.4362 116.863C19.9737 95.9552 38.9274 88.7422 38.9274 88.7422" stroke="white" stroke-width="0.48" stroke-miterlimit="10"/>
<path opacity="0.18" d="M51.4003 114.769L78.9184 41.4918C79.3684 40.2993 80.172 39.272 81.222 38.5469C82.2721 37.8219 83.5187 37.4335 84.7956 37.4336H200.673C202.336 37.4374 203.93 38.0993 205.104 39.2741C206.279 40.4489 206.938 42.0407 206.938 43.7002C206.936 44.3371 206.84 44.9702 206.651 45.5787L180.024 128.751C179.59 130.096 178.711 131.255 177.531 132.036C176.351 132.818 174.94 133.176 173.529 133.053L56.7315 123.158C55.0718 123.023 53.534 122.236 52.4561 120.969C51.3782 119.702 50.8485 118.06 50.9836 116.404C51.0509 115.844 51.191 115.294 51.4003 114.769Z" fill="#44B2AC"/>
<path d="M203.547 38.2509L176.877 121.466C176.435 122.81 175.553 123.965 174.371 124.746C173.19 125.527 171.779 125.887 170.367 125.768L135.391 122.814L53.642 115.845C52.8201 115.782 52.019 115.557 51.2846 115.183C50.5502 114.81 49.8971 114.295 49.3629 113.668C48.8286 113.042 48.4238 112.316 48.1718 111.533C47.9197 110.75 47.8253 109.925 47.8941 109.105C47.9523 108.516 48.0875 107.938 48.2964 107.384L54.8347 90.1762L66.6609 58.6281L75.8288 34.25C76.2788 33.0575 77.0824 32.0302 78.1325 31.3051C79.1825 30.5801 80.4291 30.1917 81.706 30.1918H197.584C198.406 30.1918 199.221 30.3535 199.981 30.6677C200.741 30.9819 201.432 31.4424 202.014 32.023C202.595 32.6036 203.057 33.2928 203.372 34.0514C203.687 34.81 203.849 35.623 203.849 36.444C203.84 37.0581 203.738 37.6673 203.547 38.2509Z" fill="white"/>
<path opacity="0.18" d="M88.7471 110.654L97.2971 87.2366H132.877L123.594 111.299L88.7471 110.654Z" fill="#77D9D4"/>
<path d="M203.547 38.2509L176.877 121.466C176.435 122.81 175.553 123.965 174.371 124.746C173.19 125.527 171.779 125.887 170.367 125.768L135.391 122.814L167.652 35.4259L167.896 34.7519L203.734 35.1247C203.728 35.2298 203.728 35.3351 203.734 35.4402C203.888 36.379 203.824 37.3405 203.547 38.2509Z" fill="#44B2AC"/>
<path opacity="0.18" d="M90.285 44.8473L81.4763 74.0006C81.3464 74.4701 81.0646 74.8836 80.6748 75.1767C80.2849 75.4697 79.8089 75.626 79.3209 75.621L55.9269 74.9471L67.7676 43.399L88.3163 42.1944C88.6424 42.1806 88.967 42.2468 89.2615 42.3872C89.5561 42.5276 89.8117 42.7379 90.0059 42.9997C90.2002 43.2614 90.3272 43.5667 90.3758 43.8888C90.4245 44.2109 90.3933 44.54 90.285 44.8473Z" fill="#77D9D4"/>
<path d="M36.6713 66.8306L45.7817 41.0902C45.9214 40.677 46.1798 40.3139 46.5248 40.0462C46.8697 39.7785 47.2859 39.6179 47.7216 39.5845L86.1176 37.3188C86.4444 37.3086 86.7689 37.3775 87.0632 37.5197C87.3576 37.6618 87.6131 37.8729 87.8079 38.135C88.0028 38.3971 88.1312 38.7023 88.1821 39.0246C88.2331 39.347 88.2051 39.6768 88.1006 39.986L79.292 69.1537C79.1604 69.6234 78.8786 70.0373 78.4894 70.3325C78.1003 70.6276 77.6252 70.7877 77.1365 70.7885L38.4244 69.6269C38.1013 69.6082 37.7874 69.5126 37.5089 69.348C37.2305 69.1834 36.9956 68.9546 36.8239 68.6808C36.6522 68.407 36.5488 68.0961 36.5223 67.7742C36.4957 67.4523 36.5468 67.1287 36.6713 66.8306Z" fill="white"/>
<path d="M203.792 35.1248V35.4546V35.8131L167.652 35.4402L75.8291 34.5081V33.8198L167.896 34.7519L203.734 35.1248H203.792Z" fill="#44B2AC"/>
<path d="M49.2445 64.1347H44.3301L46.9166 57.4666H51.8167L49.2445 64.1347Z" fill="#44B2AC"/>
<path d="M55.2945 64.1347H50.38L55.6393 50.569H60.5538L55.2945 64.1347Z" fill="#AF89FF"/>
<path d="M61.3589 64.1347H56.4445L59.6489 55.8748H64.549L61.3589 64.1347Z" fill="#44B2AC"/>
<path d="M67.4085 64.1347H62.494L69.4203 46.267H74.3347L67.4085 64.1347Z" fill="#AF89FF"/>
<path d="M55.2945 64.1347H50.38L55.6393 50.569H60.5538L55.2945 64.1347Z" fill="#018780"/>
<path d="M67.4085 64.1347H62.494L69.4203 46.267H74.3347L67.4085 64.1347Z" fill="#44B2AC"/>
<path d="M73.4721 64.1346H68.5576L77.4094 41.2766H82.3238L73.4721 64.1346Z" fill="#44B2AC"/>
<path d="M186.935 56.2189C187.51 54.0954 187.225 51.8317 186.143 49.9153C185.061 47.999 183.269 46.5833 181.151 45.9732C179.033 45.3631 176.76 45.6074 174.822 46.6535C172.883 47.6995 171.433 49.4636 170.785 51.5659C170.137 53.6682 170.342 55.9404 171.356 57.8933C172.37 59.8461 174.112 61.3233 176.207 62.0067C178.302 62.6901 180.583 62.5251 182.557 61.5472C184.531 60.5692 186.042 58.8566 186.763 56.7782L186.849 56.5057L186.935 56.2189Z" fill="white"/>
<path d="M168.557 109.464C168.989 107.382 168.618 105.213 167.516 103.393C166.415 101.573 164.665 100.236 162.618 99.6481C160.57 99.0606 158.376 99.2668 156.474 100.225C154.572 101.184 153.104 102.824 152.362 104.817C152.362 104.903 152.362 105.004 152.362 105.09C152.362 105.176 152.362 105.276 152.262 105.362C151.693 107.404 151.916 109.586 152.889 111.47C153.861 113.355 155.51 114.804 157.506 115.528C159.502 116.252 161.698 116.199 163.656 115.377C165.614 114.556 167.19 113.028 168.068 111.098C168.154 110.826 168.226 110.553 168.312 110.281C168.399 110.008 168.456 109.736 168.557 109.464Z" fill="white"/>
<path d="M177.15 79.9948C177.15 77.7623 176.262 75.6212 174.68 74.0426C173.098 72.464 170.952 71.5771 168.715 71.5771C166.478 71.5771 164.333 72.464 162.751 74.0426C161.169 75.6212 160.28 77.7623 160.28 79.9948V80.5827C160.28 82.8152 161.169 84.9562 162.751 86.5348C164.333 88.1135 166.478 89.0003 168.715 89.0003C170.952 89.0003 173.098 88.1135 174.68 86.5348C176.262 84.9562 177.15 82.8152 177.15 80.5827V79.9948Z" fill="white"/>
<path d="M178.544 53.9102L180.527 47.5576C179.967 47.3855 179.388 47.2844 178.803 47.2564C177.339 47.2015 175.898 47.6279 174.702 48.4699C173.505 49.3119 172.618 50.523 172.178 51.9169C172.006 52.4757 171.905 53.0538 171.877 53.6377C171.858 54.2204 171.911 54.8031 172.035 55.3729C172.288 56.5119 172.844 57.5618 173.644 58.413C174.432 59.2787 175.438 59.9185 176.557 60.2664C177.676 60.6143 178.868 60.6577 180.01 60.3919C180.572 60.2605 181.117 60.0631 181.634 59.804C182.152 59.5302 182.635 59.193 183.071 58.8002C183.919 58.0166 184.552 57.0292 184.91 55.9321L178.544 53.9102Z" fill="#F8C244"/>
<path d="M168.83 80.2672V73.6134C167.664 73.6222 166.52 73.9335 165.511 74.5168C164.983 74.8004 164.499 75.1577 164.074 75.578C163.242 76.4015 162.644 77.4298 162.339 78.5587C162.035 79.6875 162.035 80.8766 162.34 82.0053C162.645 83.134 163.244 84.1621 164.076 84.9851C164.908 85.8081 165.943 86.3969 167.077 86.6915C168.205 87.0067 169.398 87.0067 170.526 86.6915C171.088 86.5465 171.629 86.3296 172.135 86.0462L168.83 80.2672Z" fill="#F8C244"/>
<path d="M160.309 107.685L162.378 101.361C161.263 101.007 160.076 100.942 158.929 101.175C157.492 101.479 156.197 102.249 155.243 103.364C154.289 104.479 153.731 105.877 153.656 107.341C153.624 107.919 153.673 108.498 153.799 109.062C153.917 109.63 154.11 110.18 154.374 110.697C154.762 111.472 155.299 112.164 155.955 112.733C156.611 113.301 157.373 113.735 158.197 114.009L160.266 107.671L160.309 107.685Z" fill="#F8C244"/>
<path d="M75.728 82.3322C75.6565 82.6031 75.5005 82.8441 75.2826 83.0206C74.9708 83.1956 74.6199 83.2893 74.2623 83.293C73.883 83.32 73.5169 83.4434 73.1989 83.6515C73.156 83.736 73.1337 83.8293 73.1337 83.924C73.1337 84.0187 73.156 84.112 73.1989 84.1965L73.6157 86.5195C73.673 86.7016 73.673 86.8968 73.6157 87.0788C73.5579 87.1744 73.4808 87.257 73.3892 87.3212C73.2977 87.3854 73.1937 87.4298 73.084 87.4516C72.2505 87.7815 71.2159 88.0683 70.5549 87.4516C70.2378 87.1005 70.0239 86.6688 69.937 86.2041C69.0735 83.5999 68.6368 80.8737 68.6437 78.1306C68.621 77.3013 68.7789 76.477 69.1063 75.7145C69.4338 74.952 69.9231 74.2694 70.5405 73.7139C71.7309 72.8801 73.1994 72.5407 74.6359 72.7674C74.9559 72.8053 75.2619 72.9204 75.5273 73.1028C75.7927 73.2852 76.0096 73.5294 76.1591 73.8143C76.3459 74.2301 76.1591 74.6316 76.1591 75.0762C76.1513 75.7286 76.1946 76.3807 76.2884 77.0264C76.3498 77.3265 76.4265 77.6233 76.5184 77.9155C76.6297 78.1621 76.707 78.4226 76.7483 78.6899C76.7252 79.1941 76.5824 79.6856 76.3315 80.1239C76.103 80.6459 75.9249 81.1885 75.7999 81.7443C75.7953 81.9422 75.7713 82.1391 75.728 82.3322Z" fill="#FCAB9A"/>
<path d="M77.5966 99.5403C77.5966 99.5403 80.4705 102.609 82.8847 102.609C85.2988 102.609 95.9467 92.571 95.9467 92.571C96.5188 92.3 97.0301 91.9164 97.4499 91.4433C97.8697 90.9702 98.1893 90.4172 98.3896 89.8177C98.4902 89.4019 98.4615 88.9717 98.5333 88.5558C98.7204 87.7163 99.0991 86.9311 99.6398 86.2614C99.7306 86.1699 99.7996 86.0594 99.8419 85.9378C99.8842 85.8161 99.8986 85.6866 99.8841 85.5587C99.7978 85.2432 99.4242 85.1429 99.1081 85.0855C98.1111 84.7942 97.0415 84.8811 96.1048 85.3293C95.4423 85.87 94.9817 86.6176 94.7972 87.4516C94.5118 87.0404 94.1122 86.7215 93.6476 86.5338C93.5074 86.615 93.4003 86.7428 93.3451 86.8949C93.2899 87.047 93.2902 87.2136 93.3458 87.3656C93.4529 87.6689 93.5777 87.9658 93.7194 88.2547C93.816 88.7979 93.7535 89.3574 93.5394 89.8661C93.3253 90.3748 92.9687 90.8111 92.5124 91.1227C91.9558 91.5528 91.3646 91.9365 90.7449 92.2699L84.221 96.07C83.56 96.4572 82.7841 96.8587 82.0656 96.5002C81.7351 96.3281 81.5052 95.9983 81.1459 95.8405C80.8671 95.7799 80.5772 95.7929 80.305 95.8784C80.0328 95.964 79.7877 96.119 79.594 96.3281C78.7246 97.2585 78.046 98.3498 77.5966 99.5403Z" fill="#FCAB9A"/>
<path d="M51.6017 142.015C51.4974 142.882 51.2056 143.715 50.7466 144.458C50.2876 145.201 49.6723 145.835 48.9433 146.317C46.2705 147.565 42.8362 147.881 39.9622 148.497C38.2235 148.884 36.4847 149.272 34.7747 149.73C33.3378 150.118 31.8002 150.075 30.8231 151.336C30.2339 152.082 29.8459 153.143 28.9263 153.358C28.5966 153.41 28.2591 153.364 27.9552 153.226C27.6514 153.089 27.3945 152.866 27.2163 152.584C26.8689 152.006 26.6714 151.35 26.6415 150.677C26.5986 150.425 26.5986 150.168 26.6415 149.917C26.7177 149.65 26.8554 149.404 27.0438 149.2C28.03 148.303 29.2256 147.667 30.5213 147.35C31.6358 146.959 32.717 146.48 33.7545 145.916C34.6051 145.498 35.4896 145.153 36.3985 144.883L41.6435 142.976C42.8793 142.532 44.733 142.36 45.2072 140.954C45.3851 140.266 45.4768 139.558 45.4802 138.846C45.5814 137.437 46.0146 136.071 46.7447 134.86C46.8335 134.657 46.9779 134.483 47.1615 134.358C47.3776 134.241 47.62 134.182 47.8656 134.186C48.5355 134.106 49.2147 134.185 49.8486 134.415C50.2606 134.614 50.6289 134.893 50.9323 135.235C51.2357 135.577 51.4681 135.976 51.6161 136.408C51.8925 137.279 51.9998 138.194 51.9322 139.104C51.9063 140.082 51.7957 141.056 51.6017 142.015Z" fill="#FCAB9A"/>
<path d="M27.9924 148.641C27.9062 149.013 27.6188 149.315 27.5182 149.687C27.4607 149.991 27.4607 150.302 27.5182 150.605L27.7912 152.039C27.7976 152.19 27.8357 152.337 27.903 152.472C27.9703 152.608 28.0653 152.727 28.1819 152.823C28.2984 152.919 28.4339 152.989 28.5795 153.03C28.7251 153.07 28.8776 153.08 29.027 153.057C29.087 153.062 29.1453 153.079 29.1975 153.109C29.2497 153.139 29.2946 153.18 29.3288 153.229C29.3573 153.308 29.3573 153.394 29.3288 153.473L28.9264 155.294C28.7611 156.057 28.4954 156.795 28.1361 157.488C28.0231 157.518 27.9043 157.518 27.7912 157.488C26.8716 157.488 26.5123 155.165 26.1818 154.291C25.9088 153.405 25.8352 152.469 25.9663 151.552C25.9663 151.05 26.0525 150.562 26.1243 150.118C26.1293 149.627 26.2218 149.142 26.3974 148.684C26.4551 148.571 26.544 148.477 26.6536 148.414C26.7631 148.35 26.8887 148.319 27.0153 148.325C27.3027 148.339 28.093 148.225 27.9924 148.641Z" fill="#473F47"/>
<path d="M66.9488 142.288C67.4503 143.017 67.7827 143.848 67.9219 144.721C68.0611 145.594 68.0036 146.487 67.7535 147.336C66.5321 150.003 64.118 152.484 62.3505 154.807C61.2584 156.241 60.1951 157.675 59.1748 159.109C58.3414 160.328 57.1487 161.288 57.2205 162.88C57.2205 163.827 57.6516 164.888 57.0912 165.648C56.872 165.9 56.5842 166.083 56.2627 166.174C55.9413 166.266 55.6001 166.262 55.2806 166.164C54.644 165.95 54.071 165.58 53.6137 165.089C53.4244 164.92 53.2642 164.721 53.1395 164.501C53.0228 164.244 52.9686 163.964 52.9814 163.683C53.1407 162.362 53.6353 161.103 54.4184 160.027C54.9866 158.993 55.4673 157.914 55.8554 156.8C56.2284 155.924 56.6805 155.084 57.2061 154.291L59.9508 149.444C60.6118 148.311 61.9194 146.977 61.3877 145.6C61.0764 144.961 60.6853 144.364 60.2238 143.822C59.389 142.684 58.8285 141.369 58.5856 139.979C58.5426 139.761 58.5426 139.537 58.5856 139.32C58.6722 139.091 58.8156 138.889 59.0024 138.732C59.4697 138.239 60.0452 137.861 60.6836 137.627C61.1244 137.509 61.5847 137.481 62.0367 137.545C62.4887 137.609 62.923 137.764 63.3133 138C64.0932 138.475 64.7719 139.099 65.3107 139.836C65.9256 140.605 66.4736 141.426 66.9488 142.288Z" fill="#FCAB9A"/>
<path d="M53.2973 162.608C53.4698 162.952 53.4554 163.368 53.6278 163.712C53.7882 163.975 54.0039 164.2 54.2601 164.372L55.3666 165.275C55.4956 165.387 55.6409 165.479 55.7977 165.547C56.0033 165.581 56.2136 165.573 56.4161 165.524C56.6185 165.474 56.8089 165.385 56.976 165.261C57.0077 165.222 57.0495 165.193 57.0967 165.176C57.1439 165.16 57.1947 165.157 57.2437 165.167C57.2926 165.177 57.3377 165.201 57.3742 165.235C57.4106 165.269 57.4369 165.313 57.4502 165.361L58.3268 167.024C58.7035 167.704 58.984 168.433 59.1602 169.19C59.1083 169.299 59.0291 169.393 58.9303 169.462C58.2118 170.05 56.4443 168.516 55.6396 168.028C54.8481 167.562 54.1668 166.931 53.6422 166.178C53.3548 165.777 53.0818 165.361 52.8088 164.959C52.5137 164.593 52.2807 164.182 52.119 163.741C52.0898 163.612 52.0972 163.479 52.1404 163.354C52.1836 163.23 52.2608 163.12 52.3633 163.038C52.5501 162.823 53.0818 162.235 53.2973 162.608Z" fill="#473F47"/>
<path d="M81.2031 95.9122C81.1467 96.1013 81.0308 96.2672 80.8726 96.3854C79.7805 97.4322 78.674 98.4504 77.5963 99.4972C77.2486 99.829 76.8736 100.131 76.4754 100.401C76.1162 100.616 75.7282 100.759 75.369 100.974C75.2473 101.051 75.132 101.137 75.0241 101.232C74.2625 101.93 73.6725 102.794 73.2997 103.756C73.0267 104.344 72.768 104.961 72.5525 105.577C71.9769 107.18 71.5489 108.831 71.2736 110.51C69.6211 120.09 71.7765 129.855 72.8974 139.463C73.0411 140.524 73.1416 141.585 73.2279 142.646C73.2279 143.091 73.3141 143.55 73.3428 144.009C73.4177 144.415 73.3518 144.835 73.156 145.199C72.9261 145.468 72.6209 145.663 72.2795 145.758C67.4225 147.723 61.9476 149.271 57.0188 147.522C53.8287 146.389 51.2709 144.009 48.4832 142.087C45.6955 140.166 42.218 138.674 38.9561 139.621C38.994 137.275 39.8648 135.019 41.4133 133.254C41.9424 132.556 42.5236 131.899 43.152 131.289L44.4453 130.013C48.7562 125.811 52.4492 122.183 54.7628 116.289C55.6968 113.895 55.8836 111.084 57.4643 108.99C58.9012 107.198 60.0077 107.011 60.3382 104.602C60.7706 101.591 61.458 98.6213 62.3931 95.7258C63.2557 93.101 64.6169 90.6667 66.4022 88.5558C67.1689 87.5776 68.103 86.7426 69.1612 86.0893C70.2295 85.4303 71.4975 85.1712 72.7393 85.3579C73.3541 85.4608 73.9312 85.7229 74.4128 86.118C74.8944 86.513 75.2637 87.0273 75.4839 87.6093C76.5904 90.8645 79.4643 92.2842 81.0306 95.3673C81.1519 95.5223 81.2132 95.7158 81.2031 95.9122Z" fill="#473F47"/>
<path d="M77.0214 72.624C76.9059 73.1272 76.6669 73.5938 76.3257 73.9818C75.9846 74.3698 75.552 74.6671 75.0671 74.8467C72.8398 75.7215 69.7647 75.363 70.3826 78.5321C70.9822 80.856 70.7901 83.3128 69.8365 85.5157C69.2177 86.3244 68.7859 87.2598 68.572 88.2547C68.586 88.6943 68.6438 89.1314 68.7444 89.5596C69.0637 91.4136 68.64 93.3186 67.5648 94.8637C66.4896 96.4089 64.8489 97.4704 62.9965 97.8195C62.7217 97.8741 62.4431 97.9076 62.1631 97.9198C61.3224 97.8589 60.4794 98.0015 59.7059 98.3357C59.0071 98.9216 58.5055 99.7075 58.2689 100.587C57.9695 101.513 57.405 102.33 56.6451 102.939C55.1076 103.971 53.0527 103.34 51.3283 102.638C50.0244 102.175 48.7986 101.518 47.6928 100.687C47.1414 100.268 46.6831 99.7398 46.3468 99.1352C46.0104 98.5305 45.8033 97.8627 45.7385 97.1742C45.8676 96.2789 45.8531 95.3689 45.6954 94.4782C45.3887 93.9774 45.0479 93.4983 44.6751 93.0442C44.348 92.2662 44.2176 91.4198 44.2953 90.5796C44.3729 89.7394 44.6564 88.9312 45.1206 88.226C45.2775 87.9776 45.3803 87.6992 45.4224 87.4086C45.3998 87.1271 45.3319 86.8511 45.2212 86.5912C45.0586 85.6332 45.2098 84.6485 45.6525 83.7831C46.0951 82.9177 46.8056 82.2178 47.6784 81.7873C49.4456 80.9783 51.3098 80.4 53.2251 80.0665C54.6395 79.7075 55.9497 79.0222 57.0503 78.0658C58.151 77.1094 59.0113 75.9086 59.5622 74.5599C60.6686 72.2082 61.6027 69.6413 64.1317 68.4654C66.0625 67.7259 68.1438 67.4635 70.1982 67.7008C72.2525 67.938 74.2188 68.6677 75.9293 69.8277C76.3807 70.122 76.7286 70.5498 76.9244 71.0512C77.1203 71.5526 77.1542 72.1025 77.0214 72.624Z" fill="#FC682D"/>
<path d="M76.475 100.444C76.1157 100.659 75.7278 100.802 75.3685 101.017C75.2444 101.09 75.1288 101.177 75.0236 101.275C73.771 102.417 72.9069 103.921 72.5521 105.577C71.9767 107.185 71.544 108.841 71.2588 110.525C70.6083 114.887 70.478 119.31 70.8708 123.703C71.0756 125.302 71.0271 126.923 70.7271 128.507C68.8189 126.262 67.6058 123.512 67.2352 120.591C67.0341 119 67.0915 117.365 66.761 115.787C66.5024 114.655 66.0426 113.565 65.8558 112.418C65.8627 112.36 65.8627 112.303 65.8558 112.245C65.554 110.18 66.3587 109.879 67.5226 108.689C68.6571 107.457 69.5015 105.987 69.9942 104.387C70.9522 101.519 71.9533 98.6941 72.9975 95.9121C72.782 96.6721 75.5841 99.0239 76.475 100.444Z" fill="#8D888D"/>
<path opacity="0.38" d="M73.2432 142.689C68.2709 144.198 62.943 144.062 58.0544 142.302C56.211 141.682 54.5072 140.708 53.0393 139.434C52.4789 138.918 51.976 138.344 51.4012 137.857C50.5253 137.141 49.5591 136.543 48.5272 136.079C46.2999 135.017 43.972 134.343 41.716 133.426L41.4717 133.325C42.005 132.631 42.5859 131.975 43.2104 131.361L44.5181 130.084H44.8055C46.2457 130.28 47.6526 130.671 48.9871 131.246C51.1188 132.465 53.1342 133.876 55.008 135.462C56.8924 136.726 58.8828 137.825 60.957 138.746C62.264 139.416 63.6493 139.922 65.0812 140.252C66.5099 140.448 67.9567 140.477 69.3921 140.338C70.6194 140.366 71.8329 140.074 72.9127 139.492C73.042 140.567 73.1426 141.614 73.2432 142.689Z" fill="white"/>
<path opacity="0.18" d="M98.9209 80.2959L107.471 56.8643H143.065L133.768 80.9268L98.9209 80.2959Z" fill="#77D9D4"/>
<path d="M146.543 12.5822L161.272 19.3794L158.786 28.0408L146.543 12.5822Z" fill="#F8C244"/>
<path d="M146.543 12.5822H169.491L162.508 16.8412L146.543 12.5822Z" fill="#F8C244"/>
<path d="M165.166 23.2082L161.272 19.3794L146.543 12.5822L162.508 16.8412L165.166 23.2082Z" fill="#AF89FF"/>
<path d="M165.166 23.2082L161.272 19.3794L146.543 12.5822L162.508 16.8412L165.166 23.2082Z" fill="#E8A825"/>
<path d="M165.166 23.2082L161.272 19.3794L146.543 12.5822L165.166 23.2082Z" fill="#D08F0A"/>
</g>
<defs>
<clipPath id="clip0_49_4781">
<rect width="237" height="181" fill="white" transform="translate(0 0.307129)"/>
</clipPath>
</defs>
</svg>
