<svg width="178" height="53" viewBox="0 0 178 53" fill="none" xmlns="http://www.w3.org/2000/svg">
<g clip-path="url(#clip0_62_9745)">
<path d="M0 7.06667C0 3.16385 3.14993 0 7.03557 0H170.964C174.85 0 178 3.16386 178 7.06667V45.9333C178 49.8361 174.85 53 170.964 53H7.03557C3.14993 53 0 49.8361 0 45.9333V7.06667Z" fill="white"/>
<path fill-rule="evenodd" clip-rule="evenodd" d="M0 45.9333V7.06667C0 3.16385 3.14993 0 7.03557 0H170.964C174.85 0 178 3.16385 178 7.06667V45.9333C178 49.8361 174.85 53 170.964 53H7.03557C3.14993 53 0 49.8361 0 45.9333ZM1.05534 45.9333V7.06667C1.05534 3.74928 3.73278 1.06 7.03557 1.06H170.964C174.267 1.06 176.945 3.74928 176.945 7.06667V45.9333C176.945 49.2507 174.267 51.94 170.964 51.94H7.03557C3.73278 51.94 1.05534 49.2507 1.05534 45.9333Z" fill="black" fill-opacity="0.1"/>
<path d="M90.1907 28.793C87.023 28.793 84.4059 31.2777 84.4059 34.6845C84.4059 38.0635 86.9956 40.576 90.191 40.576C93.3861 40.576 95.9755 38.0913 95.9755 34.6845C95.9755 31.2777 93.3861 28.793 90.1907 28.793ZM90.1907 38.2316C88.4548 38.2316 86.9407 36.7512 86.9407 34.6582C86.9407 32.5361 88.4561 31.0847 90.1907 31.0847C91.9253 31.0847 93.4407 32.5361 93.4407 34.6582C93.4407 36.7512 91.9253 38.2316 90.1907 38.2316ZM77.6019 28.793C74.4065 28.793 71.8167 31.2777 71.8167 34.6845C71.8167 38.0635 74.4065 40.576 77.6019 40.576C80.7969 40.576 83.3867 38.0913 83.3867 34.6845C83.3867 31.2777 80.7969 28.793 77.6016 28.793H77.6019ZM77.6019 38.2316C75.8657 38.2316 74.3519 36.7512 74.3519 34.6582C74.3519 32.5361 75.8672 31.0847 77.6019 31.0847C79.3377 31.0847 80.8518 32.5361 80.8518 34.6582C80.8518 36.7512 79.3636 38.2316 77.6019 38.2316ZM62.6438 30.6081V33.0928H68.4832C68.3173 34.4888 67.8504 35.5219 67.1612 36.2205C66.3076 37.0857 64.9853 38.0356 62.6438 38.0356C59.0346 38.0356 56.2533 35.0761 56.2533 31.418C56.2533 27.7599 59.0361 24.7444 62.6438 24.7444C64.5989 24.7444 66.0048 25.5265 67.0514 26.532L68.786 24.7722C67.3256 23.3487 65.3704 22.26 62.6438 22.26C57.7122 22.26 53.58 26.3639 53.58 31.3624C53.58 36.3611 57.7122 40.465 62.6438 40.465C65.3156 40.465 67.2996 39.572 68.897 37.8956C70.5222 36.2483 71.018 33.9302 71.018 32.0597C71.018 31.4736 70.9634 30.9429 70.8799 30.4959L62.6438 30.6081ZM123.853 32.5345C123.384 31.222 121.898 28.793 118.921 28.793C115.946 28.793 113.494 31.1667 113.494 34.6845C113.494 37.9788 115.946 40.576 119.197 40.576C121.841 40.576 123.357 38.9287 123.99 37.9788L122.035 36.6387C121.373 37.6165 120.492 38.2579 119.197 38.2579C117.902 38.2579 116.994 37.6718 116.414 36.4706L124.1 33.2041L123.853 32.5345ZM116.029 34.5178C115.975 32.2554 117.765 31.0832 119.031 31.0832C120.051 31.0832 120.877 31.5858 121.18 32.3401L116.029 34.5178ZM109.776 40.1856H112.311V22.9293H109.776V40.1856ZM105.645 30.1055H105.563C104.984 29.4069 103.91 28.793 102.532 28.793C99.6393 28.793 97.0224 31.3902 97.0224 34.6845C97.0224 37.9788 99.6668 40.5485 102.532 40.5485C103.909 40.5485 104.983 39.9343 105.563 39.2078H105.645V40.0455C105.645 42.308 104.46 43.5077 102.559 43.5077C101.017 43.5077 100.052 42.3633 99.6668 41.4134L97.4637 42.3633C98.0965 43.9272 99.7778 45.8536 102.559 45.8536C105.534 45.8536 108.041 44.0663 108.041 39.7386V29.1556H105.645V30.1055ZM102.752 38.2316C101.017 38.2316 99.5573 36.7512 99.5573 34.686C99.5573 32.6208 101.018 31.1123 102.752 31.1123C104.461 31.1123 105.838 32.6208 105.838 34.686C105.837 36.7234 104.46 38.2316 102.752 38.2316ZM135.671 22.9296H129.61V40.1856H132.145V33.6511H135.671C138.481 33.6511 141.235 31.5843 141.235 28.2903C141.235 24.996 138.481 22.9293 135.671 22.9293V22.9296ZM135.753 31.2514H132.171V25.3305H135.753C137.626 25.3305 138.728 26.9222 138.728 28.29C138.701 29.6304 137.627 31.2514 135.753 31.2514ZM151.345 28.7651C149.527 28.7651 147.626 29.575 146.855 31.418L149.087 32.3679C149.583 31.418 150.464 31.111 151.401 31.111C152.724 31.111 154.046 31.9206 154.073 33.3441V33.5123C153.604 33.2331 152.641 32.8415 151.429 32.8415C149.005 32.8415 146.552 34.2097 146.552 36.7234C146.552 39.0412 148.536 40.5207 150.74 40.5207C152.448 40.5207 153.384 39.7386 153.962 38.8177H154.045V40.1581H156.496V33.5398C156.468 30.4968 154.238 28.7648 151.345 28.7648V28.7651ZM151.042 38.2038C150.216 38.2038 149.058 37.7843 149.058 36.7525C149.058 35.4121 150.49 34.9095 151.73 34.9095C152.832 34.9095 153.355 35.1608 154.045 35.4956C153.851 37.0872 152.502 38.2038 151.042 38.2038ZM165.339 29.1571L162.446 36.6121H162.364L159.362 29.1568H156.635L161.153 39.5995L158.59 45.4356H161.235L168.148 29.1568H165.338L165.339 29.1571ZM142.64 40.1856H145.175V22.9293H142.64V40.1856Z" fill="#181C32"/>
<path d="M58.5613 17.4943C57.7958 17.4943 57.0904 17.3096 56.445 16.9402C55.7996 16.5709 55.2855 16.0658 54.9028 15.4251C54.5276 14.7769 54.34 14.057 54.34 13.2656C54.34 12.4741 54.5276 11.758 54.9028 11.1173C55.2855 10.469 55.7996 9.96024 56.445 9.59089C57.0904 9.22154 57.7958 9.03687 58.5613 9.03687C59.1692 9.03687 59.7358 9.14616 60.2611 9.36476C60.7864 9.58335 61.2254 9.88863 61.5782 10.2806L60.7001 11.1625C60.4375 10.8685 60.1223 10.6424 59.7545 10.4841C59.3943 10.3258 58.9928 10.2467 58.5501 10.2467C58.0322 10.2467 57.5482 10.3711 57.0979 10.6198C56.6476 10.8685 56.2874 11.2228 56.0172 11.6826C55.7471 12.1424 55.612 12.6701 55.612 13.2656C55.612 13.861 55.7471 14.3887 56.0172 14.8485C56.2874 15.3083 56.6476 15.6626 57.0979 15.9113C57.5482 16.1601 58.036 16.2844 58.5613 16.2844C59.0416 16.2844 59.4431 16.2128 59.7658 16.0696C60.0885 15.9264 60.3774 15.7342 60.6326 15.493C60.7977 15.3271 60.9365 15.1199 61.0491 14.8711C61.1692 14.6224 61.248 14.351 61.2855 14.057H58.5501V12.9264H62.4787C62.5162 13.1374 62.535 13.356 62.535 13.5821C62.535 14.0947 62.4562 14.5884 62.2986 15.0633C62.141 15.5307 61.8896 15.9377 61.5444 16.2844C60.7864 17.091 59.7921 17.4943 58.5613 17.4943Z" fill="#181C32"/>
<path d="M63.709 9.21777H68.6057V10.4276H64.9697V12.6663H68.2455V13.8648H64.9697V16.1035H68.6057V17.3133H63.709V9.21777Z" fill="#181C32"/>
<path d="M71.5237 10.4276H69.2724V9.21777H75.0359V10.4276H72.7845V17.3133H71.5237V10.4276Z" fill="#181C32"/>
<path d="M78.332 9.21777H79.5927V17.3133H78.332V9.21777Z" fill="#181C32"/>
<path d="M82.7829 10.4276H80.5315V9.21777H86.295V10.4276H84.0436V17.3133H82.7829V10.4276Z" fill="#181C32"/>
<path d="M93.1423 17.4943C92.3618 17.4943 91.6526 17.3096 91.0147 16.9402C90.3768 16.5633 89.874 16.0508 89.5063 15.4025C89.1461 14.7543 88.966 14.0419 88.966 13.2656C88.966 12.4892 89.1461 11.7806 89.5063 11.1399C89.874 10.4917 90.3768 9.97909 91.0147 9.6022C91.6526 9.22531 92.3618 9.03687 93.1423 9.03687C93.9228 9.03687 94.6282 9.22531 95.2586 9.6022C95.8965 9.97909 96.3993 10.4917 96.767 11.1399C97.1348 11.7806 97.3186 12.4892 97.3186 13.2656C97.3186 14.0419 97.1348 14.7543 96.767 15.4025C96.4068 16.0508 95.9077 16.5633 95.2699 16.9402C94.632 17.3096 93.9228 17.4943 93.1423 17.4943ZM93.1423 16.2844C93.6751 16.2844 94.1629 16.1563 94.6057 15.9C95.0485 15.6437 95.3974 15.2895 95.6526 14.8372C95.9077 14.3774 96.0353 13.8535 96.0353 13.2656C96.0353 12.6776 95.9077 12.1575 95.6526 11.7052C95.3974 11.2454 95.0485 10.8874 94.6057 10.6311C94.1629 10.3748 93.6751 10.2467 93.1423 10.2467C92.6095 10.2467 92.1217 10.3748 91.6789 10.6311C91.2361 10.8874 90.8834 11.2454 90.6207 11.7052C90.3656 12.1575 90.238 12.6776 90.238 13.2656C90.238 13.8535 90.3656 14.3774 90.6207 14.8372C90.8834 15.2895 91.2361 15.6437 91.6789 15.9C92.1217 16.1563 92.6095 16.2844 93.1423 16.2844Z" fill="#181C32"/>
<path d="M98.4779 9.21777H99.9751L103.577 15.1085H103.645L103.577 13.5482V9.21777H104.827V17.3133H103.51L99.7274 11.1173H99.6599L99.7274 12.6776V17.3133H98.4779V9.21777Z" fill="#181C32"/>
<path d="M37.532 32.1825C41.7466 29.8365 44.942 28.0492 45.2174 27.9104C46.0981 27.4353 47.0081 26.1784 45.2174 25.2022C44.6391 24.8953 41.5261 23.1633 37.532 20.9302L31.9954 26.5979L37.5317 32.1825H37.532Z" fill="#FFD900"/>
<path d="M31.9954 26.5979L14.3655 44.6085C14.7791 44.6641 15.2463 44.5528 15.7973 44.2459C16.9538 43.6044 29.2123 36.8183 37.5323 32.1837L31.9954 26.5979Z" fill="#F43249"/>
<path d="M31.9954 26.5977L37.5317 20.9575C37.5317 20.9575 17.0373 9.62058 15.7971 8.95163C15.3304 8.67035 14.8068 8.58719 14.3384 8.67035L31.9954 26.5974V26.5977Z" fill="#00EE76"/>
<path d="M31.9954 26.598L14.3381 8.6709C13.6215 8.83875 13.0158 9.48049 13.0158 10.7924V42.4861C13.0158 43.6877 13.4845 44.5529 14.3653 44.6361L31.9951 26.5977L31.9954 26.598Z" fill="#00D3FF"/>
</g>
<defs>
<clipPath id="clip0_62_9745">
<rect width="178" height="53" fill="white"/>
</clipPath>
</defs>
</svg>
