<svg width="178" height="53" viewBox="0 0 178 53" fill="none" xmlns="http://www.w3.org/2000/svg">
<g clip-path="url(#clip0_62_9744)">
<path d="M0 7.06667C0 3.16385 3.14993 0 7.03557 0H170.964C174.85 0 178 3.16386 178 7.06667V45.9333C178 49.8361 174.85 53 170.964 53H7.03557C3.14993 53 0 49.8361 0 45.9333V7.06667Z" fill="white"/>
<path fill-rule="evenodd" clip-rule="evenodd" d="M0 45.9333V7.06667C0 3.16385 3.14993 0 7.03557 0H170.964C174.85 0 178 3.16385 178 7.06667V45.9333C178 49.8361 174.85 53 170.964 53H7.03557C3.14993 53 0 49.8361 0 45.9333ZM1.05534 45.9333V7.06667C1.05534 3.74928 3.73278 1.06 7.03557 1.06H170.964C174.267 1.06 176.945 3.74928 176.945 7.06667V45.9333C176.945 49.2507 174.267 51.94 170.964 51.94H7.03557C3.73278 51.94 1.05534 49.2507 1.05534 45.9333Z" fill="black" fill-opacity="0.1"/>
<path d="M40.224 27.5795C40.2058 24.4732 41.607 22.132 44.4366 20.4058C42.854 18.1285 40.4598 16.8759 37.3036 16.6345C34.3153 16.3977 31.0458 18.3835 29.8487 18.3835C28.5835 18.3835 25.6904 16.7165 23.414 16.7165C18.7161 16.7894 13.7235 20.4787 13.7235 27.9848C13.7235 30.203 14.1271 32.494 14.9342 34.8533C16.0135 37.9596 19.9042 45.5705 23.9627 45.4475C26.0849 45.3974 27.5859 43.9353 30.3475 43.9353C33.0275 43.9353 34.4151 45.4475 36.7822 45.4475C40.8769 45.3883 44.3958 38.4697 45.4207 35.3543C39.9292 32.7536 40.224 27.7389 40.224 27.5795ZM35.458 13.6877C37.7571 10.9457 37.5485 8.44976 37.4805 7.55249C35.449 7.67091 33.1 8.94167 31.7623 10.5039C30.2885 12.1801 29.4224 14.2524 29.6083 16.589C31.8031 16.7575 33.8074 15.6234 35.458 13.6877Z" fill="#181C32"/>
<path d="M64.9925 38.3535H62.6635L61.3877 34.3082H56.9532L55.7379 38.3535H53.4704L57.8639 24.5815H60.5775L64.9925 38.3535ZM61.0031 32.611L59.8493 29.0149C59.7273 28.6475 59.4986 27.7823 59.1612 26.4205H59.1202C58.9858 27.0062 58.7694 27.8713 58.472 29.0149L57.3388 32.611H61.0031Z" fill="#181C32"/>
<path d="M76.2911 33.2662C76.2911 34.9551 75.8388 36.29 74.9342 37.2701C74.1241 38.1425 73.118 38.5781 71.9171 38.5781C70.6208 38.5781 69.6895 38.1083 69.1224 37.1686H69.0814V42.3999H66.8949V31.6921C66.8949 30.6304 66.8672 29.5407 66.8139 28.423H68.7368L68.8588 29.997H68.8999C69.629 28.8111 70.7356 28.2191 72.2206 28.2191C73.3816 28.2191 74.3507 28.6817 75.126 29.6079C75.9034 30.5352 76.2911 31.7542 76.2911 33.2662ZM74.0636 33.3469C74.0636 32.3803 73.8482 31.5835 73.4154 30.9563C72.9426 30.3023 72.3078 29.9753 71.512 29.9753C70.9725 29.9753 70.4823 30.1574 70.0444 30.5165C69.6054 30.8787 69.3183 31.3517 69.1839 31.9374C69.1163 32.2106 69.0824 32.4341 69.0824 32.6101V34.2658C69.0824 34.9882 69.3019 35.5977 69.7408 36.0955C70.1798 36.5933 70.75 36.8416 71.4515 36.8416C72.275 36.8416 72.916 36.5208 73.3744 35.8813C73.8338 35.2407 74.0636 34.3962 74.0636 33.3469Z" fill="#181C32"/>
<path d="M87.6105 33.2662C87.6105 34.9551 87.1583 36.29 86.2527 37.2701C85.4435 38.1425 84.4374 38.5781 83.2365 38.5781C81.9402 38.5781 81.009 38.1083 80.4429 37.1686H80.4019V42.3999H78.2154V31.6921C78.2154 30.6304 78.1877 29.5407 78.1344 28.423H80.0573L80.1793 29.997H80.2203C80.9485 28.8111 82.0551 28.2191 83.5411 28.2191C84.701 28.2191 85.6702 28.6817 86.4475 29.6079C87.2218 30.5352 87.6105 31.7542 87.6105 33.2662ZM85.383 33.3469C85.383 32.3803 85.1666 31.5835 84.7338 30.9563C84.261 30.3023 83.6283 29.9753 82.8314 29.9753C82.291 29.9753 81.8018 30.1574 81.3628 30.5165C80.9239 30.8787 80.6377 31.3517 80.5034 31.9374C80.4367 32.2106 80.4019 32.4341 80.4019 32.6101V34.2658C80.4019 34.9882 80.6213 35.5977 81.0582 36.0955C81.4972 36.5922 82.0674 36.8416 82.7709 36.8416C83.5944 36.8416 84.2354 36.5208 84.6938 35.8813C85.1533 35.2407 85.383 34.3962 85.383 33.3469Z" fill="#181C32"/>
<path d="M100.266 34.4915C100.266 35.663 99.863 36.6161 99.0539 37.3519C98.1647 38.156 96.9269 38.5575 95.3362 38.5575C93.8676 38.5575 92.6903 38.2719 91.7991 37.6996L92.3057 35.8607C93.2656 36.4464 94.3189 36.7403 95.4665 36.7403C96.29 36.7403 96.931 36.552 97.3915 36.1773C97.8499 35.8027 98.0786 35.2998 98.0786 34.6727C98.0786 34.1138 97.8899 33.643 97.5114 33.2611C97.1351 32.8792 96.5064 32.5243 95.6285 32.1962C93.239 31.2969 92.0452 29.9795 92.0452 28.2472C92.0452 27.115 92.4636 26.1868 93.3015 25.4644C94.1363 24.7411 95.2501 24.3799 96.6428 24.3799C97.8847 24.3799 98.9165 24.5982 99.74 25.0339L99.1934 26.8325C98.4242 26.4103 97.5545 26.1992 96.5813 26.1992C95.8121 26.1992 95.2111 26.3906 94.7804 26.7715C94.4163 27.1119 94.2338 27.5269 94.2338 28.0185C94.2338 28.5628 94.4419 29.013 94.8604 29.3669C95.2244 29.6939 95.8859 30.0478 96.8459 30.4297C98.0201 30.9068 98.8826 31.4646 99.4374 32.1041C99.9902 32.7416 100.266 33.5395 100.266 34.4915Z" fill="#181C32"/>
<path d="M107.495 30.079H105.085V34.9004C105.085 36.1267 105.509 36.7394 106.361 36.7394C106.751 36.7394 107.075 36.7052 107.332 36.6369L107.392 38.3124C106.962 38.4748 106.394 38.5566 105.692 38.5566C104.828 38.5566 104.154 38.2906 103.666 37.7598C103.181 37.2278 102.937 36.3358 102.937 35.0826V30.0769H101.502V28.4211H102.937V26.6029L105.085 25.9488V28.4211H107.495V30.079Z" fill="#181C32"/>
<path d="M118.369 33.3065C118.369 34.833 117.936 36.0862 117.073 37.0662C116.167 38.0752 114.965 38.5781 113.467 38.5781C112.023 38.5781 110.873 38.0949 110.016 37.1283C109.158 36.1617 108.73 34.9416 108.73 33.4711C108.73 31.9322 109.171 30.6718 110.056 29.6918C110.939 28.7107 112.131 28.2202 113.629 28.2202C115.073 28.2202 116.235 28.7035 117.112 29.6711C117.951 30.6097 118.369 31.8215 118.369 33.3065ZM116.1 33.3779C116.1 32.4621 115.907 31.6766 115.514 31.0216C115.055 30.2288 114.4 29.8335 113.551 29.8335C112.672 29.8335 112.004 30.2299 111.546 31.0216C111.153 31.6777 110.959 32.4755 110.959 33.4193C110.959 34.3352 111.153 35.1207 111.546 35.7747C112.019 36.5674 112.679 36.9627 113.531 36.9627C114.366 36.9627 115.022 36.5591 115.494 35.754C115.897 35.0865 116.1 34.2928 116.1 33.3779Z" fill="#181C32"/>
<path d="M125.476 30.3634C125.26 30.323 125.029 30.3023 124.787 30.3023C124.018 30.3023 123.423 30.5952 123.004 31.1819C122.64 31.6994 122.458 32.3534 122.458 33.143V38.3536H120.272L120.293 31.5504C120.293 30.4058 120.265 29.3637 120.211 28.424H122.115L122.195 30.324H122.256C122.486 29.671 122.851 29.1453 123.349 28.7511C123.836 28.3961 124.362 28.2191 124.929 28.2191C125.131 28.2191 125.314 28.2336 125.476 28.2595V30.3634Z" fill="#181C32"/>
<path d="M135.254 32.9185C135.254 33.3138 135.228 33.6471 135.174 33.9192H128.615C128.64 34.9003 128.957 35.6506 129.566 36.168C130.119 36.6306 130.834 36.8624 131.712 36.8624C132.683 36.8624 133.569 36.7061 134.366 36.3926L134.709 37.9242C133.777 38.334 132.678 38.5378 131.409 38.5378C129.883 38.5378 128.685 38.0846 127.814 37.1791C126.944 36.2736 126.508 35.0576 126.508 33.5322C126.508 32.0347 126.913 30.7877 127.724 29.7932C128.574 28.7315 129.721 28.2006 131.165 28.2006C132.584 28.2006 133.657 28.7315 134.386 29.7932C134.964 30.6366 135.254 31.6798 135.254 32.9185ZM133.169 32.3462C133.184 31.6922 133.041 31.1272 132.745 30.6501C132.366 30.0364 131.785 29.7301 131.002 29.7301C130.287 29.7301 129.706 30.0292 129.262 30.6294C128.898 31.1065 128.681 31.6788 128.615 32.3452H133.169V32.3462Z" fill="#181C32"/>
<path d="M60.558 15.3205C60.558 16.8092 60.1155 17.9298 59.2319 18.6823C58.4134 19.3767 57.2502 19.7245 55.7436 19.7245C54.9966 19.7245 54.3573 19.6916 53.8221 19.6259V11.4921C54.5203 11.3782 55.2723 11.32 56.0845 11.32C57.5197 11.32 58.6014 11.635 59.3309 12.2648C60.1481 12.9769 60.558 13.9951 60.558 15.3205ZM59.1729 15.3572C59.1729 14.3922 58.9198 13.6523 58.4134 13.1363C57.907 12.6215 57.1675 12.3635 56.1936 12.3635C55.78 12.3635 55.4278 12.3913 55.1357 12.4495V18.633C55.2974 18.6583 55.5932 18.6697 56.0231 18.6697C57.0284 18.6697 57.8042 18.3876 58.3507 17.8235C58.8972 17.2595 59.1729 16.4373 59.1729 15.3572Z" fill="#181C32"/>
<path d="M67.9018 16.621C67.9018 17.5379 67.6423 18.2892 67.1234 18.8786C66.5794 19.4844 65.8587 19.7867 64.9588 19.7867C64.0914 19.7867 63.4008 19.4971 62.8856 18.9153C62.3717 18.3347 62.1148 17.6024 62.1148 16.7196C62.1148 15.7963 62.3792 15.0387 62.9107 14.4506C63.4421 13.8625 64.1566 13.5678 65.0565 13.5678C65.9239 13.5678 66.6208 13.8574 67.1485 14.4379C67.6498 15.002 67.9018 15.7306 67.9018 16.621ZM66.5393 16.664C66.5393 16.1138 66.4215 15.642 66.1871 15.2487C65.9113 14.7731 65.519 14.5353 65.0089 14.5353C64.4812 14.5353 64.0801 14.7731 63.8044 15.2487C63.5687 15.642 63.4522 16.1214 63.4522 16.688C63.4522 17.2382 63.57 17.7099 63.8044 18.1033C64.0889 18.5788 64.485 18.8166 64.9964 18.8166C65.4977 18.8166 65.8913 18.575 66.1746 18.0906C66.4177 17.6897 66.5393 17.2141 66.5393 16.664Z" fill="#181C32"/>
<path d="M77.7489 13.6891L75.9001 19.6513H74.6968L73.931 17.0623C73.7367 16.416 73.5788 15.7735 73.4559 15.136H73.4321C73.3181 15.7912 73.1601 16.4324 72.9571 17.0623L72.1436 19.6513H70.9266L69.1881 13.6891H70.538L71.2061 16.5235C71.3678 17.1938 71.5006 17.8325 71.6072 18.4371H71.631C71.7288 17.9388 71.8904 17.3039 72.1186 16.5361L72.9571 13.6904H74.0275L74.8309 16.4754C75.0252 17.1546 75.1831 17.8085 75.3047 18.4384H75.3411C75.4301 17.825 75.5642 17.1711 75.7422 16.4754L76.4591 13.6904H77.7489V13.6891Z" fill="#181C32"/>
<path d="M84.5582 19.6513H83.2446V16.2364C83.2446 15.1841 82.8485 14.658 82.0539 14.658C81.664 14.658 81.3494 14.8022 81.105 15.0918C80.8631 15.3814 80.7403 15.7229 80.7403 16.1137V19.6501H79.4267V15.3928C79.4267 14.8692 79.4104 14.3013 79.3791 13.6866H80.5335L80.5949 14.6188H80.6312C80.7842 14.3291 81.0123 14.0901 81.3118 13.8991C81.6678 13.6765 82.0664 13.5639 82.5026 13.5639C83.0541 13.5639 83.5128 13.7435 83.8776 14.104C84.3313 14.5454 84.5582 15.2044 84.5582 16.0796V19.6513Z" fill="#181C32"/>
<path d="M88.1803 19.6513H86.868V10.9534H88.1803V19.6513Z" fill="#181C32"/>
<path d="M95.9138 16.621C95.9138 17.5379 95.6544 18.2892 95.1354 18.8786C94.5915 19.4844 93.8695 19.7867 92.9708 19.7867C92.1022 19.7867 91.4116 19.4971 90.8977 18.9153C90.3838 18.3347 90.1268 17.6024 90.1268 16.7196C90.1268 15.7963 90.3913 15.0387 90.9227 14.4506C91.4542 13.8625 92.1686 13.5678 93.0673 13.5678C93.9359 13.5678 94.6316 13.8574 95.1605 14.4379C95.6619 15.002 95.9138 15.7306 95.9138 16.621ZM94.5501 16.664C94.5501 16.1138 94.4323 15.642 94.1979 15.2487C93.9234 14.7731 93.5298 14.5353 93.0209 14.5353C92.492 14.5353 92.0909 14.7731 91.8164 15.2487C91.5808 15.642 91.4642 16.1214 91.4642 16.688C91.4642 17.2382 91.582 17.7099 91.8164 18.1033C92.1009 18.5788 92.497 18.8166 93.0084 18.8166C93.5098 18.8166 93.9021 18.575 94.1854 18.0906C94.4298 17.6897 94.5501 17.2141 94.5501 16.664Z" fill="#181C32"/>
<path d="M102.271 19.6514H101.092L100.994 18.9646H100.958C100.554 19.5122 99.9787 19.7867 99.2317 19.7867C98.6739 19.7867 98.2227 19.6058 97.883 19.2466C97.5747 18.9203 97.4205 18.5143 97.4205 18.0325C97.4205 17.3039 97.7213 16.7487 98.3267 16.3642C98.9308 15.9797 99.7806 15.7913 100.875 15.8001V15.6888C100.875 14.9034 100.466 14.5113 99.6478 14.5113C99.0649 14.5113 98.5511 14.6593 98.1073 14.9527L97.8404 14.0825C98.3894 13.7398 99.0675 13.5678 99.8671 13.5678C101.411 13.5678 102.186 14.3899 102.186 16.0341V18.2298C102.186 18.8255 102.215 19.2998 102.271 19.6514ZM100.907 17.6024V16.6829C99.4585 16.6576 98.7341 17.0586 98.7341 17.8845C98.7341 18.1956 98.8168 18.4283 98.986 18.5839C99.1552 18.7395 99.3708 18.8166 99.6277 18.8166C99.916 18.8166 100.185 18.7243 100.431 18.5409C100.678 18.3562 100.83 18.1223 100.886 17.8351C100.9 17.7706 100.907 17.6922 100.907 17.6024Z" fill="#181C32"/>
<path d="M109.735 19.6513H108.569L108.508 18.6938H108.472C108.099 19.4223 107.465 19.7866 106.574 19.7866C105.862 19.7866 105.269 19.5046 104.799 18.9405C104.329 18.3764 104.095 17.6441 104.095 16.7448C104.095 15.7798 104.349 14.9981 104.861 14.4012C105.356 13.8447 105.962 13.5664 106.684 13.5664C107.478 13.5664 108.033 13.8358 108.349 14.3759H108.374V10.9534H109.689V18.045C109.689 18.6255 109.704 19.1605 109.735 19.6513ZM108.374 17.1369V16.1428C108.374 15.9708 108.361 15.8316 108.337 15.7254C108.264 15.4067 108.104 15.1385 107.862 14.9223C107.618 14.706 107.323 14.5972 106.984 14.5972C106.494 14.5972 106.11 14.7932 105.828 15.1866C105.549 15.5799 105.407 16.0821 105.407 16.6955C105.407 17.2849 105.541 17.7629 105.811 18.131C106.095 18.5231 106.479 18.7191 106.959 18.7191C107.39 18.7191 107.735 18.556 107.997 18.2284C108.25 17.9261 108.374 17.5618 108.374 17.1369Z" fill="#181C32"/>
<path d="M120.97 16.621C120.97 17.5379 120.71 18.2892 120.192 18.8786C119.648 19.4844 118.928 19.7867 118.027 19.7867C117.161 19.7867 116.47 19.4971 115.954 18.9153C115.44 18.3347 115.183 17.6024 115.183 16.7196C115.183 15.7963 115.447 15.0387 115.979 14.4506C116.51 13.8625 117.225 13.5678 118.126 13.5678C118.992 13.5678 119.69 13.8574 120.217 14.4379C120.718 15.002 120.97 15.7306 120.97 16.621ZM119.609 16.664C119.609 16.1138 119.491 15.642 119.256 15.2487C118.979 14.7731 118.588 14.5353 118.077 14.5353C117.551 14.5353 117.149 14.7731 116.872 15.2487C116.637 15.642 116.52 16.1214 116.52 16.688C116.52 17.2382 116.638 17.7099 116.872 18.1033C117.157 18.5788 117.553 18.8166 118.064 18.8166C118.566 18.8166 118.961 18.575 119.244 18.0906C119.486 17.6897 119.609 17.2141 119.609 16.664Z" fill="#181C32"/>
<path d="M128.032 19.6513H126.72V16.2364C126.72 15.1841 126.324 14.658 125.528 14.658C125.138 14.658 124.824 14.8022 124.581 15.0918C124.337 15.3814 124.216 15.7229 124.216 16.1137V19.6501H122.901V15.3928C122.901 14.8692 122.886 14.3013 122.855 13.6866H124.008L124.069 14.6188H124.106C124.26 14.3291 124.488 14.0901 124.786 13.8991C125.143 13.6765 125.541 13.5639 125.978 13.5639C126.528 13.5639 126.987 13.7435 127.352 14.104C127.807 14.5454 128.032 15.2044 128.032 16.0796V19.6513Z" fill="#181C32"/>
<path d="M136.872 14.682H135.426V17.5784C135.426 18.3145 135.683 18.6825 136.192 18.6825C136.427 18.6825 136.623 18.6623 136.777 18.6206L136.811 19.6261C136.552 19.7247 136.211 19.774 135.791 19.774C135.272 19.774 134.868 19.6147 134.576 19.296C134.283 18.9772 134.137 18.441 134.137 17.6884V14.682H133.274V13.6892H134.137V12.5964L135.425 12.2043V13.6879H136.871V14.682H136.872Z" fill="#181C32"/>
<path d="M143.827 19.6513H142.512V16.2617C142.512 15.1929 142.116 14.6579 141.322 14.6579C140.713 14.6579 140.297 14.9678 140.069 15.5875C140.03 15.7178 140.008 15.8772 140.008 16.0643V19.65H138.695V10.9534H140.008V14.5466H140.033C140.446 13.8927 141.039 13.5664 141.807 13.5664C142.351 13.5664 142.801 13.746 143.159 14.1065C143.604 14.5555 143.827 15.2233 143.827 16.1061V19.6513Z" fill="#181C32"/>
<path d="M151.001 16.3881C151.001 16.6259 150.983 16.8258 150.952 16.9889H147.012C147.03 17.5783 147.218 18.0273 147.583 18.3384C147.916 18.6167 148.346 18.7558 148.872 18.7558C149.455 18.7558 149.987 18.6622 150.465 18.4738L150.671 19.3945C150.111 19.6399 149.451 19.7626 148.688 19.7626C147.773 19.7626 147.052 19.4906 146.531 18.9468C146.007 18.4029 145.748 17.6732 145.748 16.7575C145.748 15.8582 145.989 15.1094 146.477 14.5125C146.986 13.875 147.674 13.5563 148.543 13.5563C149.392 13.5563 150.038 13.875 150.474 14.5125C150.826 15.0184 151.001 15.6444 151.001 16.3881ZM149.747 16.0454C149.757 15.652 149.671 15.3131 149.493 15.0272C149.265 14.6592 148.917 14.4745 148.447 14.4745C148.019 14.4745 147.669 14.6541 147.402 15.0146C147.184 15.3017 147.055 15.6444 147.012 16.0454H149.747Z" fill="#181C32"/>
</g>
<defs>
<clipPath id="clip0_62_9744">
<rect width="178" height="53" fill="white"/>
</clipPath>
</defs>
</svg>
