<svg width="28" height="28" viewBox="0 0 28 28" fill="none" xmlns="http://www.w3.org/2000/svg">
<path d="M24.5013 14H20.3235C19.4088 14 18.668 14.7408 18.668 15.6555V17.0112C18.668 17.9258 19.4088 18.6667 20.3235 18.6667H24.5013" stroke="#018780" stroke-width="1.5" stroke-linecap="round" stroke-linejoin="round"/>
<path fill-rule="evenodd" clip-rule="evenodd" d="M22.1667 24.5013H5.83333C4.54417 24.5013 3.5 23.4571 3.5 22.168V10.5013C3.5 9.21214 4.54417 8.16797 5.83333 8.16797H22.1667C23.4558 8.16797 24.5 9.21214 24.5 10.5013V22.168C24.5 23.4571 23.4558 24.5013 22.1667 24.5013Z" stroke="#018780" stroke-width="1.5" stroke-linecap="round" stroke-linejoin="round"/>
<path d="M16.3333 8.16833L12.4915 4.3265C12.0353 3.87033 11.2968 3.87033 10.8418 4.3265L7 8.16833" stroke="#018780" stroke-width="1.5" stroke-linecap="round" stroke-linejoin="round"/>
<path d="M14 5.835L15.5085 4.3265C15.9647 3.87033 16.7032 3.87033 17.1582 4.3265L21 8.16833" stroke="#018780" stroke-width="1.5" stroke-linecap="round" stroke-linejoin="round"/>
</svg>
