<svg width="24" height="24" viewBox="0 0 24 24" fill="none" xmlns="http://www.w3.org/2000/svg">
<path d="M14.8765 10.1678C16.4336 11.7248 16.4336 14.2492 14.8765 15.8062C13.3195 17.3633 10.7951 17.3633 9.23808 15.8062C7.68106 14.2492 7.68106 11.7248 9.23808 10.1678C10.7951 8.61075 13.3195 8.61075 14.8765 10.1678" stroke="#018780" stroke-width="1.5" stroke-linecap="round" stroke-linejoin="round"/>
<path fill-rule="evenodd" clip-rule="evenodd" d="M21 9V18C21 19.105 20.105 20 19 20H5C3.895 20 3 19.105 3 18V9C3 7.895 3.895 7 5 7H7L8.462 4.496C8.641 4.189 8.97 4 9.326 4H14.63C14.981 4 15.306 4.184 15.487 4.484L17 7H19C20.105 7 21 7.895 21 9Z" stroke="#018780" stroke-width="1.5" stroke-linecap="round" stroke-linejoin="round"/>
</svg>
