<svg width="12" height="12" viewBox="0 0 12 12" fill="none" xmlns="http://www.w3.org/2000/svg">
<path d="M10.355 3.52125C10.185 3.69125 10.02 3.85625 10.015 4.02125C10 4.18125 10.17 4.34625 10.33 4.50125C10.57 4.75125 10.805 4.97625 10.795 5.22125C10.785 5.46625 10.53 5.72125 10.275 5.97125L8.21 8.04125L7.5 7.33125L9.625 5.21125L9.145 4.73125L8.435 5.43625L6.56 3.56125L8.48 1.64625C8.675 1.45125 9 1.45125 9.185 1.64625L10.355 2.81625C10.55 3.00125 10.55 3.32625 10.355 3.52125ZM1.5 8.62625L6.28 3.84125L8.155 5.71625L3.375 10.5013H1.5V8.62625Z" fill="white"/>
</svg>
