<svg width="32" height="32" viewBox="0 0 32 32" fill="none" xmlns="http://www.w3.org/2000/svg">
<g clip-path="url(#clip0_1_3901)">
<path d="M5 19.6665H27V26.9998H5V19.6665Z" fill="#1EB53A"/>
<path d="M5 5H27V12.3333H5V5Z" fill="#0099B5"/>
<path d="M5 12.04H27V19.96H5V12.04Z" fill="#CE1126"/>
<path d="M5 12.48H27V19.52H5V12.48Z" fill="white"/>
<path d="M9.62062 11.1599C10.7141 11.1599 11.6006 9.97791 11.6006 8.51988C11.6006 7.06185 10.7141 5.87988 9.62062 5.87988C8.5271 5.87988 7.64062 7.06185 7.64062 8.51988C7.64062 9.97791 8.5271 11.1599 9.62062 11.1599Z" fill="white"/>
<path d="M10.2808 11.1599C11.3743 11.1599 12.2608 9.97791 12.2608 8.51988C12.2608 7.06185 11.3743 5.87988 10.2808 5.87988C9.18726 5.87988 8.30078 7.06185 8.30078 8.51988C8.30078 9.97791 9.18726 11.1599 10.2808 11.1599Z" fill="#0099B5"/>
<path d="M13.9731 10.105L13.8477 10.6066L14.0391 10.6946" fill="white"/>
<path d="M13.9723 10.105L14.0977 10.6066L13.9063 10.6946" fill="white"/>
<path d="M14.3519 10.4541L13.9532 10.4867L13.9371 10.7359" fill="white"/>
<path d="M14.3551 10.4614L14.0196 10.7802L13.907 10.5927" fill="white"/>
<path d="M13.5902 10.4614L13.9257 10.7802L14.0383 10.5927" fill="white"/>
<path d="M13.5934 10.4536L13.9921 10.4863L14.0083 10.7355" fill="white"/>
<path d="M14.2013 11.0569L14.095 10.5549L13.8938 10.6459" fill="white"/>
<path d="M14.2049 11.0535L13.8841 10.7619L14.0104 10.5317" fill="white"/>
<path d="M13.739 11.066L14.0629 10.7456L13.9548 10.5317" fill="white"/>
<path d="M13.7376 11.0634L13.8676 10.5576L14.0554 10.6266" fill="white"/>
<path d="M13.9731 7.99268L13.8477 8.49428L14.0391 8.58228" fill="white"/>
<path d="M13.9723 7.99268L14.0977 8.49428L13.9063 8.58228" fill="white"/>
<path d="M14.3519 8.3418L13.9532 8.37444L13.9371 8.62364" fill="white"/>
<path d="M14.3551 8.34912L14.0196 8.6679L13.907 8.48036" fill="white"/>
<path d="M13.5902 8.34912L13.9257 8.6679L14.0383 8.48036" fill="white"/>
<path d="M13.5934 8.34131L13.9921 8.37395L14.0083 8.62315" fill="white"/>
<path d="M14.2013 8.94458L14.095 8.44257L13.8938 8.53356" fill="white"/>
<path d="M14.2049 8.94117L13.8841 8.6496L14.0104 8.41939" fill="white"/>
<path d="M13.739 8.95372L14.0629 8.6333L13.9548 8.41939" fill="white"/>
<path d="M13.7376 8.95106L13.8676 8.44531L14.0554 8.51427" fill="white"/>
<path d="M13.9731 5.88086L13.8477 6.38246L14.0391 6.47046" fill="white"/>
<path d="M13.9723 5.88086L14.0977 6.38246L13.9063 6.47046" fill="white"/>
<path d="M14.3519 6.22998L13.9532 6.26262L13.9371 6.51182" fill="white"/>
<path d="M14.3551 6.2373L14.0196 6.55608L13.907 6.36854" fill="white"/>
<path d="M13.5902 6.2373L13.9257 6.55608L14.0383 6.36854" fill="white"/>
<path d="M13.5934 6.2295L13.9921 6.26214L14.0083 6.51133" fill="white"/>
<path d="M14.2013 6.83276L14.095 6.33075L13.8938 6.42174" fill="white"/>
<path d="M14.2049 6.82935L13.8841 6.53778L14.0104 6.30757" fill="white"/>
<path d="M13.739 6.8419L14.0629 6.52148L13.9548 6.30757" fill="white"/>
<path d="M13.7376 6.83925L13.8676 6.33349L14.0554 6.40246" fill="white"/>
<path d="M15.559 10.105L15.4336 10.6066L15.625 10.6946" fill="white"/>
<path d="M15.5582 10.105L15.6836 10.6066L15.4922 10.6946" fill="white"/>
<path d="M15.9378 10.4541L15.5392 10.4867L15.523 10.7359" fill="white"/>
<path d="M15.9411 10.4614L15.6056 10.7802L15.493 10.5927" fill="white"/>
<path d="M15.1761 10.4614L15.5116 10.7802L15.6242 10.5927" fill="white"/>
<path d="M15.1793 10.4536L15.578 10.4863L15.5942 10.7355" fill="white"/>
<path d="M15.7873 11.0569L15.681 10.5549L15.4798 10.6459" fill="white"/>
<path d="M15.7909 11.0535L15.47 10.7619L15.5963 10.5317" fill="white"/>
<path d="M15.3249 11.066L15.6489 10.7456L15.5407 10.5317" fill="white"/>
<path d="M15.3235 11.0634L15.4536 10.5576L15.6413 10.6266" fill="white"/>
<path d="M15.559 7.99268L15.4336 8.49428L15.625 8.58228" fill="white"/>
<path d="M15.5582 7.99268L15.6836 8.49428L15.4922 8.58228" fill="white"/>
<path d="M15.9378 8.3418L15.5392 8.37444L15.523 8.62364" fill="white"/>
<path d="M15.9411 8.34912L15.6056 8.6679L15.493 8.48036" fill="white"/>
<path d="M15.1761 8.34912L15.5116 8.6679L15.6242 8.48036" fill="white"/>
<path d="M15.1793 8.34131L15.578 8.37395L15.5942 8.62315" fill="white"/>
<path d="M15.7873 8.94458L15.681 8.44257L15.4798 8.53356" fill="white"/>
<path d="M15.7909 8.94117L15.47 8.6496L15.5963 8.41939" fill="white"/>
<path d="M15.3249 8.95372L15.6489 8.6333L15.5407 8.41939" fill="white"/>
<path d="M15.3235 8.95106L15.4536 8.44531L15.6413 8.51427" fill="white"/>
<path d="M15.559 5.88086L15.4336 6.38246L15.625 6.47046" fill="white"/>
<path d="M15.5582 5.88086L15.6836 6.38246L15.4922 6.47046" fill="white"/>
<path d="M15.9378 6.22998L15.5392 6.26262L15.523 6.51182" fill="white"/>
<path d="M15.9411 6.2373L15.6056 6.55608L15.493 6.36854" fill="white"/>
<path d="M15.1761 6.2373L15.5116 6.55608L15.6242 6.36854" fill="white"/>
<path d="M15.1793 6.2295L15.578 6.26214L15.5942 6.51133" fill="white"/>
<path d="M15.7873 6.83276L15.681 6.33075L15.4798 6.42174" fill="white"/>
<path d="M15.7909 6.82935L15.47 6.53778L15.5963 6.30757" fill="white"/>
<path d="M15.3249 6.8419L15.6489 6.52148L15.5407 6.30757" fill="white"/>
<path d="M15.3235 6.83925L15.4536 6.33349L15.6413 6.40246" fill="white"/>
<path d="M17.141 10.105L17.0156 10.6066L17.207 10.6946" fill="white"/>
<path d="M17.1402 10.105L17.2656 10.6066L17.0742 10.6946" fill="white"/>
<path d="M17.5199 10.4541L17.1212 10.4867L17.105 10.7359" fill="white"/>
<path d="M17.5231 10.4614L17.1876 10.7802L17.075 10.5927" fill="white"/>
<path d="M16.7582 10.4614L17.0936 10.7802L17.2063 10.5927" fill="white"/>
<path d="M16.7614 10.4536L17.1601 10.4863L17.1762 10.7355" fill="white"/>
<path d="M17.3693 11.0569L17.263 10.5549L17.0618 10.6459" fill="white"/>
<path d="M17.3729 11.0535L17.0521 10.7619L17.1783 10.5317" fill="white"/>
<path d="M16.907 11.066L17.2309 10.7456L17.1228 10.5317" fill="white"/>
<path d="M16.9055 11.0634L17.0356 10.5576L17.2234 10.6266" fill="white"/>
<path d="M17.141 7.99268L17.0156 8.49428L17.207 8.58228" fill="white"/>
<path d="M17.1402 7.99268L17.2656 8.49428L17.0742 8.58228" fill="white"/>
<path d="M17.5199 8.3418L17.1212 8.37444L17.105 8.62364" fill="white"/>
<path d="M17.5231 8.34912L17.1876 8.6679L17.075 8.48036" fill="white"/>
<path d="M16.7582 8.34912L17.0936 8.6679L17.2063 8.48036" fill="white"/>
<path d="M16.7614 8.34131L17.1601 8.37395L17.1762 8.62315" fill="white"/>
<path d="M17.3693 8.94458L17.263 8.44257L17.0618 8.53356" fill="white"/>
<path d="M17.3729 8.94117L17.0521 8.6496L17.1783 8.41939" fill="white"/>
<path d="M16.907 8.95372L17.2309 8.6333L17.1228 8.41939" fill="white"/>
<path d="M16.9055 8.95106L17.0356 8.44531L17.2234 8.51427" fill="white"/>
<path d="M17.141 5.88086L17.0156 6.38246L17.207 6.47046" fill="white"/>
<path d="M17.1402 5.88086L17.2656 6.38246L17.0742 6.47046" fill="white"/>
<path d="M17.5199 6.22998L17.1212 6.26262L17.105 6.51182" fill="white"/>
<path d="M17.5231 6.2373L17.1876 6.55608L17.075 6.36854" fill="white"/>
<path d="M16.7582 6.2373L17.0936 6.55608L17.2063 6.36854" fill="white"/>
<path d="M16.7614 6.2295L17.1601 6.26214L17.1762 6.51133" fill="white"/>
<path d="M17.3693 6.83276L17.263 6.33075L17.0618 6.42174" fill="white"/>
<path d="M17.3729 6.82935L17.0521 6.53778L17.1783 6.30757" fill="white"/>
<path d="M16.907 6.8419L17.2309 6.52148L17.1228 6.30757" fill="white"/>
<path d="M16.9055 6.83925L17.0356 6.33349L17.2234 6.40246" fill="white"/>
<path d="M10.8051 10.105L10.6797 10.6066L10.8711 10.6946" fill="white"/>
<path d="M10.8043 10.105L10.9297 10.6066L10.7383 10.6946" fill="white"/>
<path d="M11.1839 10.4541L10.7853 10.4867L10.7691 10.7359" fill="white"/>
<path d="M11.1872 10.4614L10.8517 10.7802L10.739 10.5927" fill="white"/>
<path d="M10.4222 10.4614L10.7577 10.7802L10.8703 10.5927" fill="white"/>
<path d="M10.4254 10.4536L10.8241 10.4863L10.8403 10.7355" fill="white"/>
<path d="M11.0333 11.0569L10.9271 10.5549L10.7259 10.6459" fill="white"/>
<path d="M11.037 11.0535L10.7161 10.7619L10.8424 10.5317" fill="white"/>
<path d="M10.571 11.066L10.895 10.7456L10.7868 10.5317" fill="white"/>
<path d="M10.5696 11.0634L10.6996 10.5576L10.8874 10.6266" fill="white"/>
<path d="M12.391 10.105L12.2656 10.6066L12.457 10.6946" fill="white"/>
<path d="M12.3902 10.105L12.5156 10.6066L12.3242 10.6946" fill="white"/>
<path d="M12.7699 10.4541L12.3712 10.4867L12.355 10.7359" fill="white"/>
<path d="M12.7731 10.4614L12.4376 10.7802L12.325 10.5927" fill="white"/>
<path d="M12.0082 10.4614L12.3436 10.7802L12.4563 10.5927" fill="white"/>
<path d="M12.0114 10.4536L12.4101 10.4863L12.4262 10.7355" fill="white"/>
<path d="M12.6193 11.0569L12.513 10.5549L12.3118 10.6459" fill="white"/>
<path d="M12.6229 11.0535L12.3021 10.7619L12.4283 10.5317" fill="white"/>
<path d="M12.157 11.066L12.4809 10.7456L12.3728 10.5317" fill="white"/>
<path d="M12.1555 11.0634L12.2856 10.5576L12.4734 10.6266" fill="white"/>
<path d="M12.391 7.99268L12.2656 8.49428L12.457 8.58228" fill="white"/>
<path d="M12.3902 7.99268L12.5156 8.49428L12.3242 8.58228" fill="white"/>
<path d="M12.7699 8.3418L12.3712 8.37444L12.355 8.62364" fill="white"/>
<path d="M12.7731 8.34912L12.4376 8.6679L12.325 8.48036" fill="white"/>
<path d="M12.0082 8.34912L12.3436 8.6679L12.4563 8.48036" fill="white"/>
<path d="M12.0114 8.34131L12.4101 8.37395L12.4262 8.62315" fill="white"/>
<path d="M12.6193 8.94458L12.513 8.44257L12.3118 8.53356" fill="white"/>
<path d="M12.6229 8.94117L12.3021 8.6496L12.4283 8.41939" fill="white"/>
<path d="M12.157 8.95372L12.4809 8.6333L12.3728 8.41939" fill="white"/>
<path d="M12.1555 8.95106L12.2856 8.44531L12.4734 8.51427" fill="white"/>
</g>
<defs>
<clipPath id="clip0_1_3901">
<rect x="5" y="5" width="22" height="22" rx="11" fill="white"/>
</clipPath>
</defs>
</svg>
