<svg width="26" height="26" viewBox="0 0 26 26" fill="none" xmlns="http://www.w3.org/2000/svg">
<path fill-rule="evenodd" clip-rule="evenodd" d="M13.1789 5.69977C14.2439 4.7152 15.6226 4.13769 17.0714 4.06935L17.362 4.0625C19.0133 4.0625 20.5955 4.72524 21.7706 5.9196L21.9687 6.13351C24.1664 8.62151 24.0806 12.394 21.7538 14.7852L15.9119 20.7169C15.1433 21.4977 14.0934 21.9375 12.9977 21.9375C11.902 21.9375 10.8521 21.4977 10.0836 20.717L4.23818 14.7816C1.83417 12.3112 1.83417 8.37576 4.25686 5.88673L4.47864 5.67355C5.61319 4.63785 7.09492 4.0625 8.63327 4.0625C10.2717 4.0625 11.8422 4.71495 12.998 5.87458L13.1789 5.69977ZM20.5958 7.04202C19.7429 6.17548 18.5779 5.6875 17.362 5.6875C16.1462 5.6875 14.9811 6.17548 14.128 7.04217L13.5765 7.60216C13.2583 7.92534 12.737 7.92533 12.4187 7.60215L11.867 7.04193C11.0141 6.17544 9.84912 5.6875 8.63327 5.6875C7.50058 5.6875 6.40954 6.11115 5.59004 6.85885L5.40278 7.0386C3.61264 8.87821 3.61264 11.8087 5.39938 13.6448L11.2416 19.5769C11.7047 20.0475 12.3374 20.3125 12.9977 20.3125C13.658 20.3125 14.2906 20.0475 14.754 19.5768L20.5926 13.6484C22.3226 11.8706 22.3865 9.06106 20.764 7.22387L20.5958 7.04202Z" fill="#C3C3C3"/>
</svg>
