<svg width="24" height="25" viewBox="0 0 24 25" fill="none" xmlns="http://www.w3.org/2000/svg">
<path d="M8.49271 6.36392C9.11198 6.26345 9.74703 6.29659 10.3511 6.46091C10.9551 6.62522 11.5127 6.91651 11.9827 7.31331L12.0086 7.3353L12.0324 7.31531C12.4811 6.94042 13.0085 6.66093 13.5796 6.49549C14.1506 6.33006 14.7521 6.28248 15.344 6.35593L15.5162 6.37991C16.2622 6.50257 16.9596 6.81507 17.5344 7.28431C18.1092 7.75356 18.54 8.36207 18.7812 9.04543C19.0224 9.72879 19.0651 10.4615 18.9047 11.1661C18.7442 11.8707 18.3867 12.5208 17.8699 13.0477L17.744 13.1709L17.7104 13.1982L12.4977 18.1144C12.3774 18.2278 12.2181 18.2958 12.0491 18.3058C11.8802 18.3159 11.7132 18.2673 11.579 18.169L11.5133 18.1144L6.27051 13.1696C5.71511 12.655 5.32012 12.0041 5.12929 11.289C4.93846 10.5738 4.95922 9.82231 5.18929 9.11771C5.41936 8.4131 5.84976 7.78288 6.43281 7.29684C7.01586 6.8108 7.72881 6.48791 8.49271 6.36392Z" fill="#FF6332"/>
</svg>
