<svg width="136" height="31" viewBox="0 0 136 31" fill="none" xmlns="http://www.w3.org/2000/svg">
<g clip-path="url(#clip0_40_5163)">
<path d="M16.8376 14.1356C16.8376 14.8264 16.7514 15.4435 16.579 15.9869C16.4067 16.5303 16.1717 17.0115 15.874 17.4307C15.5842 17.8421 15.2474 18.1953 14.8636 18.4903C14.4798 18.7853 14.0763 19.0259 13.6533 19.2122C13.2382 19.3985 12.8152 19.5344 12.3843 19.6197C11.9614 19.7051 11.5619 19.7478 11.1859 19.7478H4.27695V16.7205H11.1859C11.5775 16.6894 11.93 16.6118 12.2434 16.4876C12.5645 16.3556 12.8387 16.181 13.0658 15.9636C13.293 15.7463 13.4692 15.4862 13.5946 15.1835C13.7199 14.873 13.7826 14.5237 13.7826 14.1356V12.7616C13.7434 12.3813 13.6611 12.032 13.5358 11.7137C13.4105 11.3955 13.2382 11.1238 13.0188 10.8987C12.8073 10.6736 12.5488 10.4989 12.2434 10.3747C11.9379 10.2427 11.5854 10.1768 11.1859 10.1768H4.30045C3.89312 10.1768 3.58371 10.2815 3.37221 10.4911C3.16071 10.7007 3.05496 11.0034 3.05496 11.3993V23.8464H0V11.3993C0 10.6231 0.140998 9.9633 0.422995 9.41993C0.712823 8.87655 1.06924 8.43798 1.49223 8.10417C1.92306 7.77041 2.38914 7.52976 2.89046 7.38227C3.39179 7.22703 3.85395 7.14941 4.27695 7.14941H11.1859C11.8752 7.14941 12.494 7.23868 13.0423 7.41721C13.5907 7.58798 14.0724 7.82084 14.4876 8.11582C14.9106 8.40305 15.267 8.73681 15.5568 9.1172C15.8545 9.49755 16.0973 9.89729 16.2853 10.3165C16.4811 10.7279 16.6221 11.1471 16.7083 11.574C16.7944 11.9932 16.8376 12.3891 16.8376 12.7616V14.1356Z" fill="#181818"/>
<path d="M36.2985 12.7616C36.2985 13.4525 36.2123 14.0696 36.04 14.613C35.8676 15.1564 35.6326 15.6376 35.335 16.0568C35.0451 16.4682 34.7083 16.8214 34.3245 17.1164C33.9407 17.4113 33.5372 17.6558 33.1142 17.8499C32.6991 18.0362 32.2761 18.1721 31.8453 18.2574C31.4223 18.3428 31.0228 18.3855 30.6468 18.3855L37.027 23.8464H32.3035L25.9351 18.3855H23.7379V15.3582H30.6468C31.0306 15.3271 31.3792 15.2495 31.6925 15.1253C32.0137 14.9933 32.2878 14.8187 32.515 14.6013C32.75 14.384 32.9302 14.1239 33.0555 13.8212C33.1808 13.5107 33.2435 13.1575 33.2435 12.7616V10.8521C33.2435 10.6813 33.22 10.5532 33.173 10.4678C33.1338 10.3747 33.079 10.3087 33.0085 10.2699C32.9458 10.2233 32.8753 10.1962 32.797 10.1884C32.7265 10.1806 32.6599 10.1768 32.5973 10.1768H22.5159V23.8464H19.4609V8.67473C19.4609 8.46513 19.5001 8.2672 19.5784 8.08089C19.6567 7.89461 19.7625 7.73158 19.8956 7.59188C20.0367 7.45214 20.2012 7.34348 20.3892 7.26582C20.5772 7.1882 20.7808 7.14941 21.0002 7.14941H32.5973C33.2788 7.14941 33.8545 7.27361 34.3245 7.52201C34.7945 7.76262 35.1744 8.06924 35.4642 8.44184C35.7619 8.80668 35.9734 9.20257 36.0987 9.62949C36.2319 10.0564 36.2985 10.4562 36.2985 10.8288V12.7616Z" fill="#181818"/>
<path d="M57.0482 17.093C57.0482 18.1099 56.8722 19.0453 56.5196 19.8992C56.1671 20.753 55.6774 21.4905 55.0505 22.1115C54.4241 22.7325 53.6801 23.2176 52.8182 23.5669C51.9644 23.9084 51.0323 24.0792 50.0216 24.0792H45.8859C44.8752 24.0792 43.9391 23.9084 43.0776 23.5669C42.2162 23.2176 41.4718 22.7325 40.8453 22.1115C40.2185 21.4905 39.725 20.753 39.3647 19.8992C39.0122 19.0453 38.8359 18.1099 38.8359 17.093V13.9027C38.8359 12.8936 39.0122 11.9621 39.3647 11.1082C39.725 10.2466 40.2185 9.50918 40.8453 8.89593C41.4718 8.27494 42.2162 7.78979 43.0776 7.44048C43.9391 7.09118 44.8752 6.9165 45.8859 6.9165H50.0216C51.0323 6.9165 51.9644 7.09118 52.8182 7.44048C53.6801 7.78979 54.4241 8.27494 55.0505 8.89593C55.6774 9.50918 56.1671 10.2466 56.5196 11.1082C56.8722 11.9621 57.0482 12.8936 57.0482 13.9027V17.093ZM53.9933 13.9027C53.9933 13.305 53.8955 12.7655 53.6994 12.2842C53.5117 11.7952 53.2413 11.3799 52.8888 11.0384C52.5439 10.689 52.1252 10.4213 51.6315 10.235C51.1458 10.0409 50.6092 9.94385 50.0216 9.94385H45.8859C45.2907 9.94385 44.7461 10.0409 44.2528 10.235C43.7671 10.4213 43.348 10.689 42.9954 11.0384C42.6429 11.3799 42.3686 11.7952 42.1729 12.2842C41.9848 12.7655 41.8909 13.305 41.8909 13.9027V17.093C41.8909 17.6908 41.9848 18.2341 42.1729 18.7232C42.3686 19.2044 42.6429 19.6197 42.9954 19.969C43.348 20.3106 43.7671 20.5784 44.2528 20.7724C44.7461 20.9587 45.2907 21.0519 45.8859 21.0519H49.9984C50.5935 21.0519 51.1342 20.9587 51.6199 20.7724C52.1132 20.5784 52.5363 20.3106 52.8888 19.969C53.2413 19.6197 53.5117 19.2044 53.6994 18.7232C53.8955 18.2341 53.9933 17.6908 53.9933 17.093V13.9027Z" fill="#181818"/>
<path d="M74.0056 17.0232L63.1252 17.0115V13.9726H74.0056V17.0232ZM75.3688 10.1768H63.1252V23.8464H60.0703V8.67473C60.0703 8.46513 60.1096 8.2672 60.1878 8.08089C60.2664 7.89461 60.3719 7.73158 60.5051 7.59188C60.6462 7.45214 60.8107 7.34348 60.9988 7.26582C61.1865 7.1882 61.3902 7.14941 61.6096 7.14941H75.3688V10.1768Z" fill="#181818"/>
<path d="M80.9143 23.8464H77.8594V7.14941H80.9143V23.8464Z" fill="#181818"/>
<path d="M86.3516 3.97436C86.3516 1.77938 88.1471 0 90.3622 0H131.992C134.207 0 136.003 1.77938 136.003 3.97436V27.0256C136.003 29.2206 134.207 31 131.992 31H90.3622C88.1471 31 86.3516 29.2206 86.3516 27.0256V3.97436Z" fill="#018780"/>
<path d="M109.839 23.8461H94.3672V18.2471C94.3672 17.96 94.3985 17.6573 94.461 17.3391C94.5316 17.0132 94.6375 16.6912 94.7783 16.373C94.9194 16.0548 95.0995 15.7522 95.3189 15.465C95.5459 15.1779 95.8158 14.9257 96.1295 14.7084C96.4503 14.4834 96.8185 14.3049 97.2336 14.173C97.6487 14.041 98.1183 13.9751 98.6433 13.9751H105.527C105.942 13.9751 106.247 13.8742 106.444 13.6724C106.647 13.4629 106.749 13.1603 106.749 12.7645V11.4258C106.749 11.0145 106.647 10.7041 106.444 10.4946C106.24 10.2851 105.942 10.1803 105.551 10.1803H95.7416V7.15381H105.551C106.067 7.15381 106.533 7.21978 106.948 7.35169C107.364 7.4836 107.728 7.66209 108.041 7.88716C108.362 8.10444 108.636 8.35665 108.863 8.6438C109.091 8.9309 109.275 9.23355 109.415 9.55174C109.564 9.86214 109.67 10.1803 109.733 10.5062C109.803 10.8244 109.839 11.1232 109.839 11.4026V12.7645C109.839 13.5483 109.693 14.2118 109.404 14.755C109.122 15.2904 108.765 15.7289 108.335 16.0703C107.904 16.404 107.438 16.6485 106.937 16.8037C106.444 16.9511 105.981 17.0248 105.551 17.0248H98.6433C98.3926 17.0248 98.1929 17.0598 98.0441 17.1296C97.8953 17.1995 97.7778 17.2926 97.6916 17.409C97.6134 17.5254 97.5544 17.6573 97.5155 17.8048C97.4762 17.9522 97.4449 18.0996 97.4217 18.2471V20.8196H109.839V23.8461Z" fill="white"/>
<path d="M127.979 23.8461H124.901V17.0248H114.047C113.828 17.0248 113.624 16.9861 113.436 16.9084C113.248 16.8231 113.084 16.7144 112.943 16.5825C112.809 16.4428 112.704 16.2799 112.625 16.0936C112.547 15.9074 112.508 15.7095 112.508 15.5V7.15381H115.562V13.9751H124.901V7.15381H127.979V23.8461Z" fill="white"/>
</g>
<defs>
<clipPath id="clip0_40_5163">
<rect width="136" height="31" fill="white"/>
</clipPath>
</defs>
</svg>
