<svg width="24" height="25" viewBox="0 0 24 25" fill="none" xmlns="http://www.w3.org/2000/svg">
<path d="M11.5625 11.7078C10.9823 11.7078 10.4259 11.9382 10.0157 12.3485C9.60547 12.7587 9.375 13.3151 9.375 13.8953C9.375 14.4754 9.60547 15.0318 10.0157 15.4421C10.4259 15.8523 10.9823 16.0828 11.5625 16.0828C12.1427 16.0828 12.6991 15.8523 13.1093 15.4421C13.5195 15.0318 13.75 14.4754 13.75 13.8953C13.75 13.3151 13.5195 12.7587 13.1093 12.3485C12.6991 11.9382 12.1427 11.7078 11.5625 11.7078ZM10.625 13.8953C10.625 13.6466 10.7238 13.4082 10.8996 13.2324C11.0754 13.0565 11.3139 12.9578 11.5625 12.9578C11.8111 12.9578 12.0496 13.0565 12.2254 13.2324C12.4012 13.4082 12.5 13.6466 12.5 13.8953C12.5 14.1439 12.4012 14.3824 12.2254 14.5582C12.0496 14.734 11.8111 14.8328 11.5625 14.8328C11.3139 14.8328 11.0754 14.734 10.8996 14.5582C10.7238 14.3824 10.625 14.1439 10.625 13.8953Z" fill="white"/>
<path d="M15.0162 7.09275L13.0294 4.30713L5.72375 10.1434L5.31875 10.139V10.1453H5V17.6453H18.125V10.1453H17.5238L16.3275 6.64588L15.0162 7.09275ZM16.2031 10.1453H9.93563L14.6037 8.554L15.555 8.24963L16.2031 10.1453ZM13.7812 7.514L8.9625 9.1565L12.7787 6.10775L13.7812 7.514ZM6.25 15.2509V12.5384C6.51368 12.4449 6.75319 12.2938 6.95106 12.0961C7.14893 11.8983 7.30017 11.6589 7.39375 11.3953H15.7312C15.8248 11.659 15.976 11.8985 16.1739 12.0964C16.3717 12.2942 16.6113 12.4455 16.875 12.539V15.2515C16.6113 15.345 16.3717 15.4963 16.1739 15.6941C15.976 15.892 15.8248 16.1315 15.7312 16.3953H7.395C7.30136 16.1313 7.14998 15.8916 6.95189 15.6936C6.7538 15.4956 6.514 15.3444 6.25 15.2509Z" fill="white"/>
</svg>
