<svg width="26" height="26" viewBox="0 0 26 26" fill="none" xmlns="http://www.w3.org/2000/svg">
<path fill-rule="evenodd" clip-rule="evenodd" d="M18.9565 18.8083C20.0913 18.8083 21.0121 17.8903 21.0157 16.7556V16.7556V16.7556C21.015 16.1782 20.7845 15.6249 20.3752 15.2177L19.0107 13.8521V9.79551C19.0104 8.20102 18.3764 6.67202 17.2482 5.54526C16.12 4.41849 14.5902 3.78637 12.9957 3.78809V3.78809C9.679 3.78989 6.99106 6.4788 6.99046 9.79551V13.8489L5.62598 15.2144C5.21634 15.6215 4.9855 16.1748 4.98438 16.7523V16.7523V16.7523C4.98796 17.887 5.90884 18.805 7.04357 18.805L18.9565 18.8083Z" stroke="#C3C3C3" stroke-width="1.5" stroke-linecap="round" stroke-linejoin="round"/>
<path d="M11.3984 22.2123H14.6032" stroke="#C3C3C3" stroke-width="1.5" stroke-linecap="round" stroke-linejoin="round"/>
</svg>
