<svg width="28" height="28" viewBox="0 0 28 28" fill="none" xmlns="http://www.w3.org/2000/svg">
<path d="M23.2662 17.8051C24.7979 19.3368 24.7979 21.8203 23.2662 23.3521C21.7344 24.8839 19.2509 24.8839 17.7191 23.3521C16.1874 21.8203 16.1874 19.3368 17.7191 17.8051C19.2509 16.2733 21.7344 16.2733 23.2662 17.8051" stroke="#018780" stroke-width="1.5" stroke-linecap="round" stroke-linejoin="round"/>
<path fill-rule="evenodd" clip-rule="evenodd" d="M24.7913 8.34389L21.4103 11.7249C20.8993 12.2359 20.0721 12.2359 19.5611 11.7249L16.1801 8.34389C15.6691 7.83289 15.6691 7.00572 16.1801 6.49472L19.5611 3.11372C20.0721 2.60272 20.8993 2.60272 21.4103 3.11372L24.7913 6.49472C25.3011 7.00572 25.3011 7.83289 24.7913 8.34389V8.34389Z" stroke="#018780" stroke-width="1.5" stroke-linecap="round" stroke-linejoin="round"/>
<path d="M10.1958 4.73085C11.7276 6.26262 11.7276 8.7461 10.1958 10.2779C8.66408 11.8096 6.1806 11.8096 4.64882 10.2779C3.11706 8.74611 3.11706 6.26263 4.64882 4.73085C6.18059 3.19909 8.66407 3.19909 10.1958 4.73085" stroke="#018780" stroke-width="1.5" stroke-linecap="round" stroke-linejoin="round"/>
<path fill-rule="evenodd" clip-rule="evenodd" d="M5.0344 16.9648H9.8154C10.5376 16.9648 11.1232 17.5505 11.1232 18.2727V23.0537C11.1232 23.7758 10.5376 24.3615 9.8154 24.3615H5.0344C4.31223 24.3615 3.72656 23.7758 3.72656 23.0537V18.2727C3.72656 17.5493 4.31223 16.9648 5.0344 16.9648V16.9648Z" stroke="#018780" stroke-width="1.5" stroke-linecap="round" stroke-linejoin="round"/>
</svg>
