<svg width="24" height="25" viewBox="0 0 24 25" fill="none" xmlns="http://www.w3.org/2000/svg">
<g clip-path="url(#clip0_54_5063)">
<path d="M12 5.30713L11.6675 5.46463L5.5425 8.03713L5 8.26463V8.80713C5 11.7121 6.1725 14.2671 7.5725 16.1396C8.2725 17.0671 9.025 17.8371 9.76 18.3796C10.495 18.9221 11.2125 19.3071 12 19.3071C12.805 19.3071 13.505 18.9221 14.24 18.3796C14.975 17.8371 15.7275 17.0671 16.4275 16.1396C17.8275 14.2671 19 11.7121 19 8.80713V8.26463L18.4575 8.03713L12.3325 5.46463L12 5.30713ZM12 7.21463V17.5571C11.93 17.5571 11.4225 17.4346 10.845 17.0146C10.2675 16.5946 9.6025 15.9121 8.99 15.1071C7.74712 13.4357 7.00651 11.4445 6.855 9.36713L12 7.23213V7.21463Z" fill="white"/>
</g>
<defs>
<clipPath id="clip0_54_5063">
<rect width="14" height="14" fill="white" transform="translate(5 5.30713)"/>
</clipPath>
</defs>
</svg>
