<svg width="28" height="28" viewBox="0 0 28 28" fill="none" xmlns="http://www.w3.org/2000/svg">
<path d="M19.4529 19.8342L19.1215 19.0024C18.9535 18.5812 18.6934 18.202 18.3609 17.894V17.894C17.7974 17.3714 17.0565 17.082 16.2889 17.082H11.7109C10.942 17.082 10.2024 17.3725 9.63887 17.894V17.894C9.30637 18.202 9.04621 18.5812 8.87821 19.0024L8.54688 19.8342" stroke="white" stroke-width="1.5" stroke-linecap="round" stroke-linejoin="round"/>
<path d="M16.2699 9.10767C17.5229 10.3606 17.5229 12.392 16.2699 13.6449C15.017 14.8979 12.9856 14.8979 11.7327 13.6449C10.4797 12.392 10.4797 10.3606 11.7327 9.10767C12.9856 7.85474 15.017 7.85474 16.2699 9.10767" stroke="white" stroke-width="1.5" stroke-linecap="round" stroke-linejoin="round"/>
<path d="M8.85267 3.5H5.83333C4.54417 3.5 3.5 4.54417 3.5 5.83333V8.85267" stroke="white" stroke-width="1.5" stroke-linecap="round" stroke-linejoin="round"/>
<path d="M19.1523 24.5011H22.1717C23.4608 24.5011 24.505 23.4569 24.505 22.1678V19.1484" stroke="white" stroke-width="1.5" stroke-linecap="round" stroke-linejoin="round"/>
<path d="M3.5 19.1484V22.1678C3.5 23.4569 4.54417 24.5011 5.83333 24.5011H8.85267" stroke="white" stroke-width="1.5" stroke-linecap="round" stroke-linejoin="round"/>
<path d="M24.505 8.85267V5.83333C24.505 4.54417 23.4608 3.5 22.1717 3.5H19.1523" stroke="white" stroke-width="1.5" stroke-linecap="round" stroke-linejoin="round"/>
</svg>
