<svg width="28" height="28" viewBox="0 0 28 28" fill="none" xmlns="http://www.w3.org/2000/svg">
<path fill-rule="evenodd" clip-rule="evenodd" d="M15.751 15.9827L7.81771 23.9161C6.76771 24.9661 5.13437 24.9661 4.08437 23.9161C3.03437 22.8661 3.03437 21.2327 4.08437 20.1827L12.0177 12.2494C11.0844 9.91606 11.6677 7.23272 13.5344 5.36606C15.5177 3.38272 18.4344 3.03272 20.7677 3.96606C20.8844 3.96606 20.8844 4.08272 20.7677 4.19939L16.5677 8.39939L19.601 11.4327L23.9177 7.23272C23.9177 7.23272 24.0344 7.23272 24.151 7.23272C25.3177 9.56606 24.7344 12.4827 22.751 14.4661C20.7677 16.3327 18.0844 16.7994 15.751 15.9827Z" stroke="#018780" stroke-width="1.5" stroke-linecap="round" stroke-linejoin="round"/>
</svg>
