<svg width="28" height="28" viewBox="0 0 28 28" fill="none" xmlns="http://www.w3.org/2000/svg">
<path d="M7.147 16.1016L3.5 19.8349L6.41667 21.5849L8.16667 24.5016L12.7155 19.7241" stroke="#018780" stroke-width="1.5" stroke-linecap="round" stroke-linejoin="round"/>
<path d="M15.2852 19.7241L19.834 24.5016L21.584 21.5849L24.5007 19.8349L20.8537 16.1016" stroke="#018780" stroke-width="1.5" stroke-linecap="round" stroke-linejoin="round"/>
<path d="M19.7734 5.89196C22.9627 9.08124 22.9627 14.2521 19.7734 17.4414C16.5841 20.6306 11.4133 20.6306 8.22399 17.4414C5.03471 14.2521 5.03471 9.08124 8.22399 5.89196C11.4133 2.70268 16.5841 2.70268 19.7734 5.89196" stroke="#018780" stroke-width="1.5" stroke-linecap="round" stroke-linejoin="round"/>
<path fill-rule="evenodd" clip-rule="evenodd" d="M13.9991 14.6818L16.0956 15.7832C16.504 15.9978 16.9811 15.6513 16.903 15.1963L16.5028 12.8618L18.1991 11.2098C18.5293 10.8878 18.3473 10.3267 17.8911 10.2602L15.5473 9.9195L14.4996 7.795C14.2955 7.38083 13.7063 7.38083 13.5021 7.795L12.4545 9.9195L10.1095 10.2613C9.6533 10.3278 9.4713 10.889 9.80147 11.211L11.4978 12.863L11.0976 15.1975C11.0195 15.6525 11.4966 15.999 11.905 15.7843L14.0015 14.683H13.9991V14.6818Z" stroke="#018780" stroke-width="1.5" stroke-linecap="round" stroke-linejoin="round"/>
</svg>
